<svg width="12" height="12" viewBox="0 0 12 12" fill="none" xmlns="http://www.w3.org/2000/svg">
<path d="M1.7712 0.0120726C1.31856 0.0964146 0.978382 0.262287 0.666317 0.554673C0.23055 0.967948 0.00563781 1.47962 0.00563781 2.06439C0.00282641 2.44393 0.0703 2.68571 0.300835 3.14116C0.396422 3.32952 0.47233 3.49259 0.469519 3.50383C0.466707 3.51789 0.477953 3.52632 0.494821 3.52632C0.508878 3.52632 0.514501 3.53757 0.506067 3.55444C0.494821 3.57412 1.31294 3.58255 2.93512 3.58255C5.09427 3.58255 5.38385 3.57693 5.38385 3.54038C5.38385 3.51789 5.3726 3.49821 5.35573 3.49821C5.34167 3.49821 5.32762 3.47853 5.32762 3.45604C5.32762 3.36607 4.22274 0.953892 4.14402 0.866738C4.0653 0.788019 4.00907 0.751471 3.59861 0.532182C3.50583 0.484388 3.30622 0.377555 3.15722 0.296024C3.0054 0.214494 2.8817 0.155454 2.8817 0.1667C2.8817 0.175134 2.85359 0.163888 2.81985 0.141397C2.76362 0.10766 2.58931 0.057055 2.56682 0.0683007C2.5612 0.0711122 2.52184 0.057055 2.47686 0.0401866C2.37846 0.00363851 1.92301 -0.0132298 1.7712 0.0120726Z" fill="#28D07E"/>
<path d="M6.5337 2.31741C6.35939 2.37645 6.1879 2.53951 6.12605 2.70257C6.04733 2.9078 6.08107 3.06524 6.3116 3.58254C6.42687 3.83838 6.54214 4.06891 6.57025 4.09703C6.61523 4.14201 6.73893 4.14482 8.52417 4.1392L10.4303 4.13076L10.2757 4.05204C10.1913 4.00706 10.0704 3.9424 10.0086 3.90866C9.94674 3.87211 9.46599 3.61909 8.94026 3.34357C8.41453 3.07086 7.92253 2.8094 7.84381 2.76723C7.50082 2.57887 7.04819 2.35115 6.94417 2.31741C6.7811 2.26399 6.69395 2.26399 6.5337 2.31741Z" fill="#28D07E"/>
<path d="M0.548223 3.63036C0.705661 3.91712 1.34666 5.28346 1.39727 5.4409C1.49004 5.73609 1.49004 6.26183 1.40008 6.5514C1.36634 6.65823 1.06552 7.29923 0.730964 7.97116C0.0815306 9.2897 0.0196798 9.44995 0.0056228 9.86604L0 10.091L3.08973 10.105C5.62842 10.1163 6.18789 10.1134 6.21881 10.0825C6.23849 10.0628 6.25536 10.0544 6.25536 10.0657C6.25536 10.0769 6.27785 10.0685 6.30597 10.046C6.33127 10.0235 6.59273 9.88572 6.88512 9.73953C7.60202 9.37967 7.71729 9.26159 7.71729 8.87081C7.71729 8.72461 7.66106 8.58967 6.84013 6.7735C6.76423 6.60201 6.65177 6.35741 6.59273 6.22528C5.95735 4.81677 5.80273 4.47378 5.65935 4.1589C5.56657 3.95648 5.47098 3.74562 5.44568 3.68658L5.39789 3.58256H2.9604C0.64381 3.58256 0.520109 3.58537 0.548223 3.63036Z" fill="#28D07E"/>
<path d="M6.75294 4.55809C7.56262 6.36582 7.98433 7.29359 8.03494 7.39198C8.06868 7.45384 8.09117 7.51288 8.08836 7.52412C8.08554 7.53537 8.72373 7.54942 9.50811 7.55223L10.9307 7.56067L11.0966 7.37793C11.6392 6.77629 11.7657 5.87383 11.4142 5.11475C11.2484 4.75489 10.9335 4.40347 10.6383 4.25446C10.5708 4.21792 10.5062 4.17856 10.4977 4.16731C10.4893 4.15325 9.60651 4.14482 8.53818 4.14482C7.24212 4.14482 6.59269 4.13638 6.59269 4.1167C6.59269 4.10265 6.58145 4.08859 6.56739 4.08859C6.55333 4.08859 6.63767 4.29945 6.75294 4.55809Z" fill="#28D07E"/>
<path d="M8.13902 7.58881C8.1587 7.6113 8.16713 7.63098 8.1587 7.63098C8.12777 7.63098 8.42297 8.26354 8.48482 8.3282C8.51856 8.36475 8.6029 8.42941 8.67318 8.46877C8.77721 8.53062 8.83343 8.54468 8.98244 8.54187C9.17361 8.54187 9.26358 8.4997 10.3319 7.93461C10.5821 7.79966 10.8942 7.59724 10.8942 7.56913C10.8942 7.55507 10.2672 7.54664 9.49974 7.54664C8.26272 7.54664 8.10809 7.55226 8.13902 7.58881Z" fill="#28D07E"/>
<path d="M0.0196533 10.1809C0.0196533 10.3271 0.129298 10.6814 0.247377 10.9006C0.463854 11.3083 0.885564 11.6878 1.30727 11.8565C1.61091 11.9746 1.72898 11.9999 2.03824 11.9999C2.52742 12.0027 2.68767 11.9493 3.57045 11.4826C3.91063 11.3027 4.36608 11.0637 4.58255 10.9484C5.06049 10.701 5.68743 10.3637 6.08665 10.1444C6.14569 10.1106 5.71274 10.105 3.0897 10.105H0.0224647L0.0196533 10.1809Z" fill="#28D07E"/>
</svg>
