<svg width="60" height="67" viewBox="0 0 60 67" fill="none" xmlns="http://www.w3.org/2000/svg">
<path d="M8.22197 0.370117C4.32163 1.47327 1.45413 4.63368 0.312571 9.07614L0 10.2687V33.45V56.6313L0.312571 57.8239C1.45413 62.2664 4.3624 65.4566 8.27633 66.5449C9.29558 66.8281 9.78482 66.843 16.8788 66.843C21.0102 66.843 24.3941 66.8281 24.3941 66.7983C24.3941 66.7685 24.299 66.4405 24.1767 66.0529C24 65.4864 23.9728 64.7261 24.0136 61.5955L24.0544 57.8239L24.5028 56.7804C24.9377 55.7816 25.5493 55.0809 37.3862 42.0964L49.8211 28.456L49.7667 19.3624C49.7123 9.03142 49.7259 9.28485 48.5844 6.69093C47.47 4.18645 45.9751 2.51681 43.7599 1.3093C41.3001 -0.0174789 42.496 0.0570526 24.8154 0.0719604C9.82559 0.0719604 9.20045 0.0868683 8.22197 0.370117ZM39.9275 14.8752C40.1721 14.9795 40.5119 15.2628 40.7022 15.4864C40.9875 15.8144 41.0419 16.038 41.0419 16.7535C41.0419 17.4691 40.9875 17.6927 40.7022 18.0207C39.9819 18.8853 40.7157 18.8406 24.8426 18.8406C11.171 18.8406 10.1653 18.8257 9.71687 18.5723C8.30351 17.7971 8.30351 15.71 9.71687 14.9348C10.1653 14.6814 11.171 14.6665 24.8426 14.6665C36.9513 14.6665 39.5606 14.6963 39.9275 14.8752ZM33.4043 31.5717C33.6489 31.676 33.9887 31.9593 34.1789 32.1829C34.4643 32.5109 34.5187 32.7345 34.5187 33.45C34.5187 34.1656 34.4643 34.3892 34.1789 34.7172C33.4723 35.5669 33.9071 35.5371 21.581 35.5371C8.87429 35.5371 9.59456 35.5967 8.94224 34.5085C8.33069 33.5246 8.69762 32.1829 9.71687 31.6313C10.1653 31.3779 11.0079 31.363 21.581 31.363C30.9173 31.363 33.0374 31.3928 33.4043 31.5717ZM21.812 48.3278C22.8313 48.8794 23.1982 50.2211 22.5866 51.205C21.9615 52.2336 21.9751 52.2336 15.7644 52.2336C9.55379 52.2336 9.56738 52.2336 8.94224 51.205C8.33069 50.2211 8.69762 48.8794 9.71687 48.3278C10.1518 48.0893 10.7361 48.0595 15.7644 48.0595C20.7928 48.0595 21.3771 48.0893 21.812 48.3278Z" fill="white"/>
<path d="M52.3216 30.752C51.6285 31.229 27.4111 57.9434 27.248 58.3906C27.1665 58.6292 27.1121 60.1497 27.1121 61.9834C27.1121 65.0394 27.1257 65.1736 27.4247 65.6655C28.0227 66.6643 28.308 66.724 31.5832 66.6196C33.1869 66.5749 34.6138 66.4705 34.7769 66.3811C35.1846 66.1426 59.5651 39.4133 59.8097 38.9362C59.9185 38.7126 60 38.176 60 37.7585V36.9684L57.2548 33.9273C55.7327 32.2576 54.333 30.7967 54.1291 30.6774C53.6127 30.3793 52.8109 30.424 52.3216 30.752Z" fill="white"/>
</svg>
