<svg width="70" height="70" viewBox="0 0 70 70" fill="none" xmlns="http://www.w3.org/2000/svg">
<g id="basic">
<path id="Vector" d="M58.1172 0.310455C55.452 1.02432 52.6824 2.3476 50.4353 4.00169C49.0069 5.0638 47.474 6.54377 47.2301 7.11835C47.1082 7.39693 46.934 7.6407 46.8469 7.6407C46.7598 7.6407 44.5476 7.27505 41.9521 6.83977C36.7786 5.95178 35.1586 5.86472 33.556 6.33484C31.2915 6.97906 31.4135 6.85718 16.1368 22.2315C8.19365 30.2234 1.46983 37.0836 1.19112 37.484C-0.41145 39.8694 -0.394031 43.9263 1.22596 46.4161C1.97498 47.6001 22.9129 68.4243 23.8884 68.9814C26.4142 70.4092 30.2638 70.3221 32.5283 68.8073C33.678 68.0238 62.1062 39.7127 62.7158 38.7202C64.2139 36.3174 64.301 34.5415 63.2036 28.0992L62.4197 23.5722L63.9874 21.9355C72.2616 13.195 71.948 2.48689 63.3429 0.240807C61.9668 -0.107422 59.6326 -0.0726013 58.1172 0.310455ZM62.9423 6.19554C63.8655 6.7353 64.2139 7.51881 64.1965 9.03362C64.1965 10.8792 63.2907 13.3168 61.81 15.4585L61.2875 16.2246L60.9913 15.1973C60.1204 12.098 57.9256 9.90419 54.8249 9.03362L53.7972 8.73762L54.5811 8.19786C56.0094 7.22282 58.0997 6.2826 59.8591 5.8299C60.5733 5.65578 62.3675 5.86472 62.9423 6.19554ZM61.6707 20.2292L62.1933 23.3285L61.6358 23.8508C60.7475 24.6691 58.361 26.2188 57.1417 26.7759C54.1456 28.134 50.7663 28.7609 48.5888 28.3952C45.314 27.838 42.8231 25.7313 43.1366 23.8334C43.4502 21.9355 45.7669 20.9083 47.2476 22.0052C48.3101 22.7887 49.1985 23.1369 50.1392 23.1369C53.0656 23.1369 56.7062 21.3087 59.6501 18.3662C60.4339 17.5653 61.0959 16.9733 61.1133 17.0255C61.1307 17.0777 61.392 18.5229 61.6707 20.2292ZM41.2728 27.838C42.736 28.726 42.9624 30.6587 41.7779 31.982C41.4121 32.365 41.4121 32.3824 41.7257 33.2008C42.196 34.4544 42.3005 36.8224 41.9173 38.2153C41.3599 40.2524 39.705 42.3244 38.416 42.5682C37.0225 42.8293 35.5418 41.8021 35.298 40.3917C35.176 39.643 35.507 38.7376 36.3431 37.6059C36.6915 37.1358 36.7786 36.805 36.7786 36.0389C36.7786 34.2977 35.6638 33.2356 33.8522 33.2356C32.2844 33.2356 31.187 34.3674 31.1696 36.004C31.1696 36.9617 31.2915 37.188 32.6328 38.964C33.7302 40.4092 34.2006 41.6802 34.3051 43.5432C34.3573 44.7446 34.3051 45.2844 34.0089 46.2594C32.6502 50.769 27.738 53.2763 23.4181 51.6744L22.4774 51.3088L21.9026 51.8311C21.0316 52.5798 20.091 52.7017 19.0458 52.1793C17.4433 51.3784 17.0078 49.4283 18.1574 48.1224L18.68 47.5479L18.3316 46.5206C17.6 44.3442 17.7394 42.1851 18.7497 40.2002C19.4116 38.8944 20.8226 37.4492 21.6413 37.2403C22.8606 36.9094 24.0974 37.5188 24.7419 38.7551C25.1774 39.6082 24.8639 41.1753 24.1322 41.7847C23.7142 42.1155 23.1916 43.3169 23.1916 43.9263C23.1916 44.6924 23.8361 45.8938 24.4806 46.2768C25.369 46.834 26.3271 46.9036 27.2329 46.5032C28.2606 46.0505 28.8006 45.267 28.9051 44.1178C28.9922 43.0731 28.7658 42.5334 27.7206 41.332C23.9058 36.9268 25.8916 30.0841 31.5528 28.1863C32.5109 27.8555 32.9464 27.8206 34.3399 27.8903C35.3154 27.9425 36.3257 28.0992 36.8134 28.2907C37.6321 28.6041 37.6496 28.6041 38.0328 28.2385C38.2592 28.047 38.5902 27.8032 38.7818 27.6987C39.3567 27.3853 40.6283 27.455 41.2728 27.838Z" fill="white"/>
</g>
</svg>
