<svg width="72" height="57" viewBox="0 0 72 57" fill="none" xmlns="http://www.w3.org/2000/svg">
<path d="M22.3556 0.304092C19.5593 0.992172 16.7777 2.92464 15.7969 4.84248C15.5773 5.28168 14.9917 5.838 13.9376 6.64319C13.8058 6.73103 13.8058 6.64319 13.923 6.20399C14.0108 5.89656 14.084 5.12064 14.084 4.47648C14.084 2.76361 13.513 1.62169 12.6639 1.62169C12.3272 1.62169 10.2922 3.61272 9.64809 4.56432C8.52081 6.21864 7.90594 8.32679 8.1109 9.89326C8.15482 10.3325 8.38905 11.0791 8.62329 11.5329L9.04785 12.3674L8.72577 12.9384L8.41833 13.4947L8.24265 12.5431C7.8913 10.6692 6.95434 9.23447 6.07594 9.23447C5.50498 9.23447 5.28538 9.45406 4.69979 10.6253C3.85067 12.3381 3.57251 13.5093 3.57251 15.4564C3.58715 17.5792 3.89459 18.5455 4.90475 19.5996C5.51962 20.2437 5.5489 20.3023 5.46106 20.9025C5.41714 21.2539 5.3293 21.532 5.27074 21.532C5.22682 21.5174 5.02187 21.1807 4.83155 20.7561C4.12883 19.2775 2.56235 18.0038 1.68396 18.2234C1.23012 18.3405 1.05444 18.8529 0.834838 20.8147C0.42492 24.2404 1.78644 27.6662 3.95315 28.6324C4.36307 28.8227 4.52411 28.9838 4.52411 29.218C4.52411 29.3937 4.56803 29.7597 4.61195 30.0086C4.71443 30.477 4.69979 30.4624 3.85067 29.6279C2.86979 28.647 2.12315 28.2518 1.12764 28.1493C0.0442807 28.0468 -0.0728389 28.2225 0.0296408 29.7304C0.20532 32.2924 1.09836 34.3859 2.69411 35.967C3.52859 36.8161 3.87995 37.065 4.52411 37.2553C4.94867 37.3871 5.44642 37.4896 5.6221 37.4896C5.87098 37.4896 5.9881 37.6506 6.16378 38.1923L6.38338 38.895L5.41714 38.3826C4.59731 37.9434 4.27523 37.8702 3.23579 37.8117C1.9182 37.7385 1.44972 37.9434 1.44972 38.5729C1.479 39.6563 3.13331 42.5696 4.37771 43.6969C5.88562 45.0438 7.70098 45.7319 9.04785 45.4537L9.73593 45.3073L10.219 45.9661C10.6875 46.581 10.7022 46.6103 10.3654 46.5078C9.64809 46.2882 8.0377 46.2443 7.36426 46.4053C5.73922 46.8152 5.44642 47.5179 6.39802 48.7184C7.61314 50.241 9.19425 51.4268 10.8925 52.071C11.7123 52.3931 12.1808 52.4663 13.2349 52.4809C14.3914 52.4955 14.655 52.4516 15.3577 52.1003L16.1482 51.705L17.1877 52.3638C19.4715 53.8424 22.9851 55.2625 26.0009 55.9359C27.626 56.2873 27.8602 56.3019 28.153 55.9945C28.4312 55.7163 28.4604 54.999 28.2116 54.794C28.1091 54.7208 27.3624 54.5158 26.5572 54.3402C23.6292 53.696 20.8184 52.598 18.3442 51.1047C17.378 50.5191 17.1145 50.2849 17.1877 50.0946C17.2462 49.9628 17.3633 49.4504 17.4512 48.9673C17.7586 47.2398 16.9095 44.4728 15.3138 41.984C14.8306 41.2374 14.7135 41.1496 14.289 41.1496C13.923 41.1496 13.6741 41.2813 13.2788 41.6912C12.5029 42.5111 12.254 43.126 12.1515 44.4436L12.0637 45.6148L11.5952 44.9706L11.1267 44.3264L11.4927 43.8433C11.6977 43.5798 12.0051 43.0088 12.1662 42.5843C12.7957 40.9739 12.6346 37.0211 11.8734 35.44C11.1706 33.976 8.97465 35.4253 8.12554 37.9141L7.94986 38.4119L7.75954 37.7385L7.56922 37.065L8.38905 36.3037C9.42849 35.3668 10.1458 33.9174 10.5411 32.0289C10.8486 30.4917 10.9071 28.4128 10.6436 28.1493C10.424 27.9297 9.22353 27.915 8.66721 28.1346C7.93522 28.3982 7.17394 29.0277 6.7201 29.7011L6.2809 30.3599V29.6279V28.8959L6.9397 28.6324C8.41833 28.0761 9.88233 26.4511 10.8778 24.2843C12.0783 21.6931 12.0637 21.2246 10.7607 20.9318C9.67737 20.6976 8.59401 20.9318 7.58386 21.6199C7.0129 22.0298 6.85186 22.0737 6.92506 21.8687C6.96898 21.7223 7.04218 21.4296 7.10074 21.1953C7.17394 20.8732 7.27642 20.8 7.65706 20.8C9.48705 20.8 11.8294 19.3068 13.6887 16.9497C14.9478 15.354 14.9331 14.9587 13.6009 14.2706C12.8982 13.9193 11.2585 13.9046 10.4094 14.256L9.76521 14.5048L10.1019 13.9193C10.4386 13.3337 10.4679 13.319 10.9657 13.4361C11.8441 13.6411 13.7619 13.5533 14.6257 13.2605C15.7676 12.8945 17.3341 12.0893 18.3735 11.3426C19.5886 10.4789 19.7057 10.1421 19.0762 9.38087C18.476 8.66351 17.3633 8.18039 16.1043 8.07791L15.0063 7.99007L15.7383 7.37519C16.3678 6.86279 16.6753 6.71639 17.6415 6.52607C20.3792 5.96976 24.288 4.3008 27.0404 2.51472C28.2408 1.72417 28.3872 1.57777 28.3872 1.19713C28.3872 0.962891 28.2848 0.670094 28.1676 0.552971C27.5967 -0.0326271 24.3027 -0.164387 22.3556 0.304092ZM24.7272 1.94377C23.2193 2.86609 18.7981 4.71072 18.1246 4.69608C18.0075 4.68144 18.2564 4.38864 18.6517 4.02264C20.0132 2.79288 22.8387 1.66561 24.5808 1.63633L25.2396 1.62169L24.7272 1.94377ZM12.2833 5.85263C12.0051 7.08239 10.4972 10.3764 10.0873 10.6253C9.91161 10.7277 9.75057 9.87862 9.76521 9.00023C9.79449 7.63871 10.5411 5.96976 11.727 4.62288L12.3565 3.90552L12.4004 4.49112C12.4297 4.79856 12.3711 5.41344 12.2833 5.85263ZM17.0559 9.93718C17.2609 10.0543 17.1145 10.1861 16.2946 10.6692C14.6989 11.6208 12.5029 12.2357 11.9173 11.8989C11.7123 11.7965 11.7562 11.694 12.3126 11.2255C13.0299 10.596 14.084 10.025 14.8746 9.82006C15.4894 9.67366 16.6899 9.73222 17.0559 9.93718ZM6.67618 13.7729C6.74938 14.9733 6.45658 17.3889 6.14914 18.1795C6.03202 18.5162 5.9881 18.4869 5.63674 17.6964C4.93403 16.2031 5.02187 14.0217 5.85634 12.2064L6.16378 11.5037L6.38338 12.0161C6.51514 12.2942 6.6469 13.0848 6.67618 13.7729ZM12.2686 15.6614C12.7078 15.9396 10.1019 18.3552 8.84289 18.8236C8.47689 18.97 8.14018 19.0432 8.09626 18.9993C7.9645 18.8676 8.60865 17.7549 9.16497 17.1254C9.91161 16.3056 10.9364 15.7346 11.9905 15.5443C12.0344 15.5443 12.1515 15.5882 12.2686 15.6614ZM3.44075 21.7663C3.93851 22.8203 4.36307 24.5771 4.46555 25.9826L4.53875 27.1684L3.87995 26.4657C3.51395 26.0704 3.10403 25.4263 2.92835 24.9871C2.54771 23.9623 2.31347 22.2494 2.43059 21.1807L2.51843 20.3169L2.81123 20.6683C2.97227 20.8586 3.26507 21.3563 3.44075 21.7663ZM9.79449 22.6447C9.79449 22.6886 9.50169 23.3035 9.13569 23.9915C8.46225 25.3091 7.46674 26.4803 6.7201 26.8756L6.2809 27.0952L6.38338 26.6267C6.66154 25.1481 7.58386 23.6255 8.59401 22.9814C9.20889 22.6007 9.79449 22.4251 9.79449 22.6447ZM8.98929 31.2969C8.74041 32.673 7.97914 34.4591 7.43746 34.9276L7.13002 35.2204L7.18858 33.7564C7.2325 32.6438 7.33498 32.1021 7.58386 31.5311C7.93522 30.7552 9.07713 29.5401 9.17961 29.8475C9.20889 29.9354 9.12105 30.5942 8.98929 31.2969ZM3.33827 31.6336C4.33379 33.0537 5.50498 35.7328 5.13898 35.7328C4.78763 35.7328 3.67499 34.708 3.10403 33.8589C2.51843 32.9951 1.74252 30.9602 1.74252 30.3014C1.74252 30.0232 1.7718 30.0232 2.24027 30.3892C2.50379 30.5942 3.00155 31.1505 3.33827 31.6336ZM10.8778 39.466C10.8925 40.8568 10.8339 41.3692 10.629 41.9108C10.4826 42.3061 10.3069 42.6136 10.2483 42.6136C10.1019 42.6136 9.67737 41.2228 9.56025 40.3297C9.44313 39.3635 9.70665 38.163 10.1898 37.4164L10.585 36.8308L10.7168 37.27C10.79 37.5189 10.8632 38.4997 10.8778 39.466ZM5.15363 40.154C5.97346 40.7104 6.76402 41.457 7.70098 42.5257C8.75505 43.7262 8.85753 44.0044 8.15482 43.858C6.7201 43.5652 5.06578 42.2622 4.12883 40.6957C3.36755 39.4074 3.35291 39.3489 4.08491 39.6124C4.42163 39.7295 4.90475 39.9784 5.15363 40.154ZM14.5378 43.9751C15.387 45.4244 16.0018 47.6936 15.8115 48.6599L15.709 49.1283L15.0942 48.3085C14.3036 47.2544 13.879 46.2736 13.7912 45.2488C13.718 44.5314 13.923 43.3456 14.1133 43.3456C14.1426 43.3456 14.3329 43.6237 14.5378 43.9751ZM10.9364 48.5135C12.2247 49.0551 14.5086 50.4899 14.4061 50.6655C14.2743 50.8851 13.352 50.9583 12.5614 50.8119C11.361 50.5923 9.83841 49.7725 8.76969 48.7623L7.8181 47.8693L8.81361 47.9425C9.50169 48.0011 10.1898 48.1767 10.9364 48.5135Z" fill="white"/>
<path d="M44.579 0.216251C43.8031 0.435848 43.6128 0.61153 43.6128 1.22641C43.6128 1.57777 43.7885 1.75344 44.9743 2.51472C47.7559 4.31544 51.6208 5.96975 54.3585 6.52607C55.3248 6.71639 55.6322 6.86279 56.2617 7.37519L56.9937 7.99007L55.8957 8.07791C54.6367 8.18039 53.524 8.66351 52.9238 9.38086C52.2943 10.1421 52.4114 10.4789 53.6265 11.3426C54.666 12.0893 56.2324 12.8945 57.3743 13.2605C58.2381 13.5532 60.1559 13.6411 61.0343 13.4361C61.5321 13.319 61.5614 13.3336 61.8835 13.9046L62.2202 14.4902L61.6639 14.256C60.8733 13.9193 59.0726 13.9193 58.3991 14.2706C57.0669 14.9733 57.0523 15.354 58.3113 16.9497C60.1852 19.3068 62.513 20.8 64.3576 20.8C64.6211 20.8 64.8407 20.8439 64.8407 20.9025C64.8407 20.9757 64.8993 21.2685 64.9725 21.5613L65.1042 22.103L64.4894 21.6931C63.8159 21.2246 62.674 20.8 62.1177 20.8C61.9127 20.8 61.4589 20.8732 61.0929 20.9611C60.1413 21.2099 60.0535 21.5467 60.5366 22.9667C61.576 26.0704 63.3328 28.1786 65.4702 28.8959C65.6606 28.9691 65.7191 29.1448 65.7191 29.6133L65.7045 30.2428L65.3824 29.8036C64.87 29.1009 64.2258 28.5299 63.5963 28.2518C62.9375 27.9443 61.6199 27.8858 61.3564 28.1493C61.0929 28.4128 61.1515 30.4917 61.4589 32.0289C61.8542 33.9174 62.5715 35.3668 63.611 36.3037L64.4308 37.065L64.2405 37.7385L64.0502 38.4119L63.8745 37.9141C63.5378 36.9186 63.0986 36.2305 62.4398 35.6157C61.3857 34.6494 60.5366 34.5762 60.1267 35.44C59.3654 37.0211 59.2043 40.9739 59.8339 42.5843C59.9949 43.0088 60.3023 43.5798 60.5073 43.8433L60.8733 44.3264L60.4048 44.9706L59.9363 45.6148L59.8485 44.4436C59.746 43.126 59.4971 42.5111 58.7212 41.6912C58.3259 41.2813 58.0771 41.1496 57.7111 41.1496C57.2865 41.1496 57.1694 41.2374 56.6863 41.984C55.0905 44.4728 54.2414 47.2251 54.5488 48.938C54.6367 49.4504 54.7538 49.9628 54.8124 50.0946C54.9295 50.402 53.89 51.0755 51.5916 52.2027C49.7323 53.125 47.5363 53.8863 45.4428 54.3402C44.6376 54.5158 43.891 54.7208 43.8031 54.794C43.5396 54.999 43.5689 55.7163 43.847 55.9945C44.1398 56.3019 44.3741 56.2873 45.9991 55.9359C49.0149 55.2625 52.7628 53.7399 54.9588 52.2906L55.8518 51.705L56.6424 52.1003C58.1942 52.8615 60.6244 52.5395 62.674 51.3097C64.343 50.2995 66.1583 48.3524 66.1583 47.5911C66.1583 46.7567 64.6943 46.1711 62.9668 46.3175C62.4251 46.3614 61.8249 46.4492 61.6346 46.5078C61.2979 46.6103 61.3125 46.581 61.781 45.9661L62.2641 45.3073L62.9522 45.4537C64.299 45.7319 66.1144 45.0438 67.6223 43.6969C68.8667 42.5696 70.521 39.6563 70.5503 38.5729C70.5503 37.9434 70.0818 37.7385 68.7642 37.8117C67.7248 37.8702 67.4027 37.9434 66.5829 38.3826L65.6166 38.895L65.8362 38.1923C66.0119 37.6506 66.129 37.4896 66.3779 37.4896C66.5536 37.4896 67.0514 37.3871 67.4759 37.2553C68.1201 37.065 68.4714 36.8161 69.3059 35.967C70.9017 34.3859 71.7947 32.2924 71.9704 29.7304C72.0729 28.2225 71.9557 28.0468 70.8724 28.1493C69.8769 28.2518 69.1302 28.647 68.1494 29.6279C67.3002 30.4624 67.2856 30.477 67.3881 30.0086C67.432 29.7597 67.4759 29.3937 67.4759 29.218C67.4759 28.9838 67.637 28.8227 68.0469 28.6324C70.1989 27.6662 71.5751 24.2258 71.1652 20.8147C70.9456 18.8529 70.7699 18.3405 70.3161 18.2234C69.4377 18.0038 67.8712 19.2775 67.1685 20.7561C66.9782 21.1807 66.7732 21.5174 66.7293 21.532C66.6854 21.532 66.5975 21.2539 66.5097 20.9171C66.3779 20.3023 66.3926 20.2876 67.0514 19.6288C68.1054 18.5894 68.4129 17.6232 68.4275 15.4564C68.4275 13.5093 68.1494 12.3381 67.3002 10.6253C66.7146 9.45406 66.495 9.23446 65.9241 9.23446C65.0457 9.23446 64.1087 10.6692 63.7574 12.5431L63.5817 13.4947L63.2743 12.9384L62.9522 12.3674L63.4207 11.4305C63.8452 10.596 63.8891 10.3471 63.8891 9.23446C63.8891 7.65335 63.4353 6.21863 62.4983 4.78392C61.7663 3.67128 59.7167 1.62169 59.3361 1.62169C58.487 1.62169 57.916 2.7636 57.916 4.47648C57.916 5.12064 57.9892 5.89655 58.0771 6.20399C58.2527 6.83351 58.2235 6.83351 57.1694 5.95511C56.7888 5.61839 56.3496 5.12064 56.1885 4.82784C55.5151 3.4956 53.6119 1.87056 51.7233 1.02145C49.6737 0.0844917 46.4237 -0.266869 44.579 0.216251ZM48.9271 1.85593C50.3179 2.16336 52.4407 3.2028 53.3484 4.02264C53.7583 4.38864 53.9925 4.68143 53.8754 4.69608C53.202 4.71072 48.7807 2.86608 47.2728 1.94376L46.7604 1.62169H47.3167C47.6241 1.62169 48.3415 1.72417 48.9271 1.85593ZM61.3125 6.05759C61.5467 6.48215 61.8542 7.14095 61.9859 7.55087C62.3812 8.75134 62.2495 11.0645 61.8103 10.5228C61.4296 10.0543 60.2584 7.59479 59.9363 6.55535C59.7314 5.92583 59.5703 5.07671 59.5703 4.65216L59.585 3.89088L60.2291 4.5936C60.5805 4.97424 61.0636 5.63303 61.3125 6.05759ZM58.1795 10.2446C58.6627 10.4789 59.3507 10.9181 59.6875 11.2109C60.2438 11.694 60.2877 11.7965 60.0827 11.8989C59.746 12.0893 58.5016 11.8989 57.389 11.489C56.5545 11.1669 54.7392 10.1861 54.7392 10.0397C54.7392 9.99574 54.9588 9.9079 55.2223 9.8347C55.9396 9.60046 57.1987 9.79078 58.1795 10.2446ZM66.495 13.1141C66.7146 13.8461 66.8171 14.5195 66.8171 15.4564C66.8171 16.5984 66.7586 16.8912 66.3926 17.6524C66.0119 18.4723 65.968 18.5016 65.8509 18.1795C65.3092 16.7887 65.1628 13.2019 65.5874 12.0307C65.7484 11.5622 65.7777 11.5476 65.968 11.8111C66.0851 11.9575 66.3194 12.5431 66.495 13.1141ZM61.3711 15.9981C61.6931 16.1592 62.2202 16.5398 62.5569 16.8472C63.1718 17.4182 64.0648 18.8383 63.9038 18.9993C63.8598 19.0432 63.5231 18.97 63.1571 18.8236C61.8835 18.3405 59.2775 15.9396 59.7167 15.676C59.9803 15.515 60.6683 15.6468 61.3711 15.9981ZM69.4962 23.1278C69.3059 24.6357 68.8814 25.6459 68.1347 26.4657L67.4906 27.1684V26.5096C67.4906 24.8407 68.1933 22.2055 68.9692 21.005L69.4377 20.2876L69.5402 21.166C69.5987 21.6491 69.5841 22.5275 69.4962 23.1278ZM63.4207 23.0107C64.4308 23.6695 65.3238 25.2067 65.6166 26.7731L65.7191 27.2416L65.2946 27.0366C64.5918 26.656 63.3182 25.1481 62.7472 23.9769C62.4544 23.362 62.2055 22.7911 62.2055 22.7179C62.2055 22.4251 62.7326 22.5568 63.4207 23.0107ZM63.9184 30.7406C64.5479 31.5604 64.8407 32.5998 64.8407 34.0199V35.1911L64.5333 34.9129C63.8598 34.3127 63.0986 32.2778 62.8497 30.3892L62.7472 29.6718L63.0986 29.8914C63.2889 30.0232 63.6695 30.4038 63.9184 30.7406ZM69.9062 31.7068C69.4523 33.1415 68.5446 34.5762 67.6516 35.2497C67.3002 35.5132 66.9489 35.7328 66.861 35.7328C66.6122 35.7328 66.861 35.0154 67.7102 33.2879C68.3104 32.0728 68.735 31.4286 69.3498 30.7991C70.36 29.7743 70.4625 29.9354 69.9062 31.7068ZM62.0738 37.8849C62.513 38.7779 62.5423 40.4176 62.147 41.6912C61.9859 42.2036 61.8249 42.6136 61.7663 42.6136C61.6931 42.6136 61.5321 42.3354 61.4003 41.984C61.0636 41.1496 60.9611 39.261 61.1807 37.9581C61.3857 36.7429 61.5175 36.7429 62.0738 37.8849ZM68.2372 40.0808C67.7834 40.9592 66.8025 42.189 66.1144 42.7453C65.1189 43.5505 63.3767 44.1947 63.3767 43.7555C63.3767 43.3309 65.6313 40.9885 66.8464 40.1394C67.3002 39.832 68.3836 39.3928 68.4714 39.466C68.5007 39.4953 68.3982 39.7588 68.2372 40.0808ZM58.2088 45.1902C58.1356 46.2443 57.7257 47.2251 56.9059 48.3085L56.291 49.1137L56.1739 48.6891C55.9543 47.84 56.6131 45.4098 57.4768 43.9312L57.8721 43.2724L58.0771 43.7848C58.2088 44.1215 58.2674 44.6046 58.2088 45.1902ZM63.245 48.7623C62.1616 49.7579 60.5951 50.607 59.4386 50.8119C58.648 50.9583 57.7257 50.8851 57.5939 50.6655C57.4915 50.5045 59.6728 49.1283 60.844 48.6013C61.942 48.0889 62.6301 47.9132 63.5231 47.8986H64.1819L63.245 48.7623Z" fill="white"/>
<path d="M34.7849 7.65333C33.4673 7.79973 31.9301 8.53173 30.8028 9.51261C30.3197 9.93716 29.6609 10.4349 29.3389 10.6252C28.5922 11.0791 27.2161 11.4304 26.2645 11.4304C22.5752 11.4304 19.1641 14.8415 19.1641 18.5308C19.1641 19.4824 18.8127 20.8586 18.3589 21.6052C18.1686 21.9273 17.6708 22.5861 17.2462 23.0692C14.655 26.0265 14.655 30.2135 17.2462 33.1708C17.6708 33.6539 18.1686 34.3127 18.3589 34.6348C18.8127 35.3814 19.1641 36.7576 19.1641 37.7092C19.1641 39.422 19.9986 41.3545 21.2869 42.6282C22.707 44.0336 24.0245 44.6192 26.2645 44.8095C28.0945 44.9706 29.0753 45.3219 30.2026 46.2296C32.7353 48.2938 33.3356 48.5427 35.9268 48.5427C37.8154 48.5427 37.8447 48.5281 38.928 48.0157C39.5283 47.7229 40.4067 47.1519 40.8751 46.742C42.3684 45.4098 43.7885 44.8095 45.4428 44.8095C47.2289 44.8095 49.1174 43.9604 50.4936 42.5257C51.5477 41.4277 52.1772 40.1687 52.3821 38.734C52.47 38.163 52.6017 37.2553 52.6749 36.7136C52.8506 35.4253 53.3484 34.4298 54.3878 33.244C55.7932 31.6043 56.3496 30.1696 56.3496 28.12C56.3496 26.0997 55.7932 24.6064 54.461 23.0985C53.1434 21.5906 52.5432 20.1705 52.5432 18.5308C52.5432 15.4564 50.1569 12.4699 47.0532 11.65C46.5701 11.5329 45.8527 11.4304 45.4428 11.4304C43.8031 11.4304 42.3684 10.8302 40.8751 9.49797C39.1769 8.00469 37.1419 7.38981 34.7849 7.65333ZM38.2107 9.71757C38.6645 9.93716 39.4111 10.4496 39.8796 10.8595C41.6218 12.382 42.7051 12.8359 45.0622 13.0408C46.3798 13.158 46.775 13.2604 47.6534 13.6996C49.6884 14.6952 50.6985 16.3202 50.9328 18.9261C51.1377 21.2246 51.6209 22.4104 53.0263 23.9769C54.2268 25.3384 54.7392 26.5828 54.7392 28.12C54.7392 29.6572 54.2268 30.9016 53.0263 32.2631C51.6062 33.8589 51.1377 34.9861 50.9328 37.3139C50.6985 39.9198 49.6884 41.5448 47.6534 42.5403C46.775 42.9795 46.3798 43.082 45.0622 43.1991C42.793 43.3895 41.5047 43.9165 40.0407 45.2341C38.6499 46.4931 37.4347 47.0055 35.8536 47.0055C34.2725 47.0055 33.0574 46.4931 31.6666 45.2341C30.2172 43.9311 28.8997 43.4041 26.6305 43.1991C25.3275 43.082 24.9322 42.9795 24.0392 42.5403C22.0042 41.5302 20.7891 39.5831 20.7745 37.27C20.7745 35.5571 20.0571 33.8442 18.7102 32.2924C18.2271 31.7361 17.6562 30.9162 17.4366 30.4624C17.0852 29.745 17.0413 29.4961 17.0413 28.12C17.0413 26.7438 17.0852 26.495 17.4366 25.763C17.6708 25.3091 18.1832 24.5625 18.5931 24.094C20.0718 22.3958 20.5842 21.2099 20.7745 18.9115C20.8916 17.5939 20.9941 17.1986 21.4333 16.3055C22.4434 14.2706 24.3905 13.0555 26.7037 13.0408C28.2994 13.0408 30.2026 12.2796 31.4909 11.1523C33.277 9.57117 34.1554 9.21981 36.0732 9.27837C37.1419 9.32229 37.5519 9.39549 38.2107 9.71757Z" fill="white"/>
<path d="M34.2285 14.2121C31.1541 14.5927 27.9773 16.2031 25.8838 18.4137C24.7126 19.6435 24.0684 20.5951 23.3364 22.1469C22.3702 24.1819 22.0481 25.7044 22.0481 28.12C22.0481 30.4624 22.3702 32.0289 23.2486 33.9175C24.654 36.9187 26.6158 38.9975 29.4559 40.4908C34.331 43.0674 40.2456 42.555 44.6375 39.1732C47.0092 37.3432 48.8392 34.5031 49.6298 31.414C50.0982 29.584 50.0982 26.7146 49.6298 24.826C49.2491 23.2303 48.1511 20.9318 47.1556 19.6289C44.6668 16.3349 40.8458 14.3585 36.6588 14.1535C35.8536 14.1242 34.7556 14.1389 34.2285 14.2121ZM38.6059 16.0567C42.8075 16.9351 46.2772 20.0827 47.7412 24.3137C48.2097 25.6605 48.2243 25.763 48.2243 28.12C48.2243 30.4771 48.2097 30.5796 47.7412 31.9264C47.0678 33.8589 46.1162 35.4107 44.6961 36.8162C39.8503 41.6766 32.1497 41.6766 27.3038 36.8162C25.8838 35.4107 24.9322 33.8589 24.2587 31.9264C23.7903 30.5796 23.7756 30.4771 23.7756 28.12C23.7756 25.763 23.7903 25.6605 24.2587 24.3137C24.9322 22.3812 25.8838 20.8293 27.3038 19.4239C30.305 16.4081 34.4335 15.193 38.6059 16.0567Z" fill="white"/>
<path d="M35.5755 19.7606C35.4584 19.8338 34.8288 20.9464 34.1847 22.2201L32.9989 24.5332L30.4954 24.8992C26.7476 25.4409 26.7037 25.5433 29.4267 28.2225L31.3592 30.1256L30.9639 32.3216C30.7589 33.5368 30.5833 34.7226 30.5833 34.9568C30.5833 35.4107 30.9639 35.8792 31.3153 35.8792C31.4324 35.8792 32.4865 35.3521 33.6723 34.708C34.8435 34.0638 35.8976 33.5368 36 33.5368C36.1025 33.5368 37.1566 34.0638 38.3278 34.708C39.5136 35.3521 40.5823 35.8792 40.6995 35.8792C41.0508 35.8792 41.4168 35.396 41.4168 34.9276C41.4168 34.708 41.2411 33.5368 41.0362 32.3216L40.6409 30.1256L42.5734 28.2225C44.5351 26.2753 44.7694 25.9093 44.257 25.4701C44.1252 25.353 42.9101 25.1041 41.5047 24.8992L39.0012 24.5332L37.8154 22.2201C36.6588 19.9509 36.4392 19.6288 36 19.6288C35.8829 19.6288 35.6926 19.6874 35.5755 19.7606ZM36.9077 24.2404C37.874 26.1582 37.7129 26.0557 40.2895 26.3778C41.0655 26.4803 41.7096 26.6121 41.7096 26.6706C41.7096 26.7292 41.1094 27.3148 40.392 27.9736C39.66 28.6324 39.0305 29.3205 38.9866 29.4961C38.928 29.7743 39.1476 31.4725 39.4551 33.0097L39.5429 33.4196L37.7715 32.4973L36 31.5604L34.2286 32.4973L32.4572 33.4196L32.545 33.0097C32.8525 31.4725 33.0721 29.7743 33.0135 29.4961C32.9696 29.3205 32.3401 28.6324 31.6081 27.9736C30.8907 27.3148 30.2905 26.7292 30.2905 26.6706C30.2905 26.6121 30.9346 26.4803 31.7252 26.3778C34.2872 26.0557 34.1261 26.1582 35.0924 24.2404C35.5462 23.3181 35.9561 22.5568 36 22.5568C36.044 22.5568 36.4539 23.3181 36.9077 24.2404Z" fill="white"/>
</svg>
