<svg width="60" height="67" viewBox="0 0 60 67" fill="none" xmlns="http://www.w3.org/2000/svg">
<path d="M23.7597 3.87222C17.5321 5.99896 12.355 7.7899 12.255 7.83787C12.0924 7.91782 12.0924 7.93381 12.255 8.01376C12.355 8.07773 17.5572 9.83668 23.7972 11.9634L35.1519 15.8171L46.494 11.9634C58.724 7.82188 58.2113 7.99777 58.1238 7.88584C58.0738 7.82188 36.3023 0.386285 35.2644 0.0664749C35.1644 0.0344934 29.9873 1.74548 23.7597 3.87222Z" fill="#28D07E"/>
<path d="M57.2109 10.7643C57.1484 10.7963 56.7607 10.9402 56.3731 11.0841L55.6478 11.324L55.6228 15.1937L55.5852 19.0634L54.8099 19.6391L54.0221 20.1987V24.6601C54.0221 28.194 54.0596 29.0735 54.1847 28.9616C54.2597 28.8816 54.8099 28.3539 55.3977 27.7942C55.9854 27.2346 56.5231 26.7229 56.5982 26.6429C56.6857 26.563 57.2359 27.0107 58.0613 27.7942L59.3993 29.0735V24.6441V20.1987L58.5865 19.5911L57.7736 18.9835V14.8419C57.7736 10.9882 57.7611 10.6844 57.561 10.7004C57.436 10.7004 57.2859 10.7324 57.2109 10.7643Z" fill="#28D07E"/>
<path d="M19.3829 19.7027V26.4987L19.8581 26.6106C20.1082 26.6586 22.6343 27.2822 25.4479 27.9698C28.2741 28.6414 31.2128 29.329 31.9881 29.4569C33.9264 29.8087 36.5775 29.7767 38.5783 29.409C39.8663 29.1531 46.369 27.634 50.2456 26.6586L50.8959 26.4987V19.7027C50.8959 13.2905 50.8834 12.9067 50.6833 12.9867C49.7954 13.3385 35.3145 18.1996 35.1519 18.1996C35.0018 18.1996 20.721 13.4184 19.608 12.9867C19.3954 12.9067 19.3829 13.3065 19.3829 19.7027Z" fill="#28D07E"/>
<path d="M12.0175 31.6479C9.02874 33.3909 6.56523 34.862 6.54022 34.894C6.51521 34.926 8.05334 36.1093 9.96662 37.5165C11.8799 38.9236 17.6073 43.1451 22.6968 46.9029C27.7864 50.6607 32.0632 53.8108 32.2132 53.8908C32.4258 54.0187 34.5517 52.4996 45.2061 44.6322C52.2089 39.4673 57.9613 35.1499 57.9738 35.0699C58.0363 34.846 50.2707 29.1534 49.958 29.1854C49.8205 29.2014 47.9322 29.6331 45.7688 30.1768C40.6417 31.4241 39.2411 31.7279 37.5779 31.9677C35.9273 32.1916 33.0136 32.0797 31.1378 31.7119C30.0123 31.488 18.3951 28.7377 17.6948 28.5298C17.5447 28.4818 15.3563 29.6811 12.0175 31.6479ZM28.3867 38.1721C31.6505 40.5706 34.4267 42.6814 34.5517 42.8573C34.6643 43.0332 34.7643 43.353 34.7643 43.5769C34.7643 44.0566 34.2391 44.7442 33.8764 44.7442C33.5763 44.7442 21.5339 35.9174 21.2963 35.5176C21.0587 35.1179 21.0962 34.6062 21.3963 34.1105C21.6089 33.7747 21.759 33.6947 22.0591 33.7427C22.2717 33.7747 25.0603 35.7255 28.3867 38.1721ZM24.6351 41.3862C27.974 43.8487 30.7752 45.9754 30.8627 46.1353C30.9377 46.2793 31.0128 46.5671 31.0128 46.775C31.0128 47.2547 30.4875 47.9423 30.1249 47.9423C29.8123 47.9423 17.7823 39.1155 17.5447 38.6998C17.1571 38.0761 17.6073 36.9088 18.2325 36.9088C18.4576 36.9088 20.7961 38.5399 24.6351 41.3862Z" fill="#28D07E"/>
<path d="M46.0189 46.7269C34.9268 54.8981 31.9506 57.1528 31.4504 57.7764C30.2374 59.3115 29.1995 62.6375 29.0494 65.4359L28.9744 66.843L29.337 66.6032C29.5371 66.4592 36.0022 61.7101 43.7054 56.0494L57.7111 45.7355L57.6736 45.1439C57.5611 43.321 58.2864 40.2668 59.3493 38.0761C59.7245 37.3245 60.0121 36.6369 59.9996 36.573C59.9746 36.509 53.6845 41.0823 46.0189 46.7269Z" fill="#28D07E"/>
<path d="M3.02624 36.9888C2.16339 37.2926 1.9508 37.4525 1.27552 38.252C0.425174 39.2434 0 40.5227 0 42.0578C0 43.7048 0.325133 44.8241 1.10045 45.8315C1.51312 46.3592 2.60107 47.2547 4.72694 48.8058C6.40263 50.037 7.79069 51.0924 7.82821 51.1564C7.86573 51.2363 7.67815 52.3077 7.42805 53.5389C7.17794 54.7702 7.00287 55.8256 7.04039 55.8896C7.09041 55.9375 7.72817 55.8576 8.45347 55.7137C9.56642 55.4738 9.80402 55.4578 9.89156 55.6497C9.95408 55.7616 10.3542 56.6251 10.7794 57.5686C11.2046 58.528 11.5797 59.2955 11.6298 59.2955C11.6673 59.2955 11.9174 58.2562 12.18 56.9769C12.4426 55.7137 12.6927 54.6903 12.7427 54.7222C12.7802 54.7542 15.9565 57.0888 19.7956 59.9192C23.6222 62.7495 26.8485 65.1001 26.936 65.1481C27.0736 65.212 27.1486 64.9402 27.2612 64.0607C27.6363 61.1344 28.7618 57.9843 30.1123 56.0655C30.3499 55.7296 30.525 55.4258 30.5 55.3938C30.3124 55.186 6.02747 37.3406 5.65232 37.1327C4.97704 36.7809 3.80156 36.7009 3.02624 36.9888ZM11.3422 48.8058C12.3926 49.5733 13.2804 50.2609 13.318 50.3408C13.3555 50.4208 13.2054 51.3802 12.9803 52.4676L12.5802 54.4504L10.5043 52.9313C9.36634 52.0998 8.36593 51.3323 8.27839 51.2203C8.14084 51.0604 8.19086 50.6607 8.5285 49.0136C8.92866 47.0788 8.95367 46.9988 9.19127 47.2067C9.32883 47.3186 10.3042 48.0382 11.3422 48.8058Z" fill="#28D07E"/>
</svg>
