<svg width="23" height="23" viewBox="0 0 23 23" fill="none" xmlns="http://www.w3.org/2000/svg">
<path d="M11.2699 0.551519C11.171 0.607379 10.0968 1.53121 9.75737 1.84918C9.55112 2.03824 9.52963 2.07691 9.52963 2.24449C9.52963 2.37769 9.55971 2.46363 9.64135 2.55816C9.73588 2.67418 9.77885 2.69136 9.95932 2.69136C10.1613 2.69136 10.1742 2.68277 10.8316 2.11129L11.5019 1.53121L12.5074 2.40347L13.5085 3.27144L9.40502 3.28433L5.30151 3.29293L5.1812 3.40894L5.06088 3.52496V6.82066V10.1121L5.1726 10.2281C5.33588 10.3871 5.64526 10.3871 5.80854 10.2281L5.92026 10.1121V7.15582V4.19527H10.2945C13.1562 4.19527 14.7203 4.17808 14.8234 4.1523C15.1371 4.06207 15.266 3.69683 15.0683 3.44761C15.0167 3.38316 14.2433 2.69566 13.3453 1.91793C11.764 0.547223 11.7039 0.499957 11.532 0.499957C11.4374 0.499957 11.3171 0.525739 11.2699 0.551519Z" fill="#28D07E"/>
<path d="M17.1308 3.37461C15.9148 3.68398 15.0253 4.54336 14.6343 5.78945C14.5011 6.21484 14.4925 7.20742 14.6171 7.61133C14.9652 8.7543 15.7085 9.5793 16.7527 9.97031C17.2984 10.1723 18.016 10.241 18.2222 10.1035C18.3898 9.99609 18.4542 9.75117 18.364 9.56211C18.2695 9.35586 18.1792 9.31719 17.7453 9.26562C17.0749 9.19258 16.6109 8.96914 16.1597 8.51367C15.3777 7.71875 15.1972 6.62305 15.6828 5.61758C15.9921 4.97305 16.6367 4.44453 17.3328 4.26406C17.6421 4.18242 18.1921 4.17383 18.5187 4.24258C19.2019 4.38437 19.9109 4.93867 20.2417 5.5918C20.4394 5.98711 20.4953 6.24492 20.5167 6.90234C20.5339 7.47383 20.5296 7.53828 20.448 7.66289C20.216 8.02812 19.7949 8.03672 19.5542 7.68437C19.4855 7.58125 19.4769 7.44805 19.464 6.48555L19.4468 5.39844L19.3179 5.26953C18.9956 4.94727 18.4929 4.75391 17.973 4.75391C17.3929 4.75391 16.9503 4.93437 16.5507 5.33398C15.6785 6.20195 15.8289 7.70156 16.8558 8.38047C17.2039 8.6125 17.5218 8.71133 17.9386 8.71133C18.3124 8.71133 18.566 8.65977 18.8281 8.52656C18.9914 8.44492 18.9914 8.44492 19.0859 8.53086C19.2148 8.65117 19.6273 8.83594 19.7691 8.83594C19.8593 8.83594 20.0527 8.98203 20.6156 9.47617L21.3417 10.1207L19.6574 11.3453L17.973 12.5699L17.9601 11.934C17.9515 11.3109 17.9472 11.2937 17.8355 11.182C17.6765 11.023 17.3671 11.023 17.2039 11.182L17.0921 11.298V12.2562V13.2102L15.5367 14.3445C14.6816 14.9633 13.9597 15.4875 13.9296 15.509C13.8953 15.5305 13.5128 15.277 12.8511 14.7957C11.6953 13.9535 11.691 13.9492 11.5062 13.9492C11.3214 13.9492 11.3171 13.9535 10.1613 14.7957C9.59838 15.2039 9.11713 15.5262 9.09135 15.5133C8.84643 15.3629 1.7308 10.1551 1.7308 10.125C1.7308 10.1078 2.23354 9.65234 2.84799 9.11523C4.23159 7.90781 4.24448 7.89922 4.24448 7.68008C4.24448 7.35781 3.96088 7.15156 3.6558 7.25898C3.5312 7.30625 0.983148 9.46758 0.643695 9.81563L0.506195 9.95742V16.1148V22.2723L0.617914 22.3883L0.733929 22.5H11.5062H22.2785L22.3945 22.3883L22.5062 22.2723V16.1148V9.95312L22.3902 9.82852C22.3214 9.75977 21.9648 9.4418 21.591 9.11523L20.9164 8.52656L21.0839 8.3332C21.3589 8.02383 21.4105 7.81328 21.4105 6.98828C21.4105 6.21484 21.3675 5.94414 21.1699 5.45C20.7831 4.47891 19.9968 3.75273 18.9613 3.42188C18.5273 3.28437 17.5906 3.25859 17.1308 3.37461ZM18.4156 5.74219L18.596 5.82383V6.73047V7.63711L18.4156 7.71875C18.1535 7.83906 17.7753 7.83047 17.5003 7.70156C16.6882 7.32344 16.671 6.19336 17.4746 5.77656C17.7581 5.62617 18.132 5.61328 18.4156 5.74219ZM5.28432 13.8762C6.93002 15.075 8.28784 16.0719 8.30073 16.0934C8.31791 16.1191 1.69643 20.9789 1.41713 21.1422C1.37846 21.168 1.36557 20.1453 1.36557 16.0977V11.0273L1.82963 11.3625C2.08315 11.5473 3.63862 12.6816 5.28432 13.8762ZM21.6382 18.6371L21.6253 21.1766L18.1535 18.65C15.1585 16.4715 14.6902 16.1191 14.7417 16.0633C14.7761 16.0332 16.3402 14.8902 18.2136 13.5238L21.6253 11.0445L21.6382 13.5711C21.6425 14.959 21.6425 17.2406 21.6382 18.6371ZM16.1167 18.2977L20.6757 21.6191L16.091 21.632C13.5687 21.6363 9.4437 21.6363 6.92143 21.632L2.33666 21.6191L6.88705 18.302C9.39213 16.4758 11.4675 14.9848 11.4976 14.9805C11.532 14.9805 13.6074 16.4758 16.1167 18.2977Z" fill="#28D07E"/>
<path d="M6.97299 5.5875C6.77963 5.78086 6.77963 6.04727 6.97299 6.24062L7.07612 6.34375H9.39213H11.7081L11.8242 6.23203C11.9144 6.1418 11.9359 6.07734 11.9359 5.91406C11.9359 5.75078 11.9144 5.68633 11.8242 5.59609L11.7081 5.48438H9.39213H7.07612L6.97299 5.5875Z" fill="#28D07E"/>
<path d="M6.97299 7.73591C6.77963 7.92927 6.77963 8.19568 6.97299 8.38904L7.07612 8.49216H9.40073C11.9789 8.49216 11.8843 8.50075 11.9789 8.20857C12.0175 8.10115 12.0175 8.0238 11.9789 7.91638C11.8843 7.62419 11.9789 7.63279 9.40073 7.63279H7.07612L6.97299 7.73591Z" fill="#28D07E"/>
<path d="M7.01165 9.81557C6.78821 9.99604 6.76243 10.271 6.9472 10.4773L7.0718 10.6191L8.3136 10.632C8.99251 10.6406 9.61555 10.632 9.6972 10.6191C10.0409 10.5546 10.1741 10.1164 9.92063 9.86284L9.79602 9.73823H8.4468C7.23938 9.73823 7.09329 9.74682 7.01165 9.81557Z" fill="#28D07E"/>
<path d="M11.3859 9.84587C11.128 10.0607 11.1839 10.456 11.489 10.5806C11.807 10.7138 12.1077 10.5162 12.1077 10.181C12.1077 9.79431 11.6823 9.59665 11.3859 9.84587Z" fill="#28D07E"/>
<path d="M13.2636 9.86278C13.0058 10.1206 13.1433 10.5546 13.4999 10.619C13.5859 10.6362 13.8695 10.6448 14.1316 10.6319C14.6085 10.619 14.6085 10.619 14.7331 10.4772C14.8706 10.3225 14.8921 10.1464 14.7976 9.95731C14.6988 9.77254 14.5656 9.73817 13.9511 9.73817H13.3882L13.2636 9.86278Z" fill="#28D07E"/>
<path d="M5.18549 11.3239C5.08666 11.4227 5.06088 11.4871 5.06088 11.6289C5.06088 11.9641 5.32729 12.1618 5.63666 12.0586C6.09643 11.9082 5.97612 11.1993 5.49057 11.1993C5.34877 11.1993 5.28432 11.225 5.18549 11.3239Z" fill="#28D07E"/>
</svg>
