<svg width="60" height="67" viewBox="0 0 60 67" fill="none" xmlns="http://www.w3.org/2000/svg">
<path d="M14.8997 0.353535C14.5951 0.536381 14.2789 0.836765 14.1383 1.11103C13.904 1.56813 13.904 1.73792 13.8689 27.4927L13.8455 53.4172L14.1032 54.0049C14.2554 54.3183 14.5248 54.6971 14.7006 54.8407C15.0285 55.1019 15.1925 55.115 21.1313 55.1542L27.2224 55.1934L27.1521 54.8277C26.8007 52.9601 26.707 51.7455 26.7656 49.6428C26.8475 46.6389 27.3161 44.4317 28.4289 41.7936C31.0527 35.5247 36.1716 31.1626 42.1806 30.0394C43.9494 29.6998 47.2643 29.8174 48.9862 30.2745C50.5207 30.6793 52.0552 31.2932 53.2266 31.9462C53.7302 32.2335 54.1636 32.4555 54.1988 32.4555C54.2339 32.4555 54.2456 25.4683 54.2339 16.9269C54.1988 1.46365 54.1988 1.38529 53.9528 1.03267C53.8239 0.836765 53.5662 0.549438 53.3905 0.405777C53.0743 0.131512 53.0509 0.131512 34.2505 0.0923309L15.4268 0.0662117L14.8997 0.353535ZM46.1398 6.84446C47.3463 7.45829 47.4166 9.33896 46.257 10.1226C45.8938 10.3707 45.5776 10.3838 34.1334 10.3838C23.4506 10.3838 22.3378 10.3577 21.963 10.1748C20.6745 9.48262 20.8385 7.18402 22.2207 6.73998C22.4081 6.67468 27.7612 6.60938 34.11 6.60938C45.2145 6.59632 45.6713 6.60938 46.1398 6.84446ZM46.175 14.7198C47.3463 15.3989 47.4166 17.0967 46.3038 17.9195L45.9056 18.2199H34.1451C21.1313 18.2199 21.8341 18.2721 21.3539 17.3841C20.7682 16.3392 21.2016 14.9026 22.209 14.5761C22.4081 14.5108 27.5504 14.4455 34.11 14.4455L45.6596 14.4324L46.175 14.7198ZM46.175 22.5559C47.4049 23.2742 47.4049 25.1288 46.1633 25.8209C45.7884 26.043 44.9685 26.056 34.0748 26.056C21.1313 26.056 21.8341 26.1083 21.3539 25.2202C20.7916 24.2015 21.1313 22.9216 22.1035 22.4514C22.3847 22.3078 24.6805 22.2816 34.0514 22.2686H45.6596L46.175 22.5559ZM29.0497 30.3659C30.2913 30.9928 30.2562 33.1216 29.0028 33.7093C28.4289 33.9705 22.5252 33.9705 22.0684 33.7093C20.6979 32.9126 20.7565 30.8752 22.1621 30.2484C22.3261 30.1831 23.7669 30.1178 25.5005 30.1178C28.2766 30.1047 28.5929 30.1308 29.0497 30.3659Z" fill="#28D07E"/>
<path d="M4.32232 6.59622C2.77612 6.89661 1.25335 8.18957 0.515398 9.84821C0.0937087 10.8016 0.0819952 10.88 0.0351408 12.4994L0 14.1711H5.29454H10.5891L10.5422 12.4994C10.4954 10.9845 10.472 10.7624 10.144 9.99188C9.40602 8.22875 7.84811 6.89661 6.17306 6.59622C5.37654 6.45256 5.11884 6.45256 4.32232 6.59622Z" fill="#28D07E"/>
<path d="M0.0234375 30.0394V42.1201H5.29455H10.5657V30.0394V17.9587H5.29455H0.0234375V30.0394Z" fill="#28D07E"/>
<path d="M42.3798 33.8399C36.2184 35.0806 31.3456 40.6312 30.303 47.6053C30.0453 49.2901 30.1156 51.8891 30.4787 53.7697C31.6033 59.7121 35.1056 64.1526 40.1425 66.0072C41.7941 66.621 43.1763 66.843 45.1793 66.843C49.4079 66.83 53.086 65.1452 55.8387 61.9454C57.9706 59.4901 59.2122 56.6952 59.7627 53.1167C60.6178 47.6314 59.1419 42.3551 55.6513 38.4762C53.4608 36.034 50.6847 34.4276 47.6157 33.8268C46.3624 33.5787 43.6331 33.5917 42.3798 33.8399ZM51.2821 43.8962C52.0552 44.3142 52.4535 45.4112 52.1255 46.2471C52.0435 46.4691 50.4036 48.8983 48.4708 51.6279C45.3082 56.1336 44.9216 56.6299 44.4648 56.8258C44.0314 57.0087 43.9025 57.0217 43.4574 56.865C43.024 56.7083 42.696 56.3426 40.9273 54.0701C39.8028 52.6335 38.8423 51.3275 38.7837 51.1577C38.444 50.1782 38.854 49.1464 39.7559 48.7285C40.283 48.4804 40.3182 48.4804 40.8453 48.7024C41.2787 48.8983 41.6067 49.2248 42.5555 50.4655C43.2114 51.3014 43.7854 51.9805 43.844 51.9805C43.9025 51.9805 45.191 50.2174 46.7138 48.0624C48.4708 45.5679 49.607 44.066 49.8413 43.9223C50.3216 43.635 50.7784 43.635 51.2821 43.8962Z" fill="#28D07E"/>
<path d="M0.609131 46.0378C0.609131 46.3643 3.72495 54.4747 3.98265 54.8012C4.32234 55.2584 5.03687 55.4934 5.68112 55.3628C6.54792 55.2061 6.74705 54.8404 8.43381 50.3216C9.2889 48.0361 9.98001 46.1162 9.98001 46.0378C9.98001 45.9464 8.36353 45.9072 5.29457 45.9072C2.22561 45.9072 0.609131 45.9464 0.609131 46.0378Z" fill="#28D07E"/>
</svg>
