<svg width="60" height="67" viewBox="0 0 60 67" fill="none" xmlns="http://www.w3.org/2000/svg">
<path d="M42.3047 0.0850053C40.9336 0.670153 40.4297 1.76346 40.4297 4.13484V5.33594H43.0195H45.6094L45.5625 3.67289C45.5273 2.16382 45.4922 1.93284 45.2109 1.37849C45.0234 0.993524 44.6953 0.623957 44.3672 0.423775C43.793 0.0542081 42.7617 -0.115177 42.3047 0.0850053Z" fill="#28D07E"/>
<path d="M40.4297 23.5063V39.2129H43.0078H45.5859V23.5063V7.79969H43.0078H40.4297V23.5063Z" fill="#28D07E"/>
<path d="M5.21484 11.2642L4.92188 11.6338V36.518C4.92188 61.6639 4.92188 61.8487 5.32031 62.1875C5.39062 62.2491 10.3125 62.3107 16.2422 62.3107C28.1016 62.3107 27.5742 62.2645 28.5 63.2346C28.7344 63.4964 28.957 63.6965 28.9922 63.6965C29.0273 63.6965 29.0625 52.6095 29.0625 39.0587V14.4055L28.2305 12.7887C27.7266 11.7878 27.293 11.1102 27.1172 11.0332C26.9414 10.9408 22.6523 10.8792 16.1602 10.8792H5.49609L5.21484 11.2642ZM25.6289 21.2271C26.0039 21.6891 25.9922 22.4744 25.6055 22.9672L25.3242 23.3521H17.0742C8.90625 23.3521 8.8125 23.3521 8.50781 23.0288C8.10938 22.613 8.07422 21.6737 8.46094 21.1963C8.70703 20.8883 8.82422 20.8883 17.0391 20.8883H25.3594L25.6289 21.2271ZM25.6758 29.6502C25.9688 30.1275 25.957 30.8667 25.6406 31.3132L25.3945 31.6674H17.0273C8.82422 31.6674 8.67188 31.6674 8.4375 31.3594C8.05078 30.8513 8.08594 30.0505 8.50781 29.5424L8.8125 29.2036L17.1328 29.2344L25.4531 29.2806L25.6758 29.6502ZM25.6289 38.0116C25.8984 38.335 25.9805 38.9201 25.8281 39.4437C25.6172 40.1366 25.5586 40.1366 17.0625 40.1366C12.0352 40.1366 8.92969 40.075 8.73047 39.9826C8.12109 39.6747 7.99219 38.3966 8.51953 37.8576C8.67188 37.719 10.5586 37.6729 17.0391 37.6729H25.3594L25.6289 38.0116ZM25.6055 46.3731C25.9922 46.8658 25.9922 47.5742 25.6055 48.0669L25.3242 48.4519H17.0742C8.90625 48.4519 8.8125 48.4519 8.50781 48.1285C8.27344 47.8821 8.20312 47.682 8.20312 47.22C8.20312 46.758 8.27344 46.5579 8.50781 46.3115C8.8125 45.9881 8.90625 45.9881 17.0742 45.9881H25.3242L25.6055 46.3731ZM25.3008 54.4728C25.7109 54.6575 25.8984 55.0117 25.8984 55.6123C25.8984 56.2436 25.6992 56.5824 25.2188 56.7672C24.5859 56.9981 9.30469 56.9827 8.78906 56.7518C8.01562 56.3822 7.95703 54.9501 8.71875 54.519C9.19922 54.2572 24.7031 54.1956 25.3008 54.4728Z" fill="#28D07E"/>
<path d="M32.9062 11.0797C32.7188 11.1875 32.2852 11.8958 31.7695 12.9275L30.9375 14.5906V39.2438V63.897L31.3242 63.4812C31.5234 63.2656 31.9102 62.9269 32.168 62.7267L32.6367 62.3879L43.6641 62.3109C52.7695 62.2493 54.7266 62.2031 54.8789 62.0183C55.0664 61.8336 55.0781 59.8625 55.0781 36.5798V11.3569L54.8203 11.1259C54.5977 10.9103 54.0352 10.8795 51.0703 10.8795H47.5781L47.5547 25.847L47.5195 40.8298L45.6328 45.5264C42.9141 52.2402 43.1836 52.2402 40.4883 45.6034L38.6133 40.9838L38.5781 25.924L38.5547 10.8795H35.8828C34.0664 10.8949 33.1172 10.9565 32.9062 11.0797Z" fill="#28D07E"/>
<path d="M1.69922 18.2862C1.07812 18.6866 0.515625 19.4257 0.234375 20.1957C0 20.827 0 21.1812 0 42.3081V63.7892L0.304688 64.5899C0.46875 65.0365 0.796875 65.5908 1.03125 65.8526C1.92188 66.8227 1.24219 66.7765 15.375 66.7765C22.4531 66.7765 28.2422 66.7303 28.2422 66.6841C28.2422 66.4685 27.5039 65.2212 27.2695 65.0519C27.0703 64.8979 24.5742 64.8363 15.9844 64.7747L4.95703 64.6977L4.38281 64.2357C4.03125 63.9432 3.67969 63.4812 3.45703 63.0192L3.10547 62.2647L3.07031 40.1061L3.04688 17.9629H2.60156C2.36719 17.9783 1.95703 18.1168 1.69922 18.2862Z" fill="#28D07E"/>
<path d="M56.9531 40.0753V62.1877L56.6484 62.9268C56.4844 63.3272 56.1914 63.8046 56.0039 63.9894C55.1719 64.7901 55.5 64.7747 43.8984 64.7747C31.8398 64.7747 32.8945 64.6669 32.2148 65.8988C32.0273 66.2376 31.875 66.5763 31.875 66.6533C31.875 66.7149 37.6406 66.7765 44.6836 66.7765C58.7578 66.7765 58.0781 66.8227 58.9688 65.8526C59.2031 65.5908 59.5312 65.0365 59.6953 64.5899L60 63.7892V42.3389C60 24.2763 59.9766 20.7962 59.8359 20.365C59.4375 19.1177 58.2422 17.9629 57.3633 17.9629H56.9531V40.0753Z" fill="#28D07E"/>
<path d="M41.1328 41.7998C41.1328 41.9384 42.8672 46.3116 42.9961 46.4964C43.0664 46.5888 45 42.0308 45 41.7536C45 41.7074 44.1328 41.6766 43.0664 41.6766C42 41.6766 41.1328 41.7382 41.1328 41.7998Z" fill="#28D07E"/>
</svg>
