<svg width="35" height="35" viewBox="0 0 35 35" fill="none" xmlns="http://www.w3.org/2000/svg">
<path d="M13.4904 0.280819C13.0737 0.519394 11.6675 2.15174 6.64689 8.21653C2.26163 13.5154 0.272125 16.0016 0.157546 16.328C-0.0716119 17.0186 -0.0507794 18.2115 0.220044 18.8519C0.501283 19.53 12.8862 34.4094 13.48 34.7861C13.8029 34.987 14.032 35.0247 14.6362 34.987C15.5216 34.9368 16.0736 34.5726 16.5319 33.7314L16.8236 33.2165L16.8548 30.3411L16.8861 27.4782H25.0733C34.1667 27.4782 33.5834 27.5284 34.3229 26.6118C34.6771 26.1723 35 25.2432 35 24.653C35 24.5023 34.9271 24.088 34.8333 23.7113C34.6875 23.096 34.4792 22.8198 32.3855 20.2582L30.1148 17.4832L32.3022 14.8589C33.5105 13.4024 34.5938 11.996 34.7188 11.7198C35.0312 11.0166 35.0208 9.7861 34.7083 9.05782C34.4375 8.42999 33.875 7.85239 33.3438 7.65149C33.0834 7.56359 31.9376 7.51337 30.1252 7.51337C27.3024 7.51337 27.3024 7.51337 27.0211 7.81473C26.7399 8.09097 26.7399 8.12864 26.8545 8.6309C26.9274 8.90714 27.0732 9.19594 27.1878 9.27128C27.3024 9.34662 28.4586 9.39685 30.0939 9.39685C32.7501 9.39685 32.8022 9.39685 33.073 9.67309C33.2605 9.87399 33.3438 10.1 33.3542 10.3763C33.3646 10.7655 33.1459 11.0543 30.7502 13.9674C28.5211 16.6545 28.1253 17.1819 28.1253 17.4958C28.1253 17.8097 28.5211 18.3371 30.6668 20.9488C32.0626 22.644 33.2605 24.1507 33.323 24.3014C33.4167 24.5274 33.4063 24.6781 33.2917 25.0297C33.2084 25.2683 33.1251 25.4817 33.1042 25.4943C33.0834 25.5194 29.1669 25.5571 24.3962 25.5947L15.7091 25.6575L15.5111 25.9589C15.3236 26.2226 15.3132 26.4863 15.3132 29.3617C15.3132 32.3125 15.3028 32.4883 15.0945 32.8022C14.9382 33.0533 14.7924 33.1286 14.5008 33.1286C14.1362 33.1286 13.855 32.8147 7.84476 25.5571C1.92831 18.4375 1.56374 17.9729 1.56374 17.5586C1.56374 17.1442 1.92831 16.6671 7.89684 9.48474C11.5217 5.11508 14.3029 1.86294 14.407 1.86294C14.6778 1.86294 15.1778 2.20197 15.2507 2.42798C15.282 2.54099 15.3132 4.0101 15.3132 5.68012C15.3132 8.58067 15.3236 8.75646 15.532 9.07038L15.7403 9.39685H20.2505H24.7608L25.0004 9.08293C25.3233 8.66857 25.3233 8.0533 25.0108 7.73939C24.7816 7.52593 24.5004 7.51337 20.8234 7.51337H16.8757V4.83883C16.8757 2.51588 16.8444 2.11407 16.6778 1.67459C16.1153 0.218037 14.6883 -0.409786 13.4904 0.280819Z" fill="#28D07E"/>
<path d="M4.21989 21.0745C4.90736 21.9032 5.49067 22.5813 5.52192 22.5813C5.54276 22.5813 5.01153 21.9032 4.32405 21.0745C3.63658 20.2458 3.05326 19.5677 3.02202 19.5677C3.00118 19.5677 3.53241 20.2458 4.21989 21.0745Z" fill="#282B2F"/>
<path d="M30.8335 21.6143C30.8335 21.7022 30.6668 21.9785 30.4585 22.2171L30.0939 22.644L22.0317 22.7068C14.0945 22.7695 13.9695 22.7695 13.6883 23.0332C12.9904 23.6485 12.9696 23.7364 12.9175 26.5365C12.8654 28.8846 12.8446 29.1231 12.6467 29.4496C12.5217 29.638 12.3029 29.8891 12.1571 29.9895C11.8759 30.1779 11.8759 30.1653 10.7092 28.7967C10.0634 28.0433 10.5738 28.6837 11.8446 30.2281C13.855 32.6766 14.1883 33.0408 14.4695 33.0408C14.6466 33.0408 14.8862 32.9403 14.9903 32.8273C15.1882 32.6139 15.1987 32.3878 15.2299 29.3492C15.2612 26.436 15.282 26.0845 15.4486 25.8836C15.6257 25.6701 16.157 25.6575 24.2816 25.5948L32.9376 25.532L33.1355 25.2306C33.5209 24.653 33.4167 24.4019 32.1668 22.87C31.521 22.0915 30.9585 21.4511 30.9168 21.4511C30.8752 21.4511 30.8335 21.5265 30.8335 21.6143Z" fill="#282B2F"/>
<path d="M7.94892 9.54767C2.26164 16.391 1.66791 17.1569 1.66791 17.5211C1.66791 17.8852 2.16789 18.513 6.73022 24.0128C9.51137 27.3654 11.855 30.1152 11.9279 30.1152C12.1571 30.1152 12.6258 29.5879 12.7717 29.1609C12.8758 28.8596 12.9175 28.1062 12.9175 26.4362C12.9175 24.2513 12.9279 24.1007 13.1571 23.7114C13.2821 23.4854 13.5216 23.1715 13.6779 23.0334C13.9695 22.7697 14.0633 22.7697 22.0317 22.7069L30.0939 22.6441L30.4168 22.2674C31.0522 21.5391 31.0626 21.5643 29.4585 19.6054C28.0523 17.8852 28.0003 17.8099 28.0628 17.408C28.1148 17.0816 28.6877 16.3156 30.7293 13.8546C32.5834 11.6069 33.3334 10.6275 33.3334 10.4266C33.3334 10.2634 33.2188 9.99971 33.073 9.83647L32.823 9.52256H30.0523H27.2815L27.0315 9.20865C26.8857 9.04541 26.7711 8.8194 26.7711 8.70639C26.7711 8.55571 26.6357 8.51804 26.0524 8.51804C25.3545 8.51804 25.3337 8.5306 25.2087 8.89474C25.1358 9.1082 24.99 9.33421 24.8858 9.397C24.6879 9.53512 15.9695 9.57279 15.6778 9.44722C15.2612 9.24632 15.2091 8.79428 15.2091 5.59237C15.2091 2.5537 15.2091 2.52859 14.9695 2.2649C14.8341 2.11422 14.6153 1.98866 14.4799 1.98866C14.282 1.98866 12.7821 3.72145 7.94892 9.54767Z" fill="#282B2F"/>
</svg>
