<svg width="36" height="37" viewBox="0 0 36 37" fill="none" xmlns="http://www.w3.org/2000/svg">
<path d="M22.2508 0.137074C21.6774 0.404696 21.2951 0.985818 21.2951 1.60517C21.2951 1.88044 21.2339 1.99513 20.7904 2.52273C19.4293 4.15905 17.1125 5.92535 14.8798 7.03407C14.2298 7.35522 14.0463 7.48521 14.0463 7.5999C14.0463 7.68401 14.4286 9.17505 14.8951 10.9108L15.7515 14.0764L17.9307 14.0916C19.5899 14.1069 20.3087 14.1375 20.951 14.2446C22.052 14.4204 23.3902 14.7645 24.2007 15.0627C24.7818 15.2845 24.8735 15.3456 25.08 15.6515C25.9517 16.9743 28.1003 16.3244 28.1003 14.7416C28.1003 14.4893 27.8786 13.5258 27.4886 12.0577C27.1522 10.7961 26.8769 9.74088 26.8769 9.71029C26.8769 9.67971 27.0069 9.61089 27.1674 9.56501C28.2226 9.24387 28.7885 8.01281 28.3832 6.93467C28.1997 6.46824 27.6262 5.94065 27.1445 5.80301C26.9381 5.74184 26.594 5.7189 26.3034 5.74184L25.8064 5.78772L25.7299 5.50481C24.7818 1.91103 24.4912 0.932293 24.323 0.679964C23.9254 0.0835495 22.939 -0.184072 22.2508 0.137074Z" fill="white"/>
<path d="M30.0884 0.962767C29.9125 1.02394 28.1003 2.83612 27.9703 3.0808C27.6415 3.70016 28.3679 4.42656 28.9873 4.09777C29.1096 4.02895 29.6372 3.54723 30.1572 3.02728C31.0365 2.13266 31.1053 2.05619 31.1359 1.7274C31.1741 1.4139 31.1512 1.35273 30.9447 1.13863C30.7154 0.916889 30.4095 0.848072 30.0884 0.962767Z" fill="white"/>
<path d="M31.847 5.45885C30.5318 5.82587 30.3177 5.9635 30.3177 6.45287C30.3177 6.75872 30.6083 7.14104 30.8989 7.20986C31.1818 7.28632 33.6668 6.6058 33.8886 6.39935C34.1256 6.1776 34.1868 5.80293 34.0339 5.51237C33.7739 5.01536 33.4757 5.00771 31.847 5.45885Z" fill="white"/>
<path d="M10.7049 8.21921C9.86379 8.4486 8.96917 8.73916 8.70919 8.86151C7.76869 9.32029 6.99641 10.4137 6.82819 11.5301C6.4994 13.7399 8.36511 15.7432 10.5902 15.5673C10.9496 15.5444 14.2528 14.7339 14.3904 14.6421C14.3981 14.6345 13.9928 13.0976 13.4958 11.2319C12.9911 9.35852 12.5782 7.8216 12.5782 7.80631C12.5782 7.73749 12.043 7.85984 10.7049 8.21921Z" fill="white"/>
<path d="M30.203 9.61851C29.9201 9.74085 29.7596 9.99318 29.7596 10.322C29.7596 10.8419 29.9584 10.9643 31.3806 11.3542C32.7799 11.7365 33.1086 11.7595 33.3992 11.5377C33.7662 11.2472 33.7204 10.5361 33.3151 10.322C33.1545 10.2379 30.593 9.5497 30.4554 9.55734C30.4018 9.55734 30.2871 9.58793 30.203 9.61851Z" fill="white"/>
<path d="M1.52928 14.5964C1.63633 14.7723 17.5789 28.6274 17.6707 28.6274C17.7319 28.6274 21.4251 25.4848 25.8905 21.6387C31.587 16.7297 33.9651 14.627 33.8962 14.5888C33.8427 14.5505 32.8487 14.5199 31.6864 14.5199H29.5761L29.5378 15.0093C29.4537 16.0569 28.735 17.0585 27.7409 17.5173C26.5175 18.0908 24.9959 17.7696 24.1166 16.7603C23.9101 16.5156 23.7343 16.4162 23.2449 16.2557C21.7386 15.751 19.9646 15.514 17.7854 15.514C16.6384 15.514 16.3173 15.5369 16.3479 15.6057C16.3632 15.6592 16.6843 16.4239 17.059 17.3109C17.8083 19.1154 17.9001 19.5436 17.6707 20.2394C17.4566 20.8664 17.059 21.2487 16.0726 21.7457C15.545 22.0134 15.0709 22.1969 14.8569 22.2198C14.1457 22.3039 13.297 21.9445 12.8841 21.3864C12.7847 21.2487 12.3183 20.2241 11.8518 19.1077L10.9954 17.0815L10.3149 17.0356C9.40501 16.9744 8.91564 16.8521 8.18159 16.508C7.50872 16.1868 6.73644 15.5369 6.27001 14.9023L5.98709 14.5199H3.73907C2.3092 14.5199 1.49869 14.5505 1.52928 14.5964Z" fill="white"/>
<path d="M0.0994024 15.5291C0.0152927 15.6744 0 17.6012 0 25.6452C0 31.1123 0.0305854 35.7154 0.0611707 35.876C0.107049 36.0748 0.160573 36.1589 0.22939 36.136C0.367024 36.0824 12.043 25.8211 12.043 25.7522C12.043 25.7217 9.64204 23.6036 6.71349 21.0497C3.77729 18.4882 1.10872 16.1561 0.787573 15.8732C0.206451 15.3609 0.198805 15.3532 0.0994024 15.5291Z" fill="white"/>
<path d="M29.2472 20.6295C26.0281 23.4051 23.3978 25.7067 23.3978 25.7525C23.3978 25.9055 35.0891 35.9986 35.1732 35.9145C35.2573 35.8381 35.3337 17.0739 35.2496 16.1411C35.219 15.8429 35.1732 15.5905 35.1426 15.5905C35.112 15.5905 32.4587 17.8615 29.2472 20.6295Z" fill="white"/>
<path d="M13.7023 16.3169C13.037 16.5004 12.4712 16.661 12.4483 16.684C12.4253 16.7145 12.7618 17.5786 13.1976 18.6108C14.0234 20.5836 14.1534 20.79 14.5816 20.79C14.8416 20.79 15.9426 20.2471 16.1644 20.0101C16.4396 19.7196 16.3708 19.3984 15.6521 17.6703C15.2774 16.7757 14.9563 16.034 14.941 16.0187C14.9257 16.0034 14.3675 16.1411 13.7023 16.3169Z" fill="white"/>
<path d="M7.37107 31.8081C4.19784 34.5914 1.59808 36.9006 1.58279 36.9312C1.5675 36.9694 8.71682 37 17.7701 37C26.6934 37 33.988 36.9771 33.9803 36.9388C33.9803 36.8777 22.5873 26.9986 22.3273 26.838C22.1667 26.7386 22.052 26.8304 20.0716 28.5355C18.9247 29.5219 17.9077 30.3477 17.816 30.3706C17.7166 30.3859 17.5407 30.3553 17.4184 30.3095C17.3037 30.2559 16.3173 29.4378 15.2239 28.482C14.1381 27.5338 13.2205 26.7539 13.1899 26.7539C13.1593 26.7539 10.5367 29.0325 7.37107 31.8081Z" fill="white"/>
</svg>
