<svg width="28" height="28" viewBox="0 0 28 28" fill="none" xmlns="http://www.w3.org/2000/svg">
<path d="M10.7461 0.0418425C9.84376 0.224926 8.88126 0.933378 8.20861 1.91248C7.34454 3.17018 6.89611 4.76221 6.89064 6.53732C6.88517 10.2229 8.83204 13.1044 11.3477 13.1363C12.7695 13.1522 14.0383 12.2845 14.9242 10.6925C15.1266 10.3343 15.2524 10.1751 15.3344 10.1751C15.4055 10.1751 17.5656 11.0905 20.1414 12.2049C22.7172 13.3194 24.9156 14.2507 25.0305 14.2825C25.4735 14.386 25.9547 14.0358 26.2117 13.4308C26.5289 12.6825 26.3867 11.6557 25.8945 11.1144C25.7633 10.9711 25.6375 10.8039 25.6211 10.7403C25.6047 10.6845 25.6703 10.2706 25.7688 9.82485C25.8836 9.28356 25.9438 8.86168 25.9438 8.53531C25.9383 6.57712 24.0735 6.17911 23.6086 8.03382C23.5594 8.22486 23.4664 8.63879 23.4063 8.9572C23.2313 9.82485 23.2203 9.83281 22.7992 9.66565C22.2742 9.45073 22.0938 9.32336 22.0938 9.17212C22.0938 9.09252 22.1922 8.55919 22.307 7.99402C22.586 6.6408 22.6078 6.43383 22.5313 5.97215C22.3508 4.84977 21.443 4.29256 20.7594 4.87365C20.3438 5.22389 20.3 5.35921 19.7641 8.04178C19.7477 8.11342 19.6985 8.19302 19.6547 8.2169C19.6055 8.24079 18.9 7.9781 18.0852 7.61989C16.0891 6.7602 16.0836 6.7602 16.0234 6.59304C15.9906 6.50548 15.9305 6.12339 15.8813 5.7413C15.6734 3.98211 15.2688 2.85177 14.4649 1.75327C13.825 0.885617 12.9719 0.264727 12.1352 0.0736837C11.7961 -0.0138779 11.0797 -0.0218382 10.7461 0.0418425ZM12.1024 2.50153C13.0156 2.84381 13.7156 3.75923 14.0984 5.11245C14.2625 5.70946 14.3227 6.83184 14.2188 7.47661C13.9781 8.98108 13.1469 10.2229 12.0805 10.6607C11.6922 10.8199 11.0195 10.788 10.582 10.589C8.77736 9.78505 7.97345 6.75224 8.94142 4.404C9.18751 3.80699 9.35157 3.55226 9.73986 3.17018C10.4727 2.43784 11.3094 2.19904 12.1024 2.50153Z" fill="#343A40"/>
<path d="M11.4844 15.1103C9.35157 15.4924 8.17579 15.8108 8.14845 16.0098C8.14298 16.0178 8.03361 18.4058 7.90236 21.3192C7.65079 26.9152 7.65079 26.9789 7.90236 27.0346C7.96251 27.0426 8.17032 26.8834 8.38361 26.6605C8.93595 26.0714 9.30236 25.8326 9.64142 25.8326C9.80001 25.8406 10.3086 25.952 10.7734 26.0794C13.0375 26.7321 17.0625 27.6555 18.643 27.8863C19.8899 28.0615 20.1414 28.0455 20.7102 27.759C22.0281 27.0824 24.6859 24.9729 26.5891 23.0943C27.568 22.1232 28 21.2794 28 20.3322C28 19.4327 27.6664 18.9312 27.0703 18.9312C26.8024 18.9312 26.6711 19.0028 25.993 19.4884C23.7289 21.1202 21.2899 22.1152 19.5508 22.1152C17.5492 22.1152 15.2852 21.2078 15.132 20.3481C15.0992 20.1889 15.1156 20.1889 15.4383 20.2287C15.6242 20.2526 16.2094 20.3879 16.7344 20.5232C18.5992 21.0088 20.1031 20.9371 20.7156 20.3322C21.3117 19.7511 21.443 18.8197 21.0274 18.1431C20.8688 17.8964 20.7539 17.8088 20.3328 17.6257C20.0539 17.4984 19.1734 17.1004 18.375 16.7421C16.625 15.9382 15.3125 15.4287 14.3391 15.1581C13.4695 14.9113 12.6766 14.8954 11.4844 15.1103Z" fill="#343A40"/>
<path d="M1.17578 15.4207C0.978906 15.5958 0.842187 15.8108 0.798437 16.0257C0.754687 16.2486 0 26.2704 0 26.6525C0 26.8674 0.04375 27.0346 0.13125 27.1858L0.2625 27.4087H2.86016C5.66563 27.4087 5.63828 27.4087 5.83516 26.9788C5.97187 26.6764 6.50781 16.4555 6.40937 16.0973C6.26719 15.6118 6.21797 15.6038 3.89922 15.4287C1.3125 15.2376 1.37812 15.2376 1.17578 15.4207ZM3.7625 22.7202C4.71406 23.2933 4.71406 25.2356 3.7625 25.8087C3.03516 26.2545 2.19297 25.4346 2.1875 24.2804C2.18203 23.1102 3.02969 22.2664 3.7625 22.7202Z" fill="#343A40"/>
</svg>
