<svg width="28" height="28" viewBox="0 0 28 28" fill="none" xmlns="http://www.w3.org/2000/svg">
<path d="M11.4844 0.820589V1.64103H15.7117L19.9336 1.63556L23.1164 4.85167L26.2992 8.06779L26.3047 14.7516V21.4409H27.1523H28V13.417V5.38769L25.3094 2.69666L22.6133 0.000150681H17.0516H11.4844V0.820589Z" fill="#343A40"/>
<path d="M9.02344 7.01202V10.7478H9.91484C10.9211 10.7532 11.4461 10.8353 12.3266 11.1416C12.9609 11.3603 13.2781 11.5135 13.8086 11.8581C16.5977 13.6466 17.9102 17.2292 16.9203 20.3633C16.5648 21.4736 15.9742 22.4253 15.0828 23.3114L14.4922 23.9021H19.6055H24.7187V16.7096V9.51709H21.6016H18.4844V6.39943V3.28177H13.7539H9.02344V7.01202ZM23.0234 14.0295V14.8226H21.4102H19.7969V14.0295V13.2364H21.4102H23.0234V14.0295ZM23.0234 17.3113V18.1043H21.4102H19.7969V17.3113V16.5182H21.4102H23.0234V17.3113ZM23.0234 20.593V21.3861H21.4102H19.7969V20.593V19.7999H21.4102H23.0234V20.593Z" fill="#343A40"/>
<path d="M20.0703 6.01655V7.93091H21.9844C23.0398 7.93091 23.8984 7.9145 23.8984 7.88715C23.8984 7.83793 20.1633 4.1022 20.1086 4.1022C20.0867 4.1022 20.0703 4.96092 20.0703 6.01655Z" fill="#343A40"/>
<path d="M9.10543 12.3668C7.10934 12.6402 5.35387 13.9693 4.56637 15.8071C3.65309 17.9457 4.14528 20.593 5.74762 22.2011C6.83043 23.284 8.24684 23.8474 9.88747 23.8474C10.9375 23.8474 11.7414 23.6669 12.6054 23.2293C13.7757 22.6441 14.7437 21.5775 15.2086 20.3742C15.9578 18.438 15.7609 16.458 14.6562 14.8171C14.1203 14.024 13.0867 13.1763 12.1898 12.7934C11.2875 12.4105 10.0406 12.2355 9.10543 12.3668ZM10.9922 15.0578C12.3047 15.5227 13.1195 16.7041 13.125 18.1317C13.125 19.0287 12.8351 19.7069 12.1679 20.3797C11.457 21.0962 10.5929 21.4353 9.66872 21.3642C8.24684 21.2494 7.07106 20.2539 6.72106 18.8646C6.44215 17.7707 6.83043 16.4854 7.66715 15.7196C8.02809 15.3914 8.61325 15.0742 9.05622 14.9593C9.57575 14.8335 10.4836 14.8773 10.9922 15.0578Z" fill="#343A40"/>
<path d="M9.25862 16.5563C8.92503 16.6712 8.51487 17.0595 8.36175 17.4041C8.17581 17.8253 8.18128 18.405 8.37269 18.8153C8.65706 19.4224 9.16566 19.7506 9.83284 19.756C10.5383 19.7615 11.0305 19.488 11.3477 18.9192C11.4953 18.6512 11.5117 18.5801 11.5117 18.1042C11.5117 17.6721 11.4899 17.5463 11.386 17.3549C11.2164 17.0322 10.9157 16.7478 10.5875 16.5946C10.2539 16.4415 9.6305 16.4196 9.25862 16.5563Z" fill="#343A40"/>
<path d="M1.88125 23.7489C-0.0164016 25.6578 4.73983e-06 25.6359 4.73983e-06 26.3853C4.73983e-06 27.0744 0.404692 27.6597 1.03907 27.9003C1.43829 28.0535 2.04532 28.0261 2.40625 27.8457C2.57032 27.7636 3.21016 27.1674 4.30938 26.0735C5.21719 25.1656 5.95547 24.4053 5.95 24.3834C5.93907 24.367 5.76407 24.2248 5.55079 24.0716C5.04219 23.6997 4.28204 22.9394 3.92657 22.4417C3.76797 22.2229 3.62579 22.0424 3.60938 22.0424C3.59297 22.0424 2.81094 22.8136 1.88125 23.7489Z" fill="#343A40"/>
</svg>
