<svg width="52" height="54" viewBox="0 0 52 54" fill="none" xmlns="http://www.w3.org/2000/svg">
<path d="M24.4417 1.42325C22.5299 1.78237 20.5758 3.04988 19.4984 4.62369C19.1604 5.12013 18.5689 6.40876 18.495 6.8207C18.4633 6.96858 18.3894 7.39108 18.3154 7.77133C18.1781 8.53183 18.2415 9.65146 18.4739 10.6972C18.6957 11.6689 19.7203 13.4751 20.4174 14.1088C21.2307 14.8588 22.4348 15.6087 23.2904 15.8939C28.033 17.4466 32.9657 14.0666 33.1558 9.14446C33.2614 6.38764 32.0362 4.03219 29.7124 2.51119C28.6245 1.8035 27.4309 1.43381 26.0578 1.381C25.4346 1.35987 24.7058 1.381 24.4417 1.42325Z" fill="#28D07E"/>
<path d="M16.2029 5.81726C16.0551 5.8912 15.4635 6.18695 14.8826 6.46157C12.506 7.60233 10.3618 9.15502 8.35496 11.2042C6.29527 13.2955 4.75314 15.5348 3.52789 18.2282C1.55269 22.5377 0.908378 27.4599 1.67944 32.1391C1.93294 33.6495 2.54557 35.9522 2.94695 36.8711C3.02088 37.0401 3.22157 37.4943 3.38001 37.8745C3.97151 39.2477 4.85877 40.8321 5.76714 42.1207C6.29527 42.8706 6.35865 42.9446 7.43602 44.2015C10.0133 47.2329 13.7207 49.7363 17.5761 51.0566C19.1816 51.6164 20.3646 51.9121 22.0123 52.1868C24.8431 52.641 28.466 52.4508 31.677 51.6798C32.6699 51.4368 34.4867 50.8031 35.5007 50.3383L35.9443 50.1376L35.3634 49.3138C34.7507 48.4688 34.1804 47.4019 33.9585 46.7365L33.8318 46.3563L32.7544 46.7576C30.5785 47.5921 27.8323 48.1202 25.762 48.1202C22.8996 48.1096 19.7836 47.4125 17.1219 46.1767C16.0656 45.6908 14.4812 44.7719 14.4284 44.624C14.4073 44.5712 14.3228 44.5289 14.2489 44.5289C14.1749 44.5289 14.0904 44.4867 14.0693 44.4444C14.0587 44.4022 13.7313 44.1276 13.351 43.8424C12.5694 43.2509 10.6153 41.3391 10.0555 40.6208C9.66472 40.1138 8.61903 38.5928 8.4289 38.2442C8.36553 38.128 8.16484 37.7478 7.97471 37.3992C5.58758 32.9841 5.03833 27.3014 6.54877 22.4216C6.80227 21.5871 7.60502 19.5591 7.7529 19.3373C7.79515 19.2739 8.01696 18.8937 8.22821 18.4923C9.06265 16.9713 10.6998 14.8482 11.999 13.623C13.0342 12.6407 15.8755 10.6232 16.2135 10.6232C16.2874 10.6232 16.298 10.5493 16.2557 10.4331C16.2135 10.338 16.1607 9.7254 16.1501 9.09164C16.1184 8.01427 16.2557 6.97914 16.5832 5.8912C16.6571 5.62714 16.5726 5.60601 16.2029 5.81726Z" fill="#28D07E"/>
<path d="M34.9514 6.26084C34.9936 6.48265 35.0676 6.83121 35.1204 7.0319C35.2788 7.64453 35.3528 9.47185 35.2366 10.095C35.1204 10.7288 35.1204 10.7288 35.8386 11.109C36.0499 11.2252 36.2823 11.3731 36.3562 11.447C36.4407 11.521 36.6519 11.6583 36.8315 11.7534C37.0216 11.8484 37.1906 11.954 37.2223 11.9963C37.254 12.028 37.5498 12.2604 37.8772 12.5033C38.5215 12.9786 40.2749 14.6897 40.9931 15.5347C42.1867 16.9607 42.9155 18.1754 44.0563 20.6576C44.2781 21.1223 44.9224 23.2031 45.0492 23.8263C45.2287 24.6713 45.2498 24.8192 45.3555 25.7276C45.7463 28.9492 45.3766 32.213 44.3098 35.086C44.183 35.4029 44.088 35.6775 44.088 35.6986C44.088 35.7937 45.1442 36.0894 45.6723 36.1422C46.8237 36.269 48.6087 35.6986 48.8305 35.1388C49.0946 34.4417 49.6016 31.9278 49.7495 30.5863C49.8762 29.3717 49.8234 26.4564 49.6439 25.041C49.2953 22.3159 48.4292 19.5696 47.1194 17.0557C46.6019 16.0629 45.7357 14.6264 45.4505 14.2778C45.3977 14.2144 45.2076 13.9715 45.028 13.7391C44.5527 13.1054 44.4365 12.9575 43.7288 12.1653C43.1902 11.5421 42.7888 11.1407 41.5635 9.98941C40.9403 9.38735 39.62 8.43672 38.099 7.46497C37.5603 7.12697 35.4373 6.0179 35.1309 5.92284C34.8986 5.85946 34.888 5.87002 34.9514 6.26084Z" fill="#28D07E"/>
<path d="M24.0192 0.0817833C23.4383 0.22966 23.3326 0.250786 23.3326 0.271908C23.3326 0.293034 23.1848 0.324722 22.7834 0.419785C22.6566 0.44091 22.4454 0.52541 22.3081 0.599346C22.1708 0.673286 21.9912 0.747223 21.9067 0.757786C21.8222 0.778912 21.7377 0.842285 21.7166 0.905663C21.6954 0.958473 21.6321 0.990162 21.5793 0.94791C21.5264 0.916222 21.4842 0.937347 21.4842 1.00072C21.4842 1.05354 21.3786 1.13803 21.2518 1.18029C21.1251 1.21198 20.9244 1.33873 20.8082 1.44435C20.692 1.56054 20.5441 1.64504 20.4702 1.64504C20.4068 1.64504 20.3223 1.71898 20.2801 1.80347C20.2484 1.88798 20.1639 1.96191 20.0899 1.96191C19.9526 1.96191 18.8436 3.03929 18.8224 3.19773C18.7907 3.36673 18.3366 3.64136 17.9986 3.70473C17.8084 3.73642 17.481 3.84204 17.2697 3.92654C17.0585 4.02161 16.8472 4.10611 16.7839 4.11667C16.0339 4.28567 12.8124 5.81724 12.6011 6.11299C12.5694 6.1658 12.4955 6.20805 12.4427 6.20805C12.2631 6.21862 11.8723 6.42987 11.8723 6.52493C11.8723 6.56718 11.7983 6.60943 11.7138 6.60943C11.6293 6.60943 11.5554 6.65168 11.5554 6.71505C11.5554 6.76787 11.4815 6.82068 11.397 6.82068C11.3125 6.82068 11.2385 6.86293 11.2385 6.9263C11.2385 6.97912 11.0801 7.09531 10.8794 7.19037C10.6787 7.28543 10.3724 7.48612 10.2034 7.64456C10.0238 7.80299 9.72809 8.04593 9.53797 8.19381C9.3584 8.34168 9.06265 8.57406 8.88309 8.72194C8.43946 9.09163 6.48539 11.014 6.48539 11.0774C6.48539 11.1091 6.32696 11.2992 6.13683 11.4893C5.75658 11.8907 5.21789 12.5667 5.07002 12.8308C5.0172 12.9258 4.87989 13.0948 4.7637 13.211C4.64751 13.3272 4.48908 13.5807 4.41514 13.7603C4.33064 13.9504 4.22501 14.1088 4.18276 14.1088C4.14051 14.1088 4.01376 14.2884 3.89757 14.4996C3.78139 14.7215 3.6652 14.9221 3.63351 14.9538C3.36945 15.2179 1.88013 18.2705 1.94351 18.4289C1.95407 18.45 1.91182 18.5028 1.84844 18.5345C1.79563 18.5768 1.72169 18.7247 1.69001 18.8831C1.66888 19.0415 1.56325 19.3267 1.46819 19.538C1.37313 19.7387 1.27807 19.971 1.2675 20.0661C1.25694 20.1506 1.21469 20.2668 1.17244 20.2985C1.13019 20.3407 1.0985 20.4886 1.0985 20.6153C1.0985 20.7527 1.04569 20.89 0.982316 20.9217C0.929503 20.9639 0.897815 21.0484 0.91894 21.1118C0.940065 21.1857 0.929503 21.3125 0.87669 21.4075C0.83444 21.5026 0.771065 21.6927 0.739377 21.83C0.70769 21.9674 0.633752 22.2842 0.570377 22.5377C0.517564 22.7807 0.433064 23.1609 0.401376 23.3827C0.369689 23.594 0.327439 23.8897 0.295751 24.0376C0.0528127 25.3685 0 26.129 0 28.2098C0 30.3223 0.0633752 31.3786 0.253501 32.2764C0.306313 32.5404 0.380251 32.889 0.401376 33.0686C0.422501 33.2376 0.454189 33.3854 0.464751 33.3854C0.475314 33.3854 0.507002 33.5016 0.528127 33.6495C0.559814 33.7974 0.623189 34.1037 0.686565 34.3361C0.74994 34.5685 0.823878 34.8536 0.855565 34.9698C0.940065 35.3712 0.971753 35.498 0.992878 35.498C1.00344 35.498 1.02457 35.5825 1.04569 35.6881C1.06682 35.7937 1.11963 35.9627 1.16188 36.0578C1.20413 36.1528 1.24638 36.3007 1.2675 36.3746C1.27807 36.4591 1.33088 36.5965 1.37313 36.6915C1.41538 36.7866 1.45763 36.8922 1.46819 36.9239C1.47875 36.9556 1.56325 37.1668 1.65832 37.3886C1.76394 37.621 1.86957 37.9273 1.91182 38.0752C2.00688 38.4766 3.44339 41.2545 3.54901 41.2545C3.60182 41.2545 3.62295 41.2968 3.59126 41.339C3.55957 41.3918 3.63351 41.5292 3.73914 41.6559C3.85532 41.7827 3.95039 41.9305 3.95039 41.9939C3.95039 42.0467 3.99264 42.0995 4.05601 42.0995C4.10883 42.0995 4.15108 42.1312 4.14051 42.1735C4.10883 42.3002 4.5947 43.0502 4.70033 43.0502C4.75314 43.0502 4.79539 43.103 4.79539 43.1664C4.79539 43.2297 4.85877 43.3354 4.9327 43.4199C4.99608 43.4938 5.15452 43.6839 5.2707 43.8529C6.37977 45.395 8.88309 47.8667 10.214 48.7328C10.4569 48.8912 10.7104 49.0708 10.7632 49.1342C10.9005 49.2926 12.1575 50.1271 12.2525 50.1271C12.2842 50.1271 12.675 50.3489 13.1081 50.6235C13.5412 50.8876 13.9637 51.1094 14.0482 51.1094C14.1327 51.1094 14.196 51.1516 14.196 51.2044C14.196 51.2467 14.2277 51.2784 14.2805 51.2678C14.3228 51.2573 14.6608 51.3946 15.041 51.5741C15.96 52.0072 16.5621 52.2501 16.636 52.2184C16.6677 52.1973 16.7627 52.2396 16.8472 52.3135C16.9317 52.3769 17.2064 52.4931 17.4704 52.567C18.0619 52.736 18.0197 52.7254 18.2098 52.7994C18.2943 52.8416 18.4633 52.8839 18.5795 52.905C18.6957 52.9261 19.0548 53.0212 19.3717 53.1057C20.0688 53.3064 21.6532 53.5916 22.382 53.6655C24.072 53.8345 24.7375 53.8662 25.9521 53.8556C26.6915 53.8451 27.5471 53.8134 27.8534 53.7711C28.1491 53.7289 28.5717 53.6866 28.7723 53.6655C29.2688 53.6127 30.0082 53.5071 30.2828 53.4437C30.5363 53.3803 30.9588 53.3064 31.2017 53.2641C31.2968 53.243 31.4235 53.2008 31.4975 53.1479C31.5608 53.1057 31.6242 53.0951 31.6242 53.1268C31.6242 53.1479 31.7827 53.1268 31.9728 53.074C32.1523 53.0106 32.4481 52.9367 32.6171 52.905C32.7861 52.8839 33.0502 52.7994 33.198 52.7466C33.3459 52.6832 33.5466 52.6198 33.6417 52.5987C33.7262 52.5776 34.1592 52.4191 34.5923 52.2396C35.0254 52.06 35.4267 51.9016 35.4795 51.8804C35.5429 51.8699 35.7647 51.7748 35.9865 51.6798C36.1978 51.5847 36.409 51.5108 36.4302 51.5108C36.4619 51.5108 36.6203 51.4263 36.7893 51.3312C37.0745 51.1622 37.0956 51.1622 37.4442 51.4051C37.6343 51.5424 37.9089 51.7643 38.0462 51.891C38.1941 52.0072 38.4265 52.1762 38.5849 52.2607C38.7328 52.3346 38.9546 52.4825 39.0602 52.5776C39.1764 52.6832 39.3243 52.7677 39.3982 52.7677C39.4616 52.7677 39.5778 52.8416 39.6517 52.9261C39.7257 53.0106 39.8207 53.0634 39.863 53.0318C39.9158 53.0001 39.9686 53.0106 39.9897 53.0529C40.0426 53.1691 41.215 53.7606 41.722 53.919C42.1445 54.0563 42.1973 54.0458 42.9789 53.6761C43.4226 53.4648 43.8345 53.2958 43.8873 53.2958C43.9401 53.2958 43.9824 53.243 43.9824 53.1902C43.9824 53.1268 44.0458 53.0846 44.1303 53.0846C44.2148 53.0846 44.3521 53.0106 44.4471 52.9261C44.5316 52.8311 44.6373 52.7677 44.6689 52.7677C44.7957 52.7783 45.3555 52.4403 45.3555 52.3452C45.3555 52.2818 45.4083 52.2396 45.4611 52.2396C45.5773 52.2396 46.0526 51.9227 46.4646 51.5847C47.1406 51.0143 48.4186 49.7362 48.4186 49.6201C48.4186 49.5567 48.4503 49.4933 48.5032 49.4933C48.5454 49.4933 48.7144 49.2715 48.894 48.9863C49.063 48.7117 49.232 48.4687 49.2742 48.4371C49.3376 48.3842 49.6122 47.9089 49.6439 47.8033C49.6439 47.7716 49.7812 47.4759 49.9291 47.1484C50.2354 46.4936 50.51 45.5218 50.6051 44.7613C50.6368 44.4867 50.679 41.8143 50.7002 38.8252C50.7213 35.836 50.7741 33.2693 50.8058 33.1214C50.8375 32.9735 50.9114 32.4982 50.9642 32.0651C51.017 31.6321 51.091 31.03 51.1332 30.7448C51.2388 30.0794 51.2283 26.4881 51.1227 25.3579C51.0804 24.8932 50.9959 24.3017 50.9431 24.0376C50.8797 23.7735 50.8163 23.4144 50.7847 23.2454C50.753 22.9814 50.7107 22.7595 50.5734 22.2103C50.5628 22.168 50.5417 22.1047 50.5312 22.0519C50.51 22.0096 50.4889 21.9251 50.4783 21.8723C50.4572 21.8089 50.4361 21.7455 50.4255 21.7139C50.415 21.6822 50.3938 21.5765 50.3622 21.4709C50.341 21.3759 50.2988 21.2068 50.2777 21.1012C50.246 21.0062 50.2248 20.9111 50.2143 20.89C50.1932 20.8794 50.172 20.816 50.1615 20.7632C50.1509 20.6998 50.1192 20.6365 50.1087 20.6048C50.0981 20.5731 50.077 20.5203 50.0664 20.4675C49.9713 20.1189 49.5594 18.9253 49.3798 18.5134C49.2637 18.2388 49.1686 18.0064 49.1792 17.9853C49.2003 17.9641 49.0102 17.5945 48.6616 16.9607C48.5877 16.8128 48.3553 16.3481 48.144 15.9256C47.9433 15.5136 47.7215 15.1651 47.6687 15.1651C47.6053 15.1651 47.5842 15.1228 47.6159 15.07C47.6581 15.0172 47.6476 14.9538 47.6053 14.9327C47.5525 14.9221 47.4363 14.7215 47.3201 14.5102C47.2145 14.299 47.0244 14.0138 46.8976 13.8764C46.7815 13.7497 46.6864 13.6018 46.7075 13.5596C46.7181 13.5068 46.6864 13.4751 46.6441 13.4751C46.6019 13.4751 46.3061 13.1159 45.9893 12.6723C45.1337 11.4893 43.581 9.80988 42.4719 8.88037C42.1868 8.648 41.9121 8.40506 41.8382 8.35225C41.1622 7.79243 40.708 7.45443 40.6129 7.45443C40.5496 7.45443 40.4967 7.40162 40.4967 7.3488C40.4967 7.28543 40.4123 7.20093 40.3172 7.16924C40.2116 7.12699 40.0426 7.02137 39.9369 6.91574C39.8313 6.82068 39.5672 6.65168 39.356 6.54605C39.1447 6.42987 38.9441 6.32424 38.9124 6.29255C38.7645 6.14468 38.2786 5.88062 38.2786 5.94399C38.2786 5.9968 38.2364 5.97568 38.1941 5.9123C38.1307 5.80667 36.8632 5.10955 36.6942 5.07786C36.6626 5.07786 36.5358 5.01448 36.3985 4.94055C36.2612 4.86661 35.976 4.73986 35.7647 4.65536C35.5535 4.58142 35.1838 4.43355 34.9514 4.32792C34.719 4.2223 34.5078 4.13779 34.4761 4.12723C34.4444 4.11667 34.286 4.0533 34.117 3.97936C33.948 3.91598 33.7156 3.84204 33.5889 3.81036C33.4727 3.78923 33.367 3.76811 33.367 3.75755C33.367 3.74698 33.2825 3.72586 33.1664 3.70473C33.0607 3.68361 32.9129 3.57798 32.8389 3.47235C32.4692 2.94423 30.7158 1.32816 30.5152 1.32816C30.4729 1.32816 30.3039 1.2331 30.1349 1.10635C29.9659 0.990162 29.8286 0.926785 29.8286 0.958473C29.8286 1.00072 29.7547 0.94791 29.6596 0.863411C29.5751 0.768349 29.4483 0.715534 29.3955 0.747223C29.3427 0.789474 29.3005 0.757786 29.3005 0.704971C29.3005 0.641598 29.1948 0.588783 29.0575 0.588783C28.9202 0.588783 28.7723 0.546535 28.709 0.493721C28.6562 0.430347 28.4872 0.36697 28.3287 0.335285C28.1703 0.314159 27.9907 0.261345 27.9273 0.219097C27.6105 0.0289726 24.653 -0.0872154 24.0192 0.0817833ZM27.7161 0.94791C28.2653 1.09579 28.7723 1.2331 28.8252 1.25422C29.0258 1.30704 30.2194 1.96191 30.4307 2.12035C31.0855 2.64848 31.244 2.78579 31.4552 2.96535C31.8672 3.33504 32.6382 4.42299 32.9234 5.04617C33.0819 5.37361 33.2509 5.66936 33.3142 5.71161C33.367 5.7433 33.3882 5.83836 33.3459 5.92286C33.3142 6.00736 33.3565 6.0813 33.4304 6.0813C33.5044 6.0813 33.536 6.11299 33.5044 6.14468C33.4621 6.17636 33.4832 6.35593 33.536 6.53549C33.6945 7.08474 33.9163 8.84869 33.8846 9.30288C33.8529 9.76762 33.6945 10.5176 33.5044 11.1936C33.441 11.4259 33.3776 11.6583 33.3565 11.7006C33.3459 11.7534 33.3354 11.7956 33.3142 11.8062C33.3037 11.8273 33.2825 11.9329 33.2614 12.0386C33.2403 12.1442 33.1558 12.2815 33.0819 12.3238C33.0079 12.3766 32.9868 12.4188 33.0396 12.4188C33.0924 12.4188 33.0607 12.5033 32.9657 12.5984C32.8812 12.704 32.7967 12.8308 32.7967 12.8941C32.7755 13.1793 31.3707 14.7637 30.7158 15.2285C30.5574 15.3341 30.3462 15.5136 30.23 15.6087C30.1243 15.7143 30.0398 15.7777 30.0398 15.746C30.0398 15.7249 29.7969 15.8411 29.5117 16.0101C29.216 16.1896 28.9308 16.327 28.8674 16.327C28.8146 16.327 28.6878 16.3692 28.5822 16.4326C28.4343 16.5171 28.033 16.6438 27.2936 16.8234C26.7655 16.9607 25.1494 17.0135 24.6952 16.9185C23.7868 16.7283 22.9735 16.5065 22.7517 16.3903C22.6038 16.3164 22.3081 16.1896 22.0968 16.1263C21.875 16.0523 21.6954 15.9467 21.6954 15.8939C21.6954 15.8305 21.6532 15.8094 21.6004 15.8411C21.4736 15.9256 19.6146 14.3095 19.2872 13.8342C19.1393 13.6018 18.9809 13.4011 18.9281 13.3906C18.8858 13.3694 18.8436 13.285 18.8436 13.211C18.8436 13.1371 18.8119 13.0526 18.7696 13.0314C18.664 12.9892 17.9774 11.6794 18.0514 11.6794C18.0831 11.6794 18.0619 11.5844 17.9986 11.4682C17.7979 11.0985 17.5655 9.7465 17.5655 8.88037C17.5549 7.83468 17.6606 7.08474 17.9457 6.34536C18.2837 5.45811 18.4844 4.96167 18.5267 4.91942C18.6534 4.80323 18.9492 4.28567 18.8964 4.28567C18.8541 4.28567 18.8964 4.2223 18.9703 4.13779C19.3294 3.76811 19.6886 3.33504 19.6252 3.33504C19.5935 3.33504 19.7731 3.16604 20.0266 2.95479C20.2695 2.7541 20.5336 2.52173 20.5864 2.45835C20.8293 2.1626 22.0546 1.4866 23.1214 1.0641C23.4805 0.916222 23.8924 0.821159 24.4311 0.747223C24.6318 0.726097 24.8114 0.683849 24.8325 0.662724C24.9698 0.52541 26.8394 0.715534 27.7161 0.94791ZM17.7873 4.70817C17.7239 4.82436 17.7134 4.91942 17.7556 4.91942C17.7979 4.91942 17.7873 4.96167 17.7134 5.00393C17.5444 5.10955 17.1536 6.19749 17.1219 6.66224C17.1113 6.77843 17.0691 6.90518 17.0162 6.93687C16.974 6.96856 16.9212 7.29599 16.9001 7.67624C16.8789 8.04593 16.8261 8.43675 16.7839 8.53181C16.7416 8.63744 16.7627 9.09163 16.8367 9.53525C17.0479 10.9612 17.0479 10.9718 16.6254 11.1724C16.4247 11.2675 16.1924 11.4048 16.129 11.4682C16.055 11.5316 15.96 11.5844 15.9177 11.5949C15.717 11.6161 15.3579 11.8273 15.3579 11.9118C15.3579 11.9541 15.3051 11.9963 15.2523 11.9963C15.1889 11.9963 15.0833 12.0491 15.0094 12.1019C14.4601 12.5667 14.2383 12.7357 14.1644 12.7357C13.8052 12.7357 10.1823 16.3692 10.1823 16.7178C10.1823 16.7811 10.1083 16.8656 10.0133 16.8973C9.92878 16.929 9.87597 17.003 9.91822 17.0558C9.94991 17.1191 9.90766 17.1931 9.83372 17.2459C9.67528 17.3515 9.16828 18.0487 9.21053 18.1226C9.22109 18.1543 9.15772 18.2599 9.07322 18.355C8.98872 18.4606 8.95703 18.5451 8.99928 18.5451C9.04153 18.5451 9.0204 18.5873 8.95703 18.6296C8.89365 18.6718 8.73521 18.9359 8.5979 19.2317C8.46059 19.5168 8.30215 19.7915 8.24934 19.8232C8.19653 19.8548 8.16484 19.9182 8.16484 19.9605C8.1754 19.9922 8.05921 20.2985 7.90077 20.6365C7.7529 20.9639 7.61559 21.2808 7.59446 21.3442C7.5839 21.397 7.54165 21.5343 7.4994 21.6293C7.45715 21.7244 7.40434 21.8617 7.39377 21.9462C7.37265 22.0202 7.3304 22.1575 7.29871 22.242C7.25646 22.3265 7.18252 22.6117 7.11915 22.8757C6.97127 23.4884 6.97127 23.4989 6.83396 23.932C6.76002 24.1327 6.67552 24.534 6.63327 24.8298C6.59102 25.115 6.53821 25.4952 6.51708 25.6748C6.41146 26.3297 6.40089 30.0266 6.50652 30.5864C6.55933 30.9033 6.62271 31.2835 6.64383 31.4314C6.71777 32.0757 6.92902 33.0791 7.01352 33.1742C7.06633 33.227 7.10858 33.3221 7.10858 33.3854C7.14027 33.6495 7.35152 34.3889 7.55221 34.917C7.76346 35.498 8.69296 37.452 8.80915 37.5576C8.84084 37.5893 8.97815 37.8323 9.11547 38.1175C9.25278 38.3921 9.47459 38.7301 9.61191 38.878C9.73866 39.0153 9.87597 39.2265 9.91822 39.3427C9.94991 39.4589 10.1189 39.6702 10.2879 39.8075C10.4569 39.9553 10.5625 40.1032 10.5308 40.1349C10.4886 40.1666 10.5203 40.1983 10.5837 40.1983C10.6576 40.1983 10.7104 40.2511 10.7104 40.3145C10.7104 40.5046 13.1504 42.9445 13.3405 42.9445C13.3827 42.9445 13.5306 43.0607 13.6679 43.2086C13.8052 43.3565 13.9637 43.4727 14.0165 43.4727C14.0693 43.4727 14.1855 43.5572 14.2594 43.6522C14.3334 43.7579 14.4284 43.8424 14.4812 43.8424C14.534 43.8424 14.6819 43.948 14.8298 44.0853C14.9671 44.212 15.1678 44.3177 15.2734 44.3177C15.3896 44.3177 15.453 44.3599 15.4107 44.4127C15.379 44.4655 15.4635 44.55 15.5903 44.5923C15.7276 44.6345 15.8544 44.6979 15.886 44.7402C15.9389 44.8247 17.6183 45.6908 17.7239 45.6908C17.7556 45.6908 18.0302 45.807 18.3366 45.9443C18.6429 46.0922 19.0442 46.2401 19.2132 46.2823C19.3928 46.3246 19.5935 46.3985 19.6674 46.4619C19.7308 46.5147 19.7942 46.5252 19.7942 46.483C19.7942 46.4407 19.8681 46.4724 19.9737 46.5464C20.0688 46.6309 20.1533 46.6731 20.1533 46.652C20.1639 46.6309 20.3751 46.6837 20.6392 46.7471C20.9033 46.821 21.2096 46.8949 21.3258 46.9161C21.4419 46.9266 21.537 46.9477 21.537 46.9583C21.537 46.9794 21.6321 47.0006 21.7483 47.0217C22.0123 47.0534 22.5193 47.159 22.8151 47.2224C23.1319 47.2963 25.0438 47.4336 25.6564 47.4231C26.4486 47.4231 28.3498 47.2963 28.7723 47.2224C29.1209 47.159 30.3884 46.8949 30.8109 46.7999C31.2968 46.6837 32.3425 46.314 32.9974 46.0288C33.5466 45.7753 33.5994 45.7859 33.7684 46.1556C33.8635 46.3351 34.1698 46.9794 34.4655 47.5921C34.7507 48.2047 35.1838 48.9335 35.4162 49.2292C35.6485 49.5144 35.9443 49.9369 36.0605 50.1588C36.1872 50.3806 36.3246 50.5284 36.3879 50.4862C36.4619 50.4439 36.4619 50.4968 36.3774 50.6446C36.314 50.7714 36.2189 50.8453 36.1555 50.8136C36.1027 50.7714 36.0605 50.8031 36.0605 50.8559C36.0605 50.9193 35.976 50.9721 35.8598 50.9721C35.7542 50.9721 35.4479 51.0883 35.1732 51.2361C34.9092 51.3734 34.6874 51.4685 34.6874 51.4474C34.6874 51.4157 34.4972 51.4896 34.2649 51.6058C34.0325 51.722 33.8424 51.7959 33.8424 51.7537C33.8424 51.7114 33.7684 51.7431 33.6839 51.8171C33.5994 51.891 33.5255 51.9121 33.5255 51.8804C33.5255 51.8382 33.4621 51.8382 33.3987 51.891C33.3248 51.9333 33.198 51.9755 33.1241 51.9861C33.0396 52.0072 32.9023 52.0494 32.8072 52.0917C32.596 52.1868 32.6699 52.1656 31.9411 52.3346C31.6242 52.4086 31.0644 52.5353 30.7053 52.6198C30.3462 52.7043 29.8075 52.7994 29.4906 52.8311C29.1843 52.8522 28.8252 52.905 28.6878 52.9367C27.5682 53.1796 23.0263 53.1691 22.213 52.9156C22.0334 52.8628 21.7905 52.8311 20.861 52.7043C20.5969 52.6726 20.3012 52.6093 20.2061 52.5459C20.1005 52.4931 19.9737 52.4508 19.9315 52.4614C19.8892 52.4719 19.8259 52.4614 19.7942 52.4508C19.6991 52.4191 19.3294 52.3346 19.0971 52.2924C18.9703 52.2818 18.7696 52.2079 18.6323 52.1339C18.5056 52.0706 18.3788 52.0389 18.3471 52.0706C18.3049 52.1023 18.2204 52.0811 18.1359 52.0178C18.0619 51.9544 17.9986 51.9333 17.9986 51.9755C17.9986 52.0178 17.9246 51.9966 17.8401 51.9227C17.7451 51.8488 17.5972 51.7748 17.4916 51.7643C17.312 51.7537 17.2064 51.7114 16.467 51.3946C16.2346 51.2889 15.9283 51.1728 15.7804 51.1305C15.4107 51.0143 13.4355 50.0003 13.2665 49.8419C13.1926 49.7679 13.0553 49.7046 12.9708 49.7046C12.8863 49.7046 12.8229 49.6623 12.8229 49.6201C12.8229 49.5672 12.6328 49.4405 12.4004 49.3243C12.168 49.2187 11.9779 49.0919 11.9779 49.0602C11.9779 49.018 11.8406 48.9335 11.661 48.8596C11.492 48.7856 11.3442 48.6906 11.3442 48.6377C11.3442 48.5849 11.2808 48.5427 11.1963 48.5427C11.1118 48.5427 11.0167 48.4687 10.985 48.3737C10.9428 48.2786 10.89 48.2258 10.8583 48.2575C10.8266 48.2786 10.6998 48.2047 10.5625 48.0779C10.2562 47.7927 9.87597 47.4864 9.82316 47.4864C9.62247 47.4864 6.71777 44.5395 6.08402 43.6839C5.98896 43.5572 5.81996 43.367 5.72489 43.2825C5.61927 43.1875 5.53477 43.0502 5.53477 42.9657C5.53477 42.8917 5.46083 42.8072 5.37633 42.7755C5.29183 42.7439 5.19677 42.6277 5.16508 42.5115C5.12283 42.4059 5.03833 42.2474 4.96439 42.184C4.90102 42.1101 4.65808 41.7404 4.4257 41.3602C4.20389 40.9799 3.95039 40.5891 3.86589 40.4835C3.78139 40.3884 3.73914 40.3039 3.78139 40.3039C3.82364 40.3039 3.76026 40.1666 3.64407 39.9976C3.51732 39.8286 3.17932 39.1315 2.88357 38.4449C2.59838 37.7478 2.28151 37.0506 2.19701 36.8816C2.11251 36.7126 2.04913 36.4908 2.04913 36.3958C2.04913 36.3007 2.01744 36.1845 1.97519 36.1423C1.93294 36.1106 1.89069 35.9733 1.86957 35.8465C1.84844 35.7198 1.78507 35.5508 1.71113 35.4768C1.64776 35.4029 1.62663 35.3078 1.64776 35.2761C1.67944 35.2445 1.63719 35.0015 1.55269 34.7269C1.352 34.072 1.33088 33.9981 1.08794 32.6989C0.771065 31.0194 0.686565 30.0794 0.686565 28.2626C0.686565 26.8367 0.70769 26.4459 0.823878 25.4635C0.87669 25.115 0.91894 24.6819 0.940065 24.5129C0.96119 24.3334 1.03513 23.9531 1.0985 23.6574C1.16188 23.3616 1.22525 22.9814 1.24638 22.8124C1.2675 22.6434 1.29919 22.506 1.30975 22.506C1.33088 22.506 1.37313 22.3265 1.46819 21.904C1.49988 21.7455 1.57382 21.492 1.62663 21.3442C1.67944 21.1963 1.70057 21.0801 1.66888 21.0801C1.62663 21.0801 1.65832 21.0062 1.73226 20.9217C1.80619 20.8372 1.83788 20.7632 1.79563 20.7632C1.75338 20.7632 1.79563 20.6259 1.89069 20.4463C1.97519 20.2773 2.04913 20.1083 2.04913 20.0767C2.04913 20.045 2.12307 19.8548 2.20757 19.6436C2.29207 19.4323 2.36601 19.2105 2.36601 19.1366C2.36601 19.0732 2.4822 18.788 2.63007 18.4923C2.76738 18.2071 2.9892 17.7212 3.11595 17.436C3.4117 16.7917 4.44683 14.9644 4.66864 14.7109C4.75314 14.6158 4.79539 14.5313 4.75314 14.5313C4.71089 14.5313 4.80595 14.4046 4.95383 14.2461C5.1017 14.0877 5.21789 13.8976 5.21789 13.8236C5.21789 13.7497 5.24958 13.6863 5.30239 13.6863C5.34464 13.6863 5.51364 13.4751 5.67208 13.211C5.84108 12.9469 6.02064 12.7357 6.07346 12.7357C6.12627 12.7357 6.16852 12.6723 6.16852 12.5984C6.16852 12.5244 6.27414 12.3554 6.41146 12.2393C6.53821 12.1231 6.88677 11.7534 7.17196 11.4154C7.46771 11.0879 7.86909 10.6549 8.06977 10.4753C8.27046 10.2958 8.65071 9.92606 8.92534 9.64088C9.19997 9.36625 9.46403 9.14444 9.51684 9.14444C9.55909 9.14444 9.79147 8.96487 10.0344 8.74306C10.2668 8.53181 10.5942 8.25718 10.7527 8.141C10.9217 8.02481 11.1118 7.87693 11.1752 7.82412C11.3653 7.65512 11.6927 7.46499 11.9568 7.3488C12.0835 7.29599 12.1892 7.19037 12.1892 7.12699C12.1892 7.05305 12.2208 7.03193 12.2631 7.06362C12.2948 7.10587 12.411 7.06362 12.506 6.97912C12.8652 6.65168 15.1784 5.50036 16.8367 4.82436C17.7979 4.43355 17.9457 4.41242 17.7873 4.70817ZM33.948 4.66592C33.9797 4.67649 34.1064 4.71873 34.2332 4.76099C34.3599 4.80323 34.4972 4.82436 34.5395 4.8138C34.5817 4.80323 34.6451 4.84549 34.6768 4.8983C34.7085 4.96167 34.8352 5.02505 34.9514 5.04617C35.0676 5.05674 35.3739 5.18349 35.6274 5.31024C35.8809 5.44755 36.1344 5.55318 36.1872 5.55318C36.2295 5.55318 36.4619 5.66936 36.6837 5.80667C36.9055 5.95455 37.1273 6.03905 37.159 6.00736C37.1907 5.96511 37.2224 5.9968 37.2224 6.06018C37.2224 6.13411 37.2646 6.18693 37.3174 6.18693C37.3702 6.18693 37.7294 6.37705 38.1096 6.60943C38.4899 6.8418 38.849 7.03193 38.9124 7.03193C38.9652 7.03193 39.018 7.06362 39.018 7.11643C39.018 7.15868 39.1025 7.24318 39.2081 7.29599C39.7891 7.61287 40.7608 8.29943 41.2467 8.74306C41.4157 8.91206 41.6058 9.03881 41.6586 9.03881C41.7748 9.03881 43.9718 11.2464 44.5633 11.9435C45.5879 13.1793 45.8836 13.549 45.8836 13.623C45.8836 13.6652 45.9998 13.8236 46.1477 13.9821C46.2956 14.1405 46.4118 14.3201 46.4118 14.394C46.4118 14.4574 46.454 14.5313 46.5068 14.5525C46.6336 14.5947 48.4186 17.8902 48.4186 18.0592C48.4186 18.1332 48.4609 18.2282 48.5032 18.281C48.6405 18.45 49.6122 21.1118 49.6333 21.397C49.6439 21.4815 49.7284 21.8195 49.8235 22.1364C49.9185 22.4532 50.0242 22.9074 50.0664 23.1398C50.1087 23.3722 50.1509 23.6362 50.172 23.7207C50.1826 23.8052 50.2248 24.1115 50.2565 24.4073C50.2882 24.6925 50.341 25.041 50.3727 25.1784C50.5523 25.9177 50.6051 28.6429 50.4889 30.1639C50.4044 31.1673 50.3833 31.3363 50.2143 32.1919C50.1509 32.5193 50.077 32.9313 50.0558 33.0897C49.9502 33.8502 49.8657 34.241 49.7918 34.3361C49.7495 34.3889 49.7284 34.5262 49.739 34.6213C49.7601 34.7269 49.7178 34.8114 49.6439 34.8114C49.57 34.8114 49.4221 34.9065 49.3165 35.0226C49.2108 35.1388 49.063 35.2339 48.9785 35.2339C48.9045 35.2339 48.8095 35.2973 48.7778 35.3818C48.6933 35.6036 47.6159 36.0472 46.8448 36.1845C46.4751 36.2479 45.9259 36.2796 45.6301 36.2373C44.9964 36.1634 44.088 35.8888 44.088 35.7726C44.088 35.7303 43.919 35.6141 43.7078 35.5085C43.3381 35.3395 43.3275 35.329 43.5071 35.1283C43.6127 35.0121 43.6655 34.917 43.6127 34.917C43.5704 34.917 43.5916 34.8431 43.6655 34.7586C43.7394 34.6741 43.7606 34.6001 43.7078 34.6001C43.6655 34.6001 43.6761 34.5473 43.75 34.4734C43.8239 34.3995 43.8768 34.2516 43.8768 34.1248C43.8768 33.9981 43.9296 33.8502 44.0035 33.7763C44.0774 33.7023 44.088 33.6495 44.0458 33.6495C43.9929 33.6495 44.0141 33.5756 44.088 33.4911C44.1619 33.396 44.1936 33.3009 44.1619 33.2587C44.1197 33.227 44.1408 33.1108 44.1936 33.0052C44.257 32.8996 44.4049 32.3292 44.5211 31.7271C44.7112 30.8399 44.7535 30.2273 44.764 28.3682C44.764 27.1219 44.7429 25.9072 44.7006 25.6748C44.6161 25.2523 44.5528 24.8615 44.4577 24.2489C44.4366 24.0693 44.3838 23.8897 44.3626 23.8369C44.3309 23.7841 44.2781 23.5623 44.2359 23.3405C44.2042 23.1081 44.1408 22.8757 44.1091 22.8229C44.0352 22.7067 43.9824 22.4849 43.9613 22.2631C43.9507 22.1997 43.919 22.1364 43.8873 22.1364C43.8451 22.1364 43.75 21.9145 43.6761 21.6293C43.6021 21.3547 43.4437 20.9322 43.3381 20.6893C43.2324 20.4358 43.1374 20.1928 43.1374 20.1295C43.1374 20.0767 43.0951 20.0238 43.0318 20.0238C42.9789 20.0238 42.9261 19.9393 42.9261 19.8337C42.9156 19.7387 42.7783 19.4112 42.6093 19.126C42.4297 18.8303 42.2607 18.5134 42.229 18.4078C42.1868 18.3127 42.1128 18.2282 42.06 18.2282C42.0072 18.2282 41.9966 18.1754 42.0283 18.1226C42.06 18.0592 42.0178 17.9853 41.9333 17.9536C41.8382 17.9219 41.7959 17.848 41.8276 17.7952C41.8593 17.7423 41.8276 17.7001 41.7748 17.7001C41.7114 17.7001 41.6586 17.6473 41.6586 17.5839C41.6586 17.4783 41.3629 17.0663 40.9721 16.6121C40.8876 16.5171 40.8136 16.4009 40.8136 16.3692C40.8136 16.2108 37.9195 13.2638 37.7611 13.2638C37.6766 13.2638 37.2118 12.9153 36.5886 12.3977C36.5041 12.3238 36.2717 12.1759 36.0605 12.0703C35.8598 11.9541 35.5429 11.7534 35.3528 11.6161C35.1732 11.4788 34.9409 11.3626 34.8564 11.3626C34.7613 11.3626 34.6874 11.3098 34.6874 11.2569C34.6874 11.1936 34.6134 11.1513 34.5289 11.1513C34.4233 11.1513 34.381 11.0351 34.4022 10.676C34.4127 10.4119 34.455 10.2007 34.4867 10.2007C34.6029 10.2007 34.6451 8.59518 34.55 7.71849C34.4867 7.05305 34.2649 6.17636 34.1275 5.9968C34.0747 5.93343 34.0642 5.87005 34.1064 5.87005C34.1487 5.87005 34.1275 5.79611 34.0536 5.71161C33.9797 5.62711 33.9585 5.55318 34.0008 5.55318C34.043 5.55318 33.9797 5.38417 33.8529 5.17292C33.5994 4.75042 33.5572 4.43355 33.7684 4.57086C33.8318 4.61311 33.9163 4.65536 33.948 4.66592ZM17.5127 12.2604C17.5549 12.4611 17.6289 12.6301 17.6817 12.6301C17.7239 12.6301 17.8507 12.8413 17.9563 13.1054C18.0514 13.3694 18.1781 13.5807 18.2204 13.5807C18.2732 13.5807 18.3154 13.6441 18.3154 13.7286C18.3154 13.8131 18.3894 13.8976 18.4739 13.9398C18.5584 13.9715 18.6323 14.056 18.6323 14.1405C18.6323 14.2145 18.7379 14.3835 18.8752 14.4996C19.002 14.6158 19.2555 14.8799 19.4245 15.0806C19.6041 15.2813 19.9315 15.577 20.1639 15.7566C20.3962 15.9256 20.6498 16.1263 20.7343 16.2002C20.8188 16.2847 21.1462 16.4643 21.4736 16.6227L22.0651 16.8973L20.1639 16.9713C19.1182 17.0135 18.1253 17.0875 17.9457 17.1191C17.7767 17.1614 17.5127 17.2142 17.3648 17.2459C16.9106 17.341 16.7839 17.3621 16.7311 17.3832C16.6994 17.3938 16.6466 17.4043 16.6043 17.3938C16.5621 17.3938 16.3508 17.4677 16.129 17.5628C15.9072 17.6578 15.7065 17.7423 15.6748 17.7529C15.3051 17.8268 15.041 17.9325 15.041 18.017C15.041 18.0803 14.946 18.1226 14.8298 18.1226C14.7136 18.1226 14.6185 18.1754 14.6185 18.2282C14.6185 18.2916 14.5763 18.3233 14.534 18.3127C14.4073 18.2705 13.1398 19.0732 13.1398 19.1894C13.1398 19.2422 13.087 19.2845 13.0342 19.2845C12.8969 19.2845 11.5343 20.647 11.0167 21.2913C10.8055 21.5554 10.5731 21.9251 10.4886 22.1047C10.4041 22.2948 10.309 22.4532 10.2773 22.4532C10.1928 22.4532 9.82316 23.3088 9.84428 23.425C9.85484 23.4778 9.81259 23.5095 9.73866 23.5095C9.67528 23.5095 9.65415 23.5412 9.68584 23.5834C9.72809 23.6151 9.70697 23.7102 9.64359 23.7947C9.58022 23.8686 9.54853 23.932 9.58022 23.932C9.62247 23.932 9.53797 24.2277 9.40065 24.5869C8.95703 25.7699 8.94647 25.9494 8.92534 31.8961C8.91478 34.7797 8.88309 36.0895 8.80915 36.0155C8.74578 35.9521 8.6824 35.8148 8.66128 35.6986C8.62959 35.593 8.53453 35.3078 8.4289 35.0755C8.32328 34.8431 8.22821 34.5896 8.21765 34.5156C8.20709 34.4311 8.15427 34.2938 8.11203 34.1988C8.06977 34.1037 8.02752 33.9664 8.0064 33.9136C7.99584 33.8502 7.90077 33.5439 7.80571 33.227C7.65784 32.7094 7.38321 31.4314 7.26702 30.692C7.21421 30.354 7.08746 28.6217 7.08746 28.2098C7.08746 27.9035 7.21421 26.1818 7.27759 25.622C7.29871 25.4741 7.36209 25.0939 7.43602 24.777C7.4994 24.4601 7.57334 24.101 7.5839 23.9848C7.60502 23.8686 7.67896 23.5834 7.7529 23.351C7.82684 23.1187 7.98527 22.6434 8.10146 22.2948C8.20709 21.9462 8.36553 21.5343 8.45003 21.3653C8.54509 21.2068 8.57678 21.0801 8.53453 21.0801C8.50284 21.0801 8.54509 20.9639 8.64015 20.816C8.73521 20.6682 8.77746 20.552 8.74578 20.552C8.70353 20.552 8.73521 20.4675 8.81971 20.3618C9.07322 20.0661 9.46403 19.2845 9.36897 19.2845C9.32672 19.2845 9.33728 19.2422 9.39009 19.2C9.55909 19.0838 10.0872 18.2282 10.0027 18.2282C9.94991 18.2282 9.97103 18.186 10.0344 18.1437C10.0978 18.1015 10.3724 17.7529 10.6365 17.3621C10.9111 16.9818 11.3336 16.4326 11.5765 16.158C12.242 15.4186 13.6679 13.9821 13.6679 14.0455C13.6679 14.1088 14.1115 13.7391 14.4707 13.3906C14.5446 13.3272 14.6397 13.2638 14.6714 13.2638C14.7136 13.2638 14.9037 13.1371 15.0939 12.9681C15.4319 12.6829 16.1079 12.2709 16.1924 12.3132C16.2135 12.3238 16.2663 12.2921 16.298 12.2393C16.4459 12.0491 17.2064 11.7217 17.3226 11.8062C17.3965 11.859 17.481 12.0597 17.5127 12.2604ZM35.0465 12.2393C35.0782 12.197 35.1099 12.2181 35.1099 12.2709C35.1099 12.3343 35.3105 12.4928 35.564 12.6301C35.807 12.7674 36.1344 12.9786 36.2823 13.0948C36.4302 13.2216 36.6626 13.3906 36.7893 13.4751C36.9266 13.5596 37.1379 13.7286 37.2752 13.8448C37.4019 13.961 37.6871 14.1933 37.9089 14.3729C38.342 14.732 39.0074 15.3975 39.5144 15.9784C39.7046 16.2002 40.0003 16.5488 40.1799 16.7495C40.3594 16.9501 40.5284 17.2036 40.5601 17.2987C40.5918 17.4043 40.6657 17.4888 40.7186 17.4888C40.7714 17.4888 40.9193 17.7001 41.046 17.9641C41.1728 18.2282 41.3206 18.4395 41.3629 18.4395C41.4051 18.4395 41.4474 18.5134 41.4474 18.5979C41.4474 18.6824 41.5002 18.7563 41.5636 18.7563C41.6164 18.7563 41.6375 18.7986 41.6058 18.862C41.5741 18.9148 41.5847 18.9676 41.6481 18.9676C41.7009 18.9676 41.7854 19.0732 41.8276 19.2C41.8593 19.3373 41.9861 19.5591 42.0811 19.707C42.1868 19.8548 42.2713 20.0027 42.2818 20.0555C42.2818 20.0978 42.3663 20.2985 42.4508 20.5097C42.5353 20.721 42.6093 20.9111 42.6093 20.9217C42.6093 20.9428 42.7149 21.1857 42.8416 21.4709C42.9578 21.7455 43.074 22.0307 43.0951 22.1047C43.1268 22.2631 43.3486 22.9814 43.4226 23.1926C43.5071 23.3933 43.5282 23.4884 43.6127 23.9214C43.6444 24.1221 43.6972 24.3122 43.7183 24.3545C43.8239 24.534 44.1619 27.9563 44.1197 28.4739C44.0986 28.7379 44.0669 29.2555 44.0352 29.6357C43.9613 30.5969 43.8873 31.2307 43.8134 31.537C43.7711 31.6849 43.7289 31.8961 43.7183 32.0123C43.6972 32.1285 43.6127 32.4876 43.5176 32.8045C43.4331 33.1214 43.3064 33.5756 43.243 33.8079C43.1796 34.0403 43.0529 34.3572 42.9684 34.5262C42.8839 34.6846 42.8416 34.8748 42.8733 34.9487C42.9156 35.0121 42.8416 34.9593 42.7254 34.8114C42.5142 34.5579 42.5036 34.4206 42.4931 30.7976C42.4825 26.4142 42.4719 26.2241 42.2079 25.1678C42.1445 24.9565 42.1234 24.777 42.1551 24.777C42.1762 24.777 42.1656 24.7136 42.1128 24.6397C42.0706 24.5763 42.0283 24.4495 42.0178 24.365C41.9755 24.101 41.5213 23.0342 41.3734 22.8652C41.2995 22.7807 41.2361 22.6222 41.2361 22.5272C41.2361 22.4321 41.1939 22.3476 41.1305 22.3476C41.0777 22.3476 41.0249 22.2842 41.0249 22.2103C41.0249 22.1469 40.8559 21.8723 40.6552 21.6082C40.4439 21.3442 40.201 21.0273 40.0954 20.89C39.5356 20.1506 38.7539 19.4535 37.4864 18.5979C37.1062 18.3338 36.0605 17.8057 35.8492 17.7635C35.7647 17.7423 35.5535 17.6684 35.3739 17.605C35.0148 17.4466 34.9937 17.4466 34.0325 17.2353C33.1769 17.0452 33.3565 17.0663 31.1489 16.9818C29.48 16.9079 29.3744 16.8973 29.6702 16.76C29.8497 16.6755 30.0715 16.5382 30.1772 16.4537C30.2722 16.3586 30.3567 16.327 30.3567 16.3692C30.3567 16.4326 30.6419 16.2425 31.3496 15.6932C31.8988 15.2707 33.198 13.792 33.029 13.792C32.9868 13.792 33.029 13.7391 33.1347 13.6758C33.2297 13.6124 33.2931 13.5279 33.2614 13.4751C33.2297 13.4223 33.2509 13.3589 33.3142 13.3166C33.4304 13.2427 34.0536 11.9646 34.0536 11.7956C34.0536 11.7217 34.2649 11.8168 34.5184 11.9858C34.7719 12.1653 35.0042 12.2709 35.0465 12.2393ZM19.3294 17.9219C19.34 18.0909 19.3928 18.3444 19.4562 18.4712C19.5196 18.5979 19.8787 20.1295 20.2589 21.8723C22.4665 32.2024 25.4135 45.8809 25.4557 46.0288C25.4874 46.145 25.6141 46.2189 25.762 46.2189C25.9099 46.2189 26.0366 46.145 26.0683 46.0288C26.1 45.9337 27.0823 41.6665 28.2442 36.5542C29.4167 31.4419 30.5997 26.2557 30.8848 25.041C31.17 23.8158 31.6242 21.8512 31.8988 20.6576C32.1629 19.464 32.427 18.4395 32.4692 18.3867C32.5115 18.3233 32.5749 18.1543 32.6171 17.9853C32.691 17.6578 32.6594 17.6578 34.212 17.9641C34.8669 18.0909 36.916 18.9253 36.99 19.0943C37.0111 19.1472 37.0956 19.1788 37.1696 19.1788C37.2435 19.1788 37.328 19.2211 37.3491 19.2633C37.3702 19.3056 37.6237 19.5274 37.9089 19.7387C39.3454 20.8266 40.3066 22.0519 40.9615 23.6574C41.1516 24.1327 41.3523 24.6502 41.3946 24.8298C41.4474 24.9988 41.5002 25.2206 41.5213 25.3051C41.5424 25.3896 41.5847 25.5586 41.6058 25.6748C41.6269 25.791 41.6692 26.0234 41.7009 26.2029C41.7326 26.3719 41.7643 28.2943 41.7643 30.4702V34.4311L41.3629 34.8325C39.863 36.3852 37.5604 36.6493 35.5324 35.5296C35.2155 35.3501 34.624 34.9487 34.2332 34.6318L33.5044 34.0509L33.5466 39.554L33.5783 45.057L32.7861 45.3634C30.4623 46.2506 28.6456 46.6414 26.343 46.7154C24.4206 46.7893 23.058 46.652 21.2729 46.2189C19.2132 45.7119 17.1747 44.8247 15.3896 43.6417L14.6185 43.1347V38.2337V33.3326H14.3545H14.0904V37.9802V42.6382L13.858 42.5115C13.1715 42.1418 10.2985 38.9202 10.2879 38.5083C10.2773 38.3393 10.0344 37.9696 9.96047 38.0118C9.93934 38.0224 9.92878 38.0118 9.93934 37.9907C9.94991 37.9696 9.89709 37.8217 9.80203 37.6527C9.67528 37.3886 9.65415 36.512 9.66472 31.7799C9.67528 26.7416 9.68584 26.129 9.86541 25.4635C9.97103 25.0516 10.1083 24.5763 10.1823 24.4073C10.2457 24.2277 10.2985 24.0799 10.2985 24.0587C10.2879 24.0482 10.3513 23.9003 10.4358 23.7313C10.5308 23.5623 10.5625 23.4039 10.5308 23.3616C10.4886 23.3299 10.5203 23.2982 10.5942 23.2982C10.6682 23.2982 10.6893 23.2454 10.6576 23.1926C10.6259 23.1292 10.647 23.087 10.7104 23.087C10.7738 23.087 10.7949 23.0342 10.7632 22.9814C10.7315 22.918 10.7421 22.8757 10.7843 22.8757C10.8372 22.8757 10.9217 22.7912 10.9745 22.675C11.397 21.8829 11.6399 21.5554 12.4215 20.7527C13.2032 19.9393 14.4601 18.9676 14.7347 18.9676C14.7875 18.9676 14.8298 18.9148 14.8298 18.8514C14.8298 18.7986 14.8826 18.7775 14.9354 18.8092C14.9988 18.8408 15.041 18.8197 15.041 18.7458C15.041 18.6718 15.0727 18.6402 15.1044 18.6824C15.1467 18.7141 15.3685 18.6402 15.6114 18.524C15.8438 18.3972 16.1184 18.281 16.2135 18.2599C16.3402 18.2388 16.9951 18.017 16.9951 17.9958C16.9951 17.9747 18.1147 17.7846 18.5795 17.7423C18.9281 17.7107 19.2238 17.6684 19.2555 17.6367C19.2766 17.6156 19.3083 17.5945 19.3083 17.5945C19.3189 17.5945 19.3189 17.7423 19.3294 17.9219ZM28.7407 17.7529C28.8463 17.7846 28.8463 17.8691 28.7301 18.1437C28.6456 18.3338 28.5188 18.6507 28.4555 18.8408L28.3181 19.1788L25.7831 19.1577C23.4171 19.126 23.2481 19.1155 23.2164 18.9359C23.2059 18.8303 23.1531 18.6613 23.1108 18.5662C23.0686 18.4712 23.0158 18.2916 22.9946 18.186C22.9735 18.0698 22.9101 17.9219 22.8468 17.848C22.7517 17.7318 22.9418 17.7001 23.7763 17.679C25.1177 17.6367 28.5717 17.6895 28.7407 17.7529ZM22.0757 17.8585C22.1602 17.943 22.2341 18.0487 22.2341 18.0909C22.2341 18.2916 22.3714 18.7141 22.4665 18.8303C22.5193 18.9042 22.5299 18.9676 22.4982 18.9676C22.4559 18.9676 22.4876 19.0732 22.5616 19.2C22.6249 19.3373 22.6989 19.4852 22.7094 19.5485C22.7939 19.9393 23.1953 21.0378 23.3115 21.1752C23.4066 21.3019 23.4066 21.3125 23.3115 21.2491C23.227 21.2068 23.1319 21.2702 23.0474 21.4392C22.9841 21.5871 22.889 21.7139 22.8362 21.7139C22.7939 21.7139 22.7517 21.7667 22.7517 21.8195C22.7517 21.8829 22.5404 22.1997 22.2764 22.5377C21.5793 23.4144 21.4842 23.5412 21.3786 23.7207C21.2941 23.8475 21.2729 23.8264 21.2624 23.6151C21.2518 23.2771 21.2201 23.0764 21.0828 22.6434C21.0194 22.4532 20.9455 22.1469 20.9138 21.9779C20.8821 21.7984 20.8399 21.5554 20.8082 21.4287C20.7871 21.3125 20.7237 20.985 20.692 20.721C20.6498 20.4569 20.5758 20.2351 20.5441 20.2351C20.5019 20.2351 20.4702 20.1295 20.4808 19.9922C20.4913 19.8654 20.4596 19.6964 20.3962 19.6225C20.3434 19.5591 20.3223 19.4957 20.354 19.4957C20.3962 19.4957 20.3646 19.2845 20.1533 18.3867C19.9843 17.6684 19.9421 17.7001 20.9772 17.7001C21.6638 17.7001 21.9595 17.7423 22.0757 17.8585ZM31.8988 17.7846C31.8672 17.8374 31.8143 18.0275 31.7827 18.2071C31.751 18.3867 31.6559 18.8092 31.5714 19.1472C31.4869 19.4852 31.4024 19.8865 31.3707 20.045C31.339 20.2034 31.2968 20.383 31.2651 20.4252C31.2017 20.5308 31.0855 21.1963 31.0644 21.5765C31.0644 21.7139 31.0222 21.8195 30.9799 21.8195C30.9271 21.8195 30.9165 21.9145 30.9377 22.0307C30.9588 22.1469 30.9377 22.242 30.8848 22.242C30.8426 22.242 30.8109 22.3159 30.8215 22.411C30.8426 22.5166 30.7898 22.7595 30.7158 22.9708C30.6419 23.182 30.5785 23.5095 30.568 23.6996C30.568 24.0376 30.5574 24.0376 30.3778 23.858C30.2617 23.7524 30.0927 23.5095 29.9765 23.3194C29.8708 23.1398 29.7441 22.9814 29.7018 22.9814C29.6596 22.9814 29.6173 22.918 29.6173 22.844C29.6173 22.7701 29.5117 22.6011 29.3744 22.4532C29.0047 22.0519 28.4555 21.2174 28.4555 21.059C28.4555 20.985 28.6033 20.5731 28.7723 20.14C28.9519 19.707 29.1103 19.2528 29.142 19.1366C29.1632 19.0098 29.1843 18.9148 29.1948 18.9148C29.2054 18.9148 29.2265 18.7986 29.2582 18.6613C29.2793 18.524 29.3744 18.2493 29.4695 18.0592L29.6385 17.7001H30.8003C31.4341 17.7001 31.9305 17.7423 31.8988 17.7846ZM28.128 19.8865C28.128 19.9393 27.8745 20.6787 27.5788 21.5554L27.0295 23.1398H25.8148H24.6001L24.0509 21.5554C23.7551 20.6787 23.5016 19.9393 23.5016 19.8865C23.4911 19.8443 24.5368 19.8126 25.8148 19.8126C27.0929 19.8126 28.1386 19.8443 28.128 19.8865ZM23.6073 22.1786C23.6073 22.2103 23.6918 22.4532 23.8079 22.7173C23.9241 22.9814 23.9875 23.1926 23.9453 23.1926C23.9136 23.1926 23.9347 23.256 23.9875 23.3194C24.0403 23.3933 24.072 23.5517 24.0614 23.6679C24.0509 23.7841 24.0086 24.2594 23.9769 24.7242C23.9347 25.1889 23.8608 25.8332 23.7974 26.1501C23.7446 26.467 23.6495 27.2803 23.5967 27.9457C23.5333 28.6112 23.4277 29.7308 23.3432 30.4279C23.2587 31.1251 23.1848 31.7905 23.1742 31.9067C23.1531 32.1708 22.6461 30.2273 22.6249 29.8153C22.6249 29.6569 22.5721 29.4984 22.5193 29.4667C22.4771 29.4351 22.4559 29.3717 22.4771 29.3294C22.5299 29.2555 22.4454 28.8541 22.1602 27.7028C22.1285 27.5761 22.0863 27.3754 22.0651 27.2592C22.044 27.143 22.0018 26.9317 21.9595 26.7839C21.9278 26.636 21.875 26.3931 21.8539 26.2346C21.8328 26.0762 21.7588 25.7487 21.6849 25.4952C21.5264 24.8932 21.5264 24.608 21.706 24.4284C22.0229 24.101 23.0158 22.7912 23.3221 22.3159C23.4805 22.0519 23.6284 21.9885 23.6073 22.1786ZM28.4449 22.4849C28.54 22.5905 28.6773 22.749 28.7512 22.8335C28.8252 22.9074 28.878 23.0025 28.878 23.0342C28.8674 23.0975 28.973 23.2349 29.8075 24.27C30.2194 24.7875 30.3673 25.041 30.2933 25.1255C30.1983 25.2206 29.7335 27.1324 29.7863 27.2169C29.8075 27.2592 29.7758 27.3331 29.7124 27.3648C29.6596 27.4071 29.6279 27.5021 29.6596 27.5866C29.6913 27.6606 29.6702 27.7556 29.6173 27.7873C29.5645 27.819 29.5223 27.9246 29.5328 28.0302C29.5328 28.2204 29.5117 28.3366 29.3216 29.0548C29.2582 29.2872 29.1843 29.5935 29.1526 29.7414C29.1209 29.8892 29.0787 30.1216 29.047 30.2695C29.0153 30.4174 28.9625 30.6498 28.9308 30.7976C28.8252 31.2941 28.7723 31.537 28.7301 31.7483C28.6984 31.8644 28.635 32.044 28.5717 32.1391C28.4555 32.3503 28.4555 32.382 28.4027 31.537C28.3921 31.2729 28.3393 30.8188 28.3076 30.5336C28.2653 30.2378 28.2125 29.7625 28.1914 29.4773C28.1597 29.1816 28.1175 28.7062 28.0752 28.4211C27.9801 27.4916 27.9485 27.1747 27.8745 26.3086C27.8323 25.8438 27.7689 25.2734 27.7266 25.041C27.6633 24.6608 27.6633 23.4144 27.7266 22.9497C27.7372 22.8546 27.8006 22.7701 27.8534 22.7701C27.9062 22.7701 27.9273 22.7067 27.8956 22.6222C27.864 22.5483 27.9168 22.3687 28.0118 22.2314C28.128 22.0624 28.1914 22.0307 28.2231 22.1364C28.2548 22.2103 28.3498 22.3687 28.4449 22.4849ZM27.0718 24.9565C27.1457 25.6431 27.3992 28.1253 27.6527 30.4808L28.1069 34.7586L27.9168 35.5508C27.8217 35.9838 27.3253 38.1492 26.8183 40.3567C26.3113 42.5643 25.8571 44.4444 25.8148 44.5289C25.7092 44.719 25.8465 45.2894 24.6001 39.4695C24.0509 36.8816 23.5967 34.6107 23.5967 34.41C23.5967 34.2093 23.8396 31.8116 24.1248 29.0865C24.4206 26.3614 24.653 24.0376 24.653 23.9214C24.653 23.7313 24.7375 23.7207 25.8043 23.7207H26.945L27.0718 24.9565ZM42.567 35.6036C42.8099 35.8043 43.0634 35.9733 43.1268 35.9733C43.1902 35.9733 43.243 36.0155 43.243 36.0578C43.243 36.1528 44.0563 36.5331 44.1197 36.4803C44.1408 36.4591 44.2359 36.512 44.3309 36.5859C44.426 36.6704 44.5528 36.7021 44.6161 36.6598C44.6689 36.6281 44.7218 36.6387 44.7218 36.6915C44.7218 36.8077 44.7851 36.8183 45.8308 36.8711C46.4118 36.8922 46.9082 36.85 47.4152 36.7126C48.4503 36.4486 49.063 36.1845 48.9785 36.0366C48.9468 35.9733 48.9468 35.9521 48.989 35.9944C49.0418 36.0366 49.2425 35.9733 49.4432 35.8571C49.6545 35.7409 49.834 35.667 49.8552 35.6881C49.908 35.7303 49.908 44.4972 49.8552 44.8458C49.7601 45.4901 49.4432 46.5041 49.1897 46.99C49.1052 47.1484 49.063 47.2752 49.0947 47.2752C49.1686 47.2752 48.2708 48.6906 47.9222 49.1236C47.3413 49.8419 45.9259 51.1833 45.4717 51.4368C45.3766 51.4896 45.2816 51.5636 45.2499 51.6058C45.1971 51.6692 44.6267 52.0283 44.1408 52.3135C43.6866 52.567 42.4403 53.1691 42.2184 53.243C42.0811 53.2747 41.9227 53.2747 41.8488 53.2219C41.7748 53.1796 41.6903 53.1374 41.6586 53.1268C41.6269 53.1268 41.4685 53.0529 41.2889 52.9789C41.1199 52.905 40.9404 52.8416 40.8981 52.8522C40.8453 52.8628 40.8136 52.8311 40.8136 52.7888C40.8136 52.736 40.6129 52.6093 40.37 52.4931C40.1165 52.3874 39.8207 52.2079 39.7151 52.1128C39.5989 52.0072 39.4616 51.9227 39.4194 51.9227C39.3666 51.9227 39.2292 51.8276 39.1025 51.7114C38.9863 51.6058 38.7328 51.4368 38.5427 51.3523C38.3526 51.2573 38.173 51.1094 38.1307 51.0249C38.0991 50.9404 38.0251 50.8664 37.9617 50.8664C37.8139 50.8664 36.3774 49.4405 36.3774 49.2926C36.3774 49.2398 36.2823 49.1342 36.1661 49.0708C36.0499 49.0074 35.9549 48.9018 35.9549 48.8384C35.9549 48.7751 35.8387 48.5744 35.7014 48.3948C35.564 48.2152 35.4479 48.0146 35.4267 47.9617C35.4162 47.8984 35.3105 47.7399 35.2049 47.6026C35.0993 47.4653 35.0359 47.3174 35.0676 47.2646C35.0993 47.2118 35.0676 47.1696 34.9937 47.1696C34.9197 47.1696 34.888 47.1379 34.9303 47.1062C34.962 47.0639 34.9303 46.9055 34.8458 46.7471C34.7613 46.5781 34.5817 45.976 34.4444 45.4056C34.2015 44.4127 34.1909 44.212 34.1698 39.9553C34.1592 37.3041 34.1909 35.5508 34.2437 35.5508C34.2965 35.5508 34.4022 35.6247 34.4761 35.7092C34.55 35.7937 34.6451 35.836 34.6979 35.8043C34.7507 35.7726 34.793 35.7831 34.793 35.836C34.793 35.8782 35.0148 36.0366 35.3 36.174C35.5746 36.3007 35.8809 36.4591 35.9865 36.512C36.0922 36.5648 36.2189 36.5859 36.2717 36.5542C36.3351 36.512 36.3774 36.5331 36.3774 36.5859C36.3774 36.8605 38.5638 36.9873 39.3877 36.7655C40.2749 36.5331 41.0037 36.1528 41.6058 35.6141C41.8382 35.4029 42.0494 35.2339 42.0706 35.2339C42.0917 35.2339 42.3135 35.4029 42.567 35.6036Z" fill="#28D07E"/>
<path d="M43.3064 43.4938L40.9192 45.9549L39.9264 44.8986C38.9757 43.8952 38.9124 43.8529 38.7434 44.0219C38.5638 44.1909 38.5849 44.2332 39.0285 44.7085C39.282 44.9937 39.8102 45.5641 40.201 45.9971L40.9192 46.7682L42.5247 45.0993C43.412 44.1698 44.5844 42.9551 45.1337 42.3953C45.9787 41.5186 46.1054 41.339 45.9893 41.2017C45.9153 41.1172 45.8203 41.0433 45.778 41.0433C45.7358 41.0433 44.6267 42.1524 43.3064 43.4938Z" fill="#28D07E"/>
<path d="M23.6389 20.0978C23.7656 20.4147 24.6529 23.0131 24.6529 23.0448C24.6529 23.0659 25.1704 23.087 25.8042 23.087H26.9449L27.452 21.6294C27.7266 20.8372 27.9801 20.119 28.0012 20.045C28.0435 19.95 27.5681 19.9183 25.8148 19.9183C23.7551 19.9183 23.5755 19.9288 23.6389 20.0978Z" fill="#28D07E"/>
<path d="M24.7481 23.9531C24.7481 24.0271 24.4946 26.4459 24.1883 29.3189L23.639 34.5473L24.6953 39.48C25.2762 42.1946 25.7727 44.4022 25.7832 44.3916C25.7938 44.3811 26.3008 42.1946 26.9134 39.5434L28.0225 34.7163L27.4415 29.3506C27.1352 26.4036 26.8712 23.9531 26.8712 23.9003C26.8712 23.8581 26.3959 23.8264 25.8149 23.8264C25.0439 23.8264 24.7587 23.8581 24.7481 23.9531Z" fill="#28D07E"/>
<path d="M41.553 36.4063C41.1833 36.7232 40.2221 37.188 39.5461 37.3886C38.3948 37.7372 36.4724 37.5577 35.4056 37.019C35.1943 36.9133 34.962 36.8183 34.8986 36.8183C34.8247 36.8183 34.793 38.0435 34.793 40.568C34.793 44.5289 34.8563 45.2155 35.3317 46.483C36.1555 48.68 38.3209 50.8136 41.1411 52.1973L41.9544 52.5881L42.7782 52.1973C45.44 50.9298 47.6159 48.8384 48.5348 46.6626C49.0946 45.3105 49.158 44.6874 49.158 40.568C49.158 38.0435 49.1263 36.8183 49.0524 36.8183C48.989 36.8183 48.7566 36.9133 48.5243 37.0295C47.468 37.5682 45.5562 37.7372 44.4049 37.3886C43.7183 37.188 42.905 36.7866 42.4297 36.438C42.0283 36.1317 41.891 36.1317 41.553 36.4063ZM46.0843 41.0855L46.3167 41.3285L43.6549 44.0959C42.1973 45.6063 40.9615 46.8527 40.9192 46.8527C40.8664 46.8527 40.2749 46.2506 39.6095 45.5112L38.3842 44.1804L38.6166 43.9269C38.7434 43.8001 38.8701 43.6839 38.9124 43.6839C38.944 43.6839 39.3982 44.1592 39.9158 44.7402C40.4439 45.3211 40.8875 45.7964 40.9192 45.7964C40.9509 45.7964 42.0389 44.6768 43.3486 43.3142C44.6478 41.9517 45.7463 40.832 45.778 40.832C45.8203 40.832 45.947 40.9482 46.0843 41.0855Z" fill="#28D07E"/>
<path d="M18.0514 18.5557C14.5129 19.0838 11.5871 21.7561 10.5837 25.3579C10.3618 26.1818 10.3513 26.3931 10.3196 32.3292L10.2773 38.4555L10.9533 39.3533C11.3336 39.8497 12.1575 40.7475 12.7807 41.3602L13.932 42.4692L13.9637 37.8429L13.9848 33.227H14.3545H14.7242L14.7453 38.1597L14.777 43.0924L15.622 43.6628C17.4071 44.8564 19.8998 45.8704 22.1708 46.3246C23.6284 46.6203 26.3218 46.7259 27.79 46.5464C29.1948 46.3774 30.8003 45.976 32.2474 45.4479L33.4515 45.0042L33.4304 39.4272C33.4199 36.2796 33.441 33.8608 33.4938 33.8608C33.5466 33.8608 33.7579 34.0298 33.9585 34.241C34.8458 35.16 36.3985 35.9627 37.6449 36.1317C38.5638 36.2585 39.9052 35.8782 40.8453 35.2022L41.1516 34.991L41.0988 30.597C41.0671 26.9529 41.0249 26.0868 40.877 25.5164C39.8841 21.6505 36.8632 18.9676 32.9868 18.5029L32.5009 18.45L31.846 21.3231C29.9025 29.752 26.1317 46.2506 26.1317 46.2929C26.1317 46.3034 25.9733 46.3246 25.7726 46.3246C25.424 46.3246 25.4029 46.3034 25.2973 45.8176C25.1916 45.3106 21.3786 27.5761 20.1216 21.7667L19.4245 18.4923L19.0548 18.4712C18.8541 18.4712 18.3999 18.5029 18.0514 18.5557Z" fill="#28D07E"/>
</svg>
