<svg width="50" height="52" viewBox="0 0 50 52" fill="none" xmlns="http://www.w3.org/2000/svg">
<path d="M14.6043 4.03155C14.6043 8.75787 14.6043 8.74734 13.6674 9.69472C12.6885 10.6631 12.699 10.6631 7.95165 10.7158L3.86743 10.7473V28.9579C3.86743 41.5369 3.89901 47.3053 3.98322 47.6105C4.10954 48.1369 4.34112 48.4316 4.82533 48.7263L5.18322 48.9474H21.699H38.2043L38.6148 48.7158C39.0675 48.4632 39.3096 48.1474 39.4569 47.6526C39.5412 47.3369 39.5096 47.2842 38.4043 46.1579C37.1938 44.9263 36.9517 44.5053 37.0569 43.8316C37.0885 43.6316 37.099 43.4737 37.0885 43.4737C37.0675 43.4737 36.5622 43.7053 35.9622 43.9895C35.3622 44.2842 34.3938 44.6421 33.8148 44.8105C32.8359 45.0737 32.6254 45.0948 30.7622 45.0948C29.0464 45.0948 28.6464 45.0526 27.9411 44.8632C26.7832 44.5474 25.4359 43.979 24.6359 43.4737L23.9622 43.0526H16.4674C8.27796 43.0526 8.62533 43.0737 8.38323 42.4526C8.27796 42.1579 8.48849 41.6421 8.76217 41.5369C8.85691 41.5053 11.8674 41.4737 15.4569 41.4737C19.0359 41.4737 21.9727 41.4526 21.9727 41.4211C21.9727 41.3895 21.6464 40.9369 21.2464 40.4105C20.8043 39.8316 20.299 38.9895 19.9517 38.2526L19.3938 37.0526H14.1201C9.14112 37.0526 8.82533 37.0421 8.59375 36.8632C8.27796 36.6 8.27796 36.0737 8.59375 35.7579C8.82533 35.5263 8.82533 35.5263 13.9201 35.4947L19.0253 35.4632L18.9517 35.179C18.899 35.0211 18.8674 34.0526 18.8674 33.0211V31.1579H13.899C11.1727 31.1579 8.85691 31.1263 8.76217 31.0947C8.53059 31 8.26744 30.4526 8.34112 30.2211C8.3727 30.1158 8.49902 29.9368 8.61481 29.8316C8.82533 29.6421 9.1306 29.6316 14.0885 29.5789L19.3517 29.5263L19.7096 28.6526C20.0885 27.7263 20.7622 26.5789 21.3832 25.7895L21.7517 25.3158L15.299 25.2632C9.16217 25.2105 8.82533 25.2 8.61481 25.0105C8.49902 24.9053 8.3727 24.7263 8.34112 24.621C8.26744 24.3895 8.53059 23.8421 8.76217 23.7474C8.85691 23.7158 12.2043 23.6842 16.2043 23.6842H23.4675L24.1938 23.2105C28.6359 20.2526 34.4885 20.621 38.5938 24.1158C39.0569 24.5158 39.4675 24.8421 39.4991 24.8421C39.5306 24.8421 39.5412 19.5263 39.5306 13.021C39.4991 1.32629 39.4991 1.2105 39.278 0.842075C39.1622 0.642075 38.9096 0.368389 38.7096 0.242077L38.3622 -3.05176e-05H26.4885H14.6043V4.03155ZM34.6569 5.95787C34.7411 5.99998 34.899 6.1684 34.9833 6.33682C35.1833 6.72629 35.0359 7.17892 34.6464 7.35787C34.4569 7.44208 32.1517 7.47366 26.5622 7.47366C18.8043 7.47366 18.7306 7.47366 18.4569 7.25261C18.2569 7.09472 18.1832 6.93682 18.1832 6.68419C18.1832 6.43156 18.2569 6.27366 18.4569 6.11576C18.7306 5.89471 18.8043 5.89471 26.6148 5.89471C30.9411 5.89471 34.5622 5.92629 34.6569 5.95787ZM34.8359 12.1052C35.0885 12.3684 35.1411 12.4842 35.0885 12.7158C35.0464 12.8737 34.9201 13.0842 34.7938 13.1789C34.5938 13.3579 33.8148 13.3684 21.7622 13.3684C14.7095 13.3684 8.85691 13.3368 8.76217 13.3052C8.48849 13.2 8.27796 12.6842 8.38323 12.3895C8.62533 11.7473 7.75165 11.7895 21.7411 11.7895H34.5201L34.8359 12.1052ZM34.9096 18.0631C35.1938 18.4316 35.1833 18.6631 34.878 19.021L34.6254 19.3158H21.7201H8.82533L8.59375 19.0842C8.27796 18.7684 8.27796 18.2421 8.59375 17.9789C8.82533 17.8 9.36217 17.7895 21.7622 17.7895H34.699L34.9096 18.0631Z" fill="#28D07E"/>
<path d="M8.42538 4.45259C6.0359 6.84207 4.078 8.8526 4.078 8.92628C4.078 9.03154 4.95169 9.0526 8.13064 9.03154L12.1833 8.99996L12.5727 8.59996L12.9727 8.21049L13.0043 4.15785C13.0254 0.978904 13.0043 0.105218 12.8991 0.105218C12.8254 0.105218 10.8149 2.06312 8.42538 4.45259Z" fill="#28D07E"/>
<path d="M1.97272 3.12626C1.58324 3.27363 1.19377 3.64205 1.01482 4.04205C0.825346 4.4631 0.814819 5.27363 0.814819 27.5263V50.5895L1.0464 51.0526C1.18324 51.3158 1.4464 51.6316 1.6464 51.7579L2.00429 52H18.5938C34.5517 52 35.2043 51.9895 35.5517 51.8C35.8991 51.6211 36.3833 50.9474 36.3938 50.6632C36.3938 50.5579 33.057 50.5263 20.5833 50.5053L4.76219 50.4737L4.30956 50.2316C3.25693 49.6737 2.59377 48.7895 2.39377 47.6632C2.32008 47.2947 2.29903 40.4737 2.30956 28.0947C2.34114 9.74732 2.35166 9.08416 2.54114 8.5789C2.70956 8.1368 3.14114 7.65258 5.14114 5.63153C6.46746 4.29469 7.55167 3.16837 7.55167 3.12626C7.55167 3.04205 2.20429 3.04205 1.97272 3.12626Z" fill="#28D07E"/>
<path d="M29.6885 22.8526C26.6043 23.1473 23.8149 24.8631 22.0675 27.5158C20.9517 29.2 20.3938 31.1052 20.3938 33.2105C20.3938 36.0842 21.3727 38.4421 23.3938 40.4842C25.0043 42.1052 26.6149 42.9789 28.8254 43.4316C29.9938 43.6631 32.3096 43.5895 33.478 43.2737C34.4359 43.021 35.8043 42.4 36.6043 41.8631L37.1833 41.4737L38.1517 42.4421L39.1307 43.4105L38.8675 43.6842C38.7201 43.8316 38.6043 44 38.6043 44.0631C38.6043 44.1158 38.9096 44.4737 39.2886 44.8421L39.9728 45.5263L41.5517 43.9474L43.1307 42.3684L42.478 41.7158C42.1201 41.3474 41.7517 41.0526 41.6675 41.0526C41.5833 41.0526 41.3833 41.1684 41.2359 41.3158L40.9622 41.5789L39.9938 40.6L39.0149 39.621L39.2254 39.3579C39.9201 38.4631 40.6675 36.8105 40.9833 35.421C41.278 34.1368 41.2359 31.9473 40.8886 30.6316C39.5622 25.5579 34.9096 22.3263 29.6885 22.8526ZM32.8675 26.5684C34.0464 26.9473 34.9201 27.4947 35.8149 28.4316C38.3833 31.1263 38.4043 35.221 35.857 37.9474C33.1412 40.8421 28.678 40.9158 25.878 38.0947C24.3517 36.5684 23.6464 34.5473 23.8885 32.4C24.057 30.821 24.7306 29.4526 25.9306 28.2631C26.9412 27.2421 28.4149 26.4947 29.8149 26.2737C30.5622 26.1579 32.0359 26.3052 32.8675 26.5684Z" fill="#28D07E"/>
<path d="M31.5517 31.6315L29.6991 33.4736L29.1307 32.8842C28.457 32.2 28.1202 31.9999 27.6359 31.9999C27.2254 31.9999 26.6675 32.3157 26.4991 32.6315C26.3201 32.9578 26.3517 33.7263 26.5412 34.021C26.8254 34.4631 29.1202 36.5157 29.3938 36.5894C29.5412 36.621 29.8359 36.621 30.0465 36.5789C30.3833 36.5157 30.7728 36.1684 32.7096 34.1894C33.9517 32.9157 35.0254 31.7684 35.0991 31.6421C35.2781 31.3368 35.2675 30.7894 35.0781 30.421C34.8675 30.021 34.4149 29.7894 33.857 29.7894C33.4149 29.7894 33.3728 29.8315 31.5517 31.6315Z" fill="#28D07E"/>
<path d="M42.657 45.0526L41.078 46.6316L43.6043 49.1684C44.9938 50.5684 46.278 51.7684 46.4675 51.8526C46.657 51.9368 47.0885 52 47.4254 52C48.2675 52 48.8675 51.6737 49.2885 51C49.5622 50.5684 49.6043 50.3895 49.6043 49.8C49.5938 49.3579 49.5306 48.9895 49.4254 48.7895C49.3306 48.6105 48.1201 47.3474 46.7412 45.9684L44.2359 43.4737L42.657 45.0526Z" fill="#28D07E"/>
</svg>
