<svg width="28" height="28" viewBox="0 0 28 28" fill="none" xmlns="http://www.w3.org/2000/svg">
<path d="M20.1679 0.0974827C17.4397 0.671961 15.455 2.70178 14.952 5.43192C14.8317 6.08846 14.87 7.43438 15.0231 8.0198L15.1324 8.42467L14.8536 8.54504C14.7005 8.61616 14.039 8.91161 13.3829 9.20158C12.7268 9.49703 12.1855 9.72682 12.1746 9.71588C11.513 8.76936 11.2396 8.46844 10.6 7.97603C9.77984 7.3359 8.70823 6.8599 7.72409 6.6903C7.13361 6.58634 5.99639 6.58634 5.41137 6.6903C2.76515 7.14988 0.649256 9.20705 0.118916 11.8442C-0.0396388 12.6101 -0.0396388 13.7372 0.118916 14.5032C0.616451 16.9652 2.4535 18.8966 4.92477 19.5586C5.61367 19.7446 6.94225 19.7939 7.68582 19.668C8.60981 19.5039 9.49007 19.1482 10.3047 18.5957C10.6929 18.3385 11.4693 17.6163 11.7208 17.2826L11.8575 17.0965L13.5742 18.0431C14.5146 18.5628 15.291 18.9951 15.2965 19.0005C15.3074 19.006 15.2527 19.192 15.1762 19.4163C14.7497 20.6638 14.7716 22.3325 15.2363 23.6346C16.0236 25.8505 17.9482 27.4864 20.2827 27.9186C20.8787 28.028 22.005 28.028 22.59 27.9131C23.9787 27.6505 25.1378 27.0432 26.111 26.0639C27.2045 24.9696 27.8934 23.4924 27.9754 22.0644C28.0027 21.6322 27.9918 21.5501 27.8934 21.3914C27.6528 21.0139 27.1443 20.8826 26.7398 21.096C26.5101 21.2164 26.3024 21.5884 26.3024 21.8729C26.3024 22.4146 25.9306 23.4541 25.5096 24.0888L25.3018 24.3951L25.1214 24.1271C24.6075 23.3556 23.853 23.0328 22.5572 23.0219L22.1198 23.0164L22.3713 22.9179C23.6725 22.4091 24.2849 20.8279 23.678 19.5367C23.4593 19.0662 22.9782 18.5847 22.4916 18.3549C22.1362 18.1853 22.0925 18.1798 21.4364 18.1798C20.7803 18.1798 20.742 18.1853 20.3921 18.3549C19.7469 18.6723 19.3205 19.1537 19.0799 19.8267C18.9323 20.2589 18.9542 21.096 19.1291 21.5446C19.3642 22.1355 19.911 22.6936 20.4741 22.9015L20.7365 23.0055L20.0367 23.0383C19.6485 23.0602 19.2057 23.1094 19.0526 23.1586C18.5222 23.3173 17.9427 23.7878 17.6365 24.3021C17.5053 24.521 16.8219 23.1805 16.6524 22.3817C16.6086 22.1738 16.5704 21.7361 16.5704 21.4024C16.5704 19.6461 17.5326 18.0212 19.1072 17.1403C19.5501 16.8941 20.3374 16.637 20.7803 16.5932C21.5512 16.5166 21.8738 16.2594 21.8738 15.7123C21.8738 15.209 21.5184 14.8698 20.9935 14.8698C19.9875 14.8698 18.5332 15.4059 17.5545 16.1336C17.1663 16.4236 16.1876 17.3975 16.1876 17.4959C16.1876 17.5288 12.8361 15.7178 12.6994 15.6084C12.694 15.6029 12.7268 15.488 12.776 15.3567C13.0056 14.7002 13.0822 14.2843 13.1095 13.4199C13.1368 12.5883 13.104 12.2217 12.9291 11.4229C12.9017 11.2916 12.9509 11.2642 14.3561 10.635C15.1598 10.2794 15.8323 10.0113 15.8541 10.0387C15.876 10.0606 16.0127 10.2521 16.1603 10.46C16.882 11.4886 18.134 12.4077 19.3806 12.8126C20.6491 13.2284 22.2674 13.2284 23.5085 12.8126C25.7611 12.0576 27.4123 10.1919 27.8879 7.87208C28.0301 7.16629 28.0301 6.74501 27.8879 6.50975C27.5489 5.95715 26.696 5.98998 26.4172 6.56993C26.3516 6.70124 26.3024 6.89273 26.3024 6.99669C26.3024 7.53286 25.9251 8.57239 25.5096 9.20158L25.3073 9.50797L25.0777 9.19064C24.7879 8.79671 24.3778 8.49033 23.9131 8.32072C23.6069 8.21129 23.4593 8.19488 22.7595 8.18941C22.0268 8.18941 21.9776 8.18394 22.1745 8.11828C22.5736 7.99244 22.8743 7.80095 23.1969 7.47815C24.52 6.15412 23.9186 3.83979 22.1253 3.35286C21.666 3.22702 20.9334 3.25984 20.5069 3.42398C19.9055 3.65924 19.3642 4.20089 19.1291 4.80273C18.9651 5.22401 18.9268 6.05017 19.058 6.45503C19.315 7.24289 19.8563 7.80642 20.6217 8.08545L20.917 8.18941L20.1461 8.19488C19.5228 8.19488 19.2986 8.21676 19.0088 8.3043C18.5605 8.44656 18.0411 8.82954 17.7787 9.218L17.5873 9.5025L17.4616 9.32742C17.2046 8.9882 16.9586 8.49033 16.7836 7.97603C16.625 7.51098 16.6032 7.3742 16.5868 6.6903C16.5649 6.0064 16.5758 5.86961 16.6961 5.39909C17.057 3.99846 18.0138 2.80573 19.2658 2.18749C19.8125 1.9194 20.1625 1.80997 20.8185 1.71149C21.409 1.62395 21.6059 1.53094 21.7589 1.28474C21.9066 1.03853 21.912 0.628191 21.7644 0.387457C21.5293 -0.00646973 21.0591 -0.0940094 20.1679 0.0974827ZM7.54913 8.38637C9.32058 8.75842 10.764 10.1153 11.2779 11.8879C11.3873 12.26 11.4037 12.4515 11.4037 13.1737C11.4037 13.8959 11.3873 14.0874 11.2779 14.4594C11.1412 14.9299 10.7968 15.6576 10.5726 15.9531L10.4359 16.1391L10.2555 15.8655C10.0149 15.5099 9.68143 15.2309 9.24403 15.0175C8.89958 14.8479 8.85585 14.8424 7.98653 14.8096C7.48899 14.7932 7.12814 14.7767 7.18828 14.7713C7.37964 14.7494 7.97012 14.4321 8.21616 14.2187C8.74103 13.7536 9.02534 13.108 9.02534 12.3749C9.02534 11.3408 8.5278 10.5475 7.60927 10.0934C7.25936 9.92378 7.22109 9.91831 6.565 9.91831C5.89797 9.91831 5.87064 9.92378 5.49885 10.1043C3.50871 11.0782 3.66727 13.967 5.75035 14.7002L6.04013 14.8041L5.14347 14.826C4.26322 14.8424 4.23041 14.8479 3.88597 15.012C3.47044 15.209 3.08772 15.5372 2.85809 15.8819L2.69407 16.1336L2.55738 15.9531C1.70447 14.815 1.45297 13.0533 1.9341 11.6363C2.49724 9.99491 3.87503 8.75294 5.54259 8.39184C6.01279 8.28789 7.068 8.28789 7.54913 8.38637Z" fill="#343A40"/>
<path d="M25.1815 0.0373311C25.1214 0.0646873 25.0011 0.163169 24.9081 0.261651C24.7496 0.425787 24.7441 0.453144 24.7277 1.02762L24.7058 1.61851L24.1099 1.6404L23.5139 1.65681L23.3171 1.85925C23.1422 2.03432 23.1093 2.09998 23.0875 2.37354C23.0547 2.75105 23.164 2.99726 23.4483 3.17234C23.5959 3.26535 23.7545 3.2927 24.1755 3.31459L24.7168 3.34194V3.85624C24.7168 4.25017 24.7386 4.4143 24.8152 4.54014C25.1214 5.06538 25.9579 5.05443 26.2695 4.52373C26.3461 4.39789 26.3789 4.2064 26.4007 3.8453L26.4281 3.34194L26.9311 3.31459C27.7129 3.27082 27.9972 3.03556 27.9972 2.42825C27.9972 2.14375 27.9808 2.09998 27.784 1.8866L27.5653 1.65681L26.9912 1.6404L26.4117 1.61851V1.25741C26.4062 0.671992 26.3406 0.43673 26.1219 0.217881C25.9469 0.0482736 25.8868 0.0209179 25.608 0.0045042C25.433 -0.000967026 25.2416 0.00997543 25.1815 0.0373311Z" fill="#343A40"/>
<path d="M25.0777 14.9737C24.777 15.1762 24.7168 15.3348 24.7168 15.9476V16.5111H24.1591C23.6999 16.5111 23.5687 16.533 23.4374 16.6151C23.1805 16.7847 23.0766 16.9926 23.0766 17.3482C23.0766 17.6382 23.093 17.682 23.2898 17.8954L23.5085 18.1251L24.1099 18.1416L24.7168 18.1634V18.7325V19.3069L24.9246 19.5312C25.1159 19.7337 25.1706 19.761 25.4385 19.7829C25.8158 19.8103 26.0891 19.6954 26.2532 19.4328C26.3406 19.285 26.3735 19.1209 26.3953 18.6996L26.4281 18.1525H26.953C27.5325 18.1525 27.6966 18.0868 27.8934 17.7914C28.0355 17.578 28.0355 17.0856 27.8934 16.8722C27.6966 16.5768 27.5325 16.5111 26.953 16.5111H26.4281L26.3953 15.964C26.3625 15.3567 26.2696 15.1379 25.9853 14.9628C25.7611 14.8315 25.2854 14.8369 25.0777 14.9737Z" fill="#343A40"/>
</svg>
