<svg width="29" height="29" viewBox="0 0 29 29" fill="none" xmlns="http://www.w3.org/2000/svg">
<path d="M5.63862 0.147938C4.75766 0.471691 4.14922 1.18903 3.97176 2.1222C3.93374 2.33803 3.90839 5.37242 3.90839 10.5334V18.6146L4.18091 18.8177C4.49781 19.0526 5.15061 19.3763 5.4168 19.4271C5.57524 19.4588 5.61327 19.4398 5.6513 19.3255C5.72101 19.097 6.13931 18.678 6.41184 18.5574C6.74775 18.4051 7.28646 18.4051 7.61603 18.5574C7.75546 18.6272 8.79487 19.3001 9.92301 20.0683C11.8561 21.3696 11.9892 21.4712 12.1666 21.7823C12.4708 22.3409 12.3948 23.0265 11.9701 23.4772C11.7673 23.693 7.92659 26.2767 7.55899 26.4418C7.41322 26.5052 7.16604 26.5624 7.0076 26.5624C6.38649 26.5624 5.67031 25.9847 5.58158 25.407C5.55623 25.2674 5.50553 25.1467 5.4675 25.134C5.27103 25.0769 4.07951 24.7087 3.99712 24.677C3.92106 24.6516 3.90839 24.7659 3.90839 25.3435C3.90839 26.2005 3.98444 26.6068 4.22528 27.1147C4.45344 27.5781 4.89709 28.0034 5.4168 28.2573L5.77805 28.4351H14.2391H22.7001L23.0614 28.2573C23.5304 28.0288 23.9931 27.6035 24.2085 27.2162C24.5698 26.537 24.5698 26.5751 24.5698 21.4522V16.7419L24.2846 16.5387C23.9804 16.3165 23.1121 15.8976 22.9727 15.8976C22.9283 15.9039 22.8079 16.0499 22.7001 16.2277C22.3008 16.9069 21.4706 17.1354 20.7607 16.7482C20.5706 16.6466 19.5439 15.9674 18.4664 15.2437C17.0404 14.2725 16.4764 13.8598 16.3559 13.6821C16.0454 13.2123 16.0581 12.5267 16.3813 12.057C16.6411 11.6697 20.7291 8.9464 21.1727 8.85118C21.9523 8.69882 22.7762 9.25111 22.8966 10.0065C22.9346 10.216 22.941 10.216 23.6381 10.4255C24.0311 10.5398 24.405 10.6477 24.4684 10.6731C24.5825 10.7112 24.5888 10.6794 24.5444 10.0827C24.4684 8.98449 24.2149 7.71487 23.955 7.08641L23.8726 6.88327H21.8445C19.9558 6.88327 19.7847 6.87692 19.4235 6.74996C18.6186 6.47699 18.0608 5.91836 17.7693 5.07406C17.7312 4.96614 17.6869 3.98219 17.6679 2.75701L17.6298 0.636742L17.1672 0.490734C16.9137 0.414557 16.432 0.281248 16.0897 0.20507C15.4876 0.0717602 15.3609 0.0654125 10.7216 0.0463676C6.19635 0.0273228 5.95551 0.0336723 5.63862 0.147938ZM18.8847 8.83213C19.0685 9.04162 19.0812 9.26381 18.9101 9.4606L18.7516 9.64469L13.244 9.66373C10.2209 9.67008 7.64772 9.66373 7.53364 9.64469C7.11534 9.56851 6.94422 9.15589 7.21675 8.87022L7.34984 8.72422H13.0666C18.4284 8.72422 18.7897 8.73056 18.8847 8.83213ZM15.3419 13.5615C15.5764 13.7773 15.5891 14.0439 15.3672 14.2471C15.2341 14.374 15.1644 14.374 11.311 14.374H7.38787L7.23576 14.2153C7.14703 14.1328 7.07731 13.9868 7.07731 13.8979C7.07731 13.809 7.14703 13.663 7.23576 13.5805L7.38787 13.4218H11.2857H15.1834L15.3419 13.5615ZM21.2424 18.3416C21.4326 18.5257 21.4452 18.7479 21.2804 18.951L21.16 19.1034L15.4306 19.1224C11.4251 19.1351 9.65682 19.1161 9.54274 19.0653C9.37796 19.0018 9.23219 18.7733 9.23219 18.5892C9.23219 18.5384 9.3019 18.4241 9.39063 18.3416L9.54274 18.1829H15.3165H21.0903L21.2424 18.3416ZM21.0586 22.944C21.4072 23.0773 21.5086 23.4264 21.2614 23.6867L21.1283 23.8327H17.2749H13.4215L13.2884 23.693C13.0603 23.4455 13.1363 23.1027 13.4405 22.9693C13.6877 22.8614 20.7798 22.836 21.0586 22.944Z" fill="white"/>
<path d="M18.6249 2.96016C18.6439 4.73763 18.6503 4.83285 18.7834 5.08043C18.9608 5.41688 19.3601 5.75968 19.6834 5.8549C20.0383 5.96281 23.429 5.96281 23.429 5.84855C23.429 5.74698 22.8903 4.84555 22.5037 4.29961C22.0854 3.71559 21.0333 2.63641 20.4312 2.17935C19.9052 1.77942 18.8024 1.10652 18.6756 1.10652C18.6249 1.10652 18.6123 1.58897 18.6249 2.96016Z" fill="white"/>
<path d="M21.2741 9.78435C21.1283 9.84148 17.3953 12.3363 17.2369 12.4886C17.1292 12.5839 17.0911 12.6918 17.0911 12.8822C17.0911 13.0727 17.1292 13.1806 17.2369 13.2758C17.4587 13.4789 21.0206 15.8404 21.2488 15.9357C21.7178 16.1324 22.0347 15.796 22.0347 15.0977V14.7359L22.3706 14.7803C22.8205 14.8438 23.7395 15.1548 24.2529 15.4278C25.5268 16.1007 26.6233 17.4021 27.0732 18.786L27.2444 19.3128L27.1049 19.7763C26.8514 20.6206 26.3951 21.4077 25.7677 22.0997C25.5775 22.3091 25.5205 22.4234 25.5205 22.5948C25.5205 22.9059 25.7486 23.1344 26.0655 23.1344C26.2747 23.1344 26.3444 23.09 26.6106 22.8043C27.3394 22.0108 27.9225 20.9634 28.2204 19.8905C28.4422 19.0907 28.5056 17.6116 28.3472 16.7673C28.0936 15.4405 27.4472 14.1709 26.5092 13.1742C25.5458 12.1585 23.9804 11.346 22.5607 11.1301L22.0347 11.054V10.6794C22.0347 9.98114 21.7178 9.61295 21.2741 9.78435Z" fill="white"/>
<path d="M2.00701 12.4442C1.39224 12.9965 0.669721 14.1773 0.365504 15.1295C-0.0781462 16.507 -0.0718084 18.221 0.390855 19.5732C0.872532 21.0078 1.84856 22.2838 3.09078 23.109C4.03512 23.7375 5.07453 24.1374 6.0569 24.2517L6.43083 24.2898L6.45618 24.804C6.48153 25.261 6.50689 25.3309 6.65899 25.4642C6.98222 25.7372 7.05828 25.7054 9.21315 24.2707C10.3223 23.5344 11.2666 22.8869 11.311 22.8297C11.3997 22.7091 11.4124 22.3473 11.33 22.1886C11.2983 22.1314 10.3603 21.4776 9.25118 20.7349C7.0456 19.2621 6.9442 19.2177 6.63364 19.5478C6.51956 19.6684 6.48153 19.7953 6.45618 20.1572L6.42449 20.6079L6.09493 20.5698C5.61959 20.519 4.97312 20.3032 4.3837 20.0112C3.01473 19.3319 1.93095 18.0877 1.42393 16.6213C1.2528 16.1198 1.24013 16.05 1.30984 15.777C1.50632 15.0025 2.03236 14.0313 2.66615 13.3076C2.88797 13.0473 2.95769 12.914 2.95769 12.7553C2.95769 12.476 2.78656 12.2855 2.5077 12.2411C2.30489 12.203 2.24151 12.2284 2.00701 12.4442Z" fill="white"/>
</svg>
