<svg width="35" height="35" viewBox="0 0 35 35" fill="none" xmlns="http://www.w3.org/2000/svg">
<path d="M19.3793 0.272812C18.8475 0.586391 18.3471 1.27626 18.2115 1.89087C18.1489 2.12919 18.1072 3.49639 18.1072 4.9263V7.53527H13.4673C8.88992 7.53527 8.82736 7.53527 8.6084 7.79867C8.32687 8.13734 8.39986 8.73941 8.78566 9.14079L9.05675 9.42928L14.1659 9.39165L19.275 9.35402L19.4732 9.05298C19.6608 8.78958 19.6713 8.52617 19.6713 5.6538C19.6713 2.70617 19.6817 2.53057 19.8902 2.21699C20.0466 1.96613 20.1926 1.89087 20.4846 1.89087C20.8495 1.89087 21.131 2.20445 27.1473 9.45436C33.0697 16.5663 33.4347 17.0304 33.4347 17.4443C33.4347 17.8582 33.0697 18.3349 27.0952 25.5095C23.4666 29.8745 20.6827 33.1232 20.5784 33.1232C20.3073 33.1232 19.8068 32.7845 19.7338 32.5588C19.7025 32.4459 19.6713 30.9532 19.6713 29.2474C19.6713 26.1618 19.6713 26.1367 19.4314 25.8733L19.1916 25.5973H10.6729H2.16462L1.89352 25.3088C1.70584 25.1207 1.62243 24.8949 1.612 24.619C1.60157 24.2301 1.82054 23.9416 4.21871 21.0316C6.45005 18.3474 6.84627 17.8206 6.84627 17.507C6.84627 17.1935 6.45005 16.6666 4.30212 14.0577C2.90493 12.3644 1.70584 10.8592 1.64328 10.7087C1.50773 10.3826 1.67456 9.71777 1.94566 9.54216C2.04993 9.46691 3.03005 9.41673 4.12486 9.41673C5.20925 9.41673 6.22066 9.36656 6.37706 9.2913C6.54389 9.21605 6.71072 8.99027 6.80456 8.71432C6.96096 8.27531 6.95053 8.22514 6.76285 7.9241L6.56474 7.59798H4.0206C1.51816 7.59798 1.46602 7.59798 1.11151 7.89902C0.225231 8.61398 -0.170989 9.83066 0.0688284 11.0599C0.19395 11.7121 0.298219 11.8501 2.56084 14.597L4.90688 17.4443L2.65468 20.1787C1.41389 21.6713 0.319072 23.1013 0.214804 23.3396C-0.0667204 23.9793 -0.0458667 25.2587 0.256511 25.936C0.527609 26.5632 1.09066 27.1401 1.62243 27.3408C1.90395 27.4412 4.34383 27.4788 10.0682 27.4788H18.1072V30.1379C18.1072 33.1859 18.1698 33.4619 18.9205 34.2772C19.64 35.0548 20.5993 35.2179 21.496 34.7036C21.913 34.4653 23.3207 32.8347 28.3464 26.7764C32.7361 21.4832 34.7276 18.9997 34.8423 18.6735C35.0717 17.9837 35.0508 16.7921 34.7797 16.1524C34.4774 15.4249 22.1946 0.636562 21.5794 0.272812C20.9746 -0.0909386 19.9945 -0.0909386 19.3793 0.272812Z" fill="white"/>
<path d="M2.80066 22.8877C2.09164 23.7532 1.63286 24.4055 1.63286 24.556C1.63286 24.694 1.7267 24.9574 1.85182 25.1455L2.06036 25.4716H10.5999H19.1395L19.4314 25.7727L19.7234 26.0737L19.7755 29.36C19.8277 32.4205 19.689 32.8107 19.8767 32.9738C20.3355 33.3626 20.7139 33.0602 21.9652 31.555C22.6221 30.7648 23.1452 30.0813 23.0826 30.0813C23.1261 29.8573 22.9497 29.9089 22.762 29.6957C22.2615 29.1814 22.1208 28.5447 22.1208 26.0737C22.1208 23.7658 22.2239 23.4609 21.64 22.9466L20.9746 22.7749L12.946 22.7121C6.71072 22.662 4.98614 22.4936 4.80888 22.3681C4.67333 22.2803 4.46354 22.028 4.328 21.7896L3.95804 21.4578L2.80066 22.8877Z" fill="#28D07E"/>
<path d="M20.3386 1.99137C19.8068 2.09171 19.786 2.22969 19.7547 5.70413C19.7234 8.9277 19.7234 8.94025 19.4732 9.17857C19.2438 9.40434 18.9935 9.41688 14.0512 9.41688H8.85865L8.63969 9.12839C8.51456 8.96533 8.4103 8.73956 8.4103 8.62667C8.4103 8.45107 8.2956 8.41344 7.68042 8.41344C6.99225 8.41344 6.95054 8.42598 6.88798 8.72701C6.75243 9.35417 6.54389 9.41688 4.43767 9.41688C3.26987 9.41688 2.36274 9.46706 2.16463 9.55486C1.84139 9.69283 1.63286 10.0691 1.63286 10.5207C1.63286 10.621 2.83194 12.1764 4.30213 13.9449C6.91926 17.1058 6.98182 17.1936 6.90883 17.595C6.8567 17.9086 6.49176 18.4354 5.4178 19.7273L3.98932 21.4583L4.19786 21.7969C4.31255 21.9851 4.54194 22.2485 4.69835 22.3865C4.97987 22.6499 5.10499 22.6499 12.9772 22.7126C20.7139 22.7753 20.985 22.7878 21.3187 23.0262C21.9652 23.4902 22.0694 24.0045 22.0694 26.5508C22.0694 29.0845 22.1529 29.4733 22.7785 29.9123L23.133 30.1506L28.19 24.0798C30.9635 20.7433 33.2783 17.896 33.3304 17.758C33.3721 17.6201 33.3617 17.3692 33.3096 17.1936C33.1949 16.8173 21.204 2.31749 20.8182 2.09171C20.6722 2.01645 20.4533 1.96628 20.3386 1.99137Z" fill="#28D07E"/>
</svg>
