<svg width="28" height="28" viewBox="0 0 28 28" fill="none" xmlns="http://www.w3.org/2000/svg">
<path d="M10.0187 1.2535C9.8875 2.2055 9.82187 2.53071 9.75078 2.60758C9.69609 2.6608 9.3625 2.80271 9.00703 2.92097C8.65156 3.03923 8.04453 3.31123 7.65625 3.5241C7.27344 3.73106 6.9125 3.90253 6.86328 3.90253C6.80859 3.90253 6.35469 3.5714 5.84609 3.16341C5.3375 2.75541 4.90547 2.42428 4.87812 2.42428C4.85625 2.42428 4.23828 3.07471 3.51094 3.86114L2.17656 5.30392L2.84375 6.27365C3.21016 6.80582 3.53281 7.2966 3.56562 7.36164C3.60391 7.45625 3.54375 7.63364 3.26484 8.21903C3.07344 8.62703 2.81094 9.31294 2.67969 9.7505C2.51562 10.2827 2.40078 10.5665 2.32422 10.6138C2.26406 10.6552 1.77187 10.7616 1.23047 10.8444C0.689062 10.9331 0.191406 11.0159 0.120312 11.0277L0 11.0573L0.0109375 13.115L0.0273437 15.1668L1.17031 15.3501C1.87031 15.4684 2.34062 15.5689 2.38437 15.6221C2.42812 15.6694 2.51562 15.9 2.57578 16.1365C2.72891 16.7279 3.01875 17.4847 3.34687 18.1588C3.5875 18.6555 3.60937 18.7442 3.55469 18.8624C3.51641 18.9334 3.21016 19.4064 2.86016 19.9091C2.51562 20.4117 2.22578 20.8551 2.20937 20.8906C2.19844 20.932 2.78906 21.612 3.52187 22.4043L4.85078 23.8412L5.82422 23.0666C6.35469 22.6409 6.81953 22.292 6.85234 22.292C6.89062 22.292 7.23515 22.4635 7.61797 22.6704C8.00625 22.8833 8.64062 23.1671 9.0289 23.3031C9.41718 23.4391 9.75625 23.581 9.78906 23.6224C9.8164 23.6579 9.92031 24.2551 10.0187 24.941L10.1883 26.1946H12.0969C13.1414 26.1946 14 26.1768 14 26.1473C14 26.1236 14.0711 25.6033 14.1586 24.9883L14.3117 23.8708L14.1312 23.3209C13.8195 22.3748 13.7102 21.683 13.7047 20.589C13.6992 19.8026 13.6883 19.6371 13.6227 19.6607C13.5844 19.6784 13.3383 19.7317 13.0812 19.779C10.4617 20.2757 7.70547 18.7324 6.48594 16.0952C5.93906 14.9126 5.72031 13.2924 5.93359 11.9679C6.27265 9.86876 7.55234 8.01208 9.32422 7.05417C10.7789 6.26182 12.6219 6.13765 14.1367 6.72304C16.4609 7.62773 18.0633 9.82737 18.3148 12.4705C18.3477 12.772 18.3805 13.0322 18.3969 13.05C18.4078 13.0618 18.6484 12.9967 18.9328 12.9021C19.7805 12.6065 20.4422 12.5178 21.432 12.5533C22.3508 12.5887 22.8211 12.6774 23.5648 12.9554C23.8219 13.0559 24.0789 13.1505 24.1336 13.1682C24.2211 13.1978 24.2266 13.1209 24.2266 12.1334V11.0691L24.0789 11.0336C23.9914 11.0159 23.4828 10.9331 22.9414 10.8444C22.4 10.7616 21.9078 10.6611 21.8477 10.6138C21.7766 10.5665 21.6672 10.3063 21.5305 9.82737C21.4156 9.43711 21.1586 8.76303 20.9617 8.32546C20.7594 7.89381 20.6008 7.49173 20.6062 7.43851C20.6062 7.3853 20.918 6.8886 21.2953 6.33869C21.6727 5.78287 21.9844 5.30983 21.9844 5.28618C21.9844 5.20931 19.3977 2.42428 19.3211 2.42428C19.2883 2.42428 18.8453 2.75541 18.3367 3.16341C17.8336 3.5714 17.3742 3.90253 17.325 3.90253C17.2703 3.90253 16.9859 3.77245 16.6961 3.60688C16.1219 3.28758 15.3672 2.96236 14.8477 2.80271C14.6672 2.7495 14.4758 2.66671 14.4266 2.60758C14.3609 2.54254 14.2898 2.17002 14.1695 1.30081C14.0766 0.632639 14 0.0709019 14 0.041338C14 0.0176849 13.1414 -5.34058e-05 12.0969 -5.34058e-05H10.1937L10.0187 1.2535Z" fill="#343A40"/>
<path d="M11.0031 7.12522C10.0406 7.35582 9.24215 7.76382 8.55856 8.35512C6.78122 9.91024 6.03747 12.5238 6.71012 14.8713C6.84684 15.3502 7.257 16.3199 7.32262 16.3199C7.33903 16.3199 7.44294 16.1662 7.54684 15.977C7.78747 15.5513 8.50934 14.7293 8.94684 14.3923C9.31872 14.1085 10.2211 13.6236 10.4945 13.5645C10.5875 13.5408 10.664 13.5172 10.664 13.5054C10.664 13.4935 10.5656 13.3871 10.4507 13.2688C9.55387 12.3996 9.42809 10.8504 10.1609 9.80381C10.675 9.0706 11.375 8.71582 12.239 8.76312C12.6273 8.78086 12.7859 8.82225 13.0703 8.96416C14.6015 9.74468 14.9843 11.8379 13.8304 13.1565C13.6718 13.3339 13.557 13.4935 13.5679 13.4994C13.5789 13.5113 13.7156 13.5704 13.8632 13.6295C14.3336 13.8128 14.9406 14.1676 15.307 14.4633C15.4984 14.6229 15.7007 14.7885 15.7554 14.8358C15.8484 14.9067 15.8922 14.8831 16.1711 14.6052C16.5484 14.2327 17.1664 13.7537 17.4945 13.5763L17.7351 13.4521L17.7023 12.8017C17.5765 10.1231 15.9304 7.92939 13.5132 7.20209C12.9664 7.04243 11.5281 6.99513 11.0031 7.12522Z" fill="#343A40"/>
<path d="M11.6703 9.45498C10.6969 9.72697 10.1117 10.7795 10.3578 11.8143C10.5 12.4292 10.7844 12.8136 11.3203 13.1092C11.5773 13.2511 11.6867 13.2748 12.0859 13.2748C12.4852 13.2748 12.5945 13.2511 12.857 13.1092C13.218 12.92 13.5789 12.5238 13.743 12.1336C13.9289 11.7019 13.9125 10.9628 13.7102 10.5193C13.5352 10.1291 13.1633 9.7388 12.8187 9.57324C12.5508 9.44315 11.9328 9.37811 11.6703 9.45498Z" fill="#343A40"/>
<path d="M20.3875 13.2452C18.0578 13.5645 16.0508 15.0841 15.0445 17.2956C13.7485 20.1398 14.2242 23.4865 16.2422 25.7453C17.2485 26.8688 18.4078 27.5606 19.8516 27.8917C20.5352 28.0455 21.9406 28.0336 22.6133 27.8681C23.3242 27.6907 23.975 27.4187 24.5438 27.0639C26.0477 26.1356 27.125 24.7164 27.6719 22.9544C27.9016 22.2152 28 21.5057 28 20.6069C28 19.7022 27.9016 18.9986 27.6664 18.2476C26.8899 15.7346 24.8719 13.8306 22.4656 13.3339C21.9133 13.2215 20.8797 13.1742 20.3875 13.2452ZM25.2328 17.7746C25.4625 18.0229 25.4461 18.0466 22.843 20.8552C20.6774 23.2027 20.3492 23.5338 20.207 23.5338C20.0649 23.5338 19.8406 23.315 18.5227 21.89C17.4563 20.7311 17.0078 20.2107 17.0078 20.1161C17.0078 19.9624 17.1883 19.7495 17.3195 19.7495C17.3688 19.7495 18.0305 20.4118 18.7852 21.2278C19.5399 22.0378 20.1797 22.706 20.207 22.706C20.2399 22.706 21.3063 21.5766 22.586 20.193C24.2266 18.4191 24.943 17.6799 25.0305 17.6799C25.0961 17.6799 25.1891 17.7213 25.2328 17.7746Z" fill="#343A40"/>
<path d="M11.8125 14.0021C10.6094 14.0731 9.51561 14.6053 8.67342 15.5277C8.37264 15.8588 7.98436 16.4265 7.84764 16.7458L7.74921 16.9586L7.93514 17.2129C8.41639 17.8692 9.69061 18.7089 10.6367 18.9927C11.2328 19.1701 12.764 19.1878 13.4148 19.0223C13.65 18.9632 13.8523 18.8804 13.8633 18.8449C14.2023 17.5499 14.5414 16.7458 15.0992 15.912L15.4273 15.4153L15.2742 15.2734C14.7164 14.7649 13.9726 14.3392 13.3437 14.1618C12.9664 14.0554 12.2062 13.9726 11.8125 14.0021Z" fill="#343A40"/>
</svg>
