<svg width="25" height="25" viewBox="0 0 25 25" fill="none" xmlns="http://www.w3.org/2000/svg">
<path d="M11.3281 0.531033C7.66246 0.906033 4.40934 2.88416 2.40777 5.95916C1.36715 7.56228 0.715587 9.42791 0.54215 11.3263C0.46715 12.1654 0.514025 13.7263 0.640587 14.4435C0.870275 15.742 1.28746 17.0076 1.80777 17.9826C1.9109 18.1748 1.99996 18.3717 1.99996 18.4138C1.99996 18.456 1.77496 19.2576 1.4984 20.1951C1.00621 21.8592 0.996837 21.906 0.996837 22.3654C0.996837 22.7498 1.01559 22.8763 1.09996 23.0592C1.24059 23.3685 1.5734 23.706 1.89215 23.8654C2.22027 24.0295 2.7734 24.0717 3.1484 23.9685C3.27965 23.9357 4.10465 23.6967 4.9859 23.4435L6.58434 22.9795L7.16559 23.2654C8.29527 23.8232 9.25152 24.1279 10.5781 24.3623C11.2812 24.4888 12.95 24.5357 13.7468 24.456C16.5546 24.1701 19.1375 22.9092 21.125 20.8607C21.7437 20.2232 22.0437 19.8482 22.5547 19.0888C23.4593 17.7295 24.1203 16.0092 24.3875 14.3263C24.4906 13.6654 24.5281 11.9451 24.4578 11.2654C24.2187 9.03884 23.4218 7.02322 22.0578 5.19978C21.575 4.55759 20.3797 3.36697 19.7187 2.87947C17.975 1.58572 16.0953 0.831032 13.9531 0.563845C13.4703 0.502907 11.7968 0.484156 11.3281 0.531033ZM14.2343 1.88103C16.1468 2.22791 17.8625 3.00134 19.2828 4.15916C20.989 5.55603 22.2265 7.42634 22.8359 9.54509C23.1125 10.5107 23.1968 11.0826 23.2203 12.2404C23.2437 13.131 23.2297 13.3701 23.1453 13.9654C22.7984 16.356 21.7578 18.442 20.0797 20.106C18.4343 21.7373 16.4656 22.7404 14.164 23.1248C13.3812 23.2513 11.4593 23.242 10.7375 23.1013C9.4109 22.8482 8.5109 22.5388 7.32027 21.9154C6.85152 21.6763 6.74371 21.6342 6.60777 21.6623C6.51871 21.6763 5.61871 21.9342 4.60621 22.2295C3.58902 22.5201 2.6984 22.7638 2.61871 22.7638C2.4359 22.7638 2.23434 22.5623 2.23434 22.3795C2.23434 22.3045 2.47809 21.4138 2.76871 20.3967C3.06402 19.3795 3.32184 18.4748 3.3359 18.3904C3.36402 18.2545 3.32184 18.1467 3.08277 17.6779C2.46402 16.4873 2.14996 15.592 1.89215 14.2607C1.80777 13.8154 1.79371 13.567 1.79371 12.5217C1.78902 11.1951 1.81246 10.9654 2.07027 9.92009C3.12027 5.68259 6.61246 2.51384 10.9765 1.85291C11.7218 1.74041 13.5546 1.75447 14.2343 1.88103Z" fill="#28D07E"/>
<path d="M8.56248 6.06227C8.42185 6.09508 8.15935 6.20289 7.98123 6.29195C6.88435 6.84508 6.16717 7.85289 6.03592 9.01539C5.98435 9.49821 6.04998 10.6045 6.17185 11.256C6.37342 12.3201 6.88904 13.6326 7.4656 14.5138C8.42654 15.9951 9.79998 17.2373 11.3187 18.0013C12.6219 18.6576 13.9484 18.9716 15.4203 18.981C15.9734 18.981 16.1515 18.967 16.4609 18.8779C17.4781 18.5966 18.2328 17.9685 18.7109 17.0216C19.0484 16.342 19.0859 15.8123 18.8234 15.292C18.6594 14.9638 18.4672 14.781 17.4453 13.9982C16.2172 13.056 16.0859 12.9904 15.5234 12.9904C14.9469 12.9904 14.7219 13.0982 14.1125 13.6795L13.6484 14.1248L13.4562 14.0638C12.3734 13.7451 11.2531 12.6248 10.9344 11.542L10.8781 11.3498L11.3094 10.8904C11.8906 10.2763 12.0078 10.042 12.0078 9.47477C12.0078 9.10914 11.989 9.02008 11.8812 8.79508C11.7406 8.51383 10.2828 6.58727 10.0719 6.41383C9.68748 6.0857 9.04998 5.93571 8.56248 6.06227ZM9.20467 7.35133C9.26092 7.3982 9.5656 7.79195 10.4515 8.94977C10.6484 9.21227 10.7656 9.40914 10.7656 9.48414C10.7656 9.57789 10.6297 9.74664 10.2078 10.1732C9.9031 10.4873 9.62654 10.7873 9.59842 10.8435C9.5281 10.9841 9.53279 11.167 9.61717 11.5373C10.0531 13.4076 11.5906 14.9451 13.4609 15.381C13.8312 15.4654 14.014 15.4701 14.1547 15.3998C14.2109 15.3716 14.5109 15.0951 14.825 14.7904C15.2562 14.3685 15.4203 14.2326 15.514 14.2326C15.6359 14.2326 15.8 14.3451 17.0515 15.3154C17.7078 15.8216 17.7781 15.9248 17.6797 16.2107C17.464 16.8482 16.9203 17.3779 16.2453 17.6123C15.9922 17.6966 15.8515 17.7154 15.3547 17.7107C13.3344 17.692 11.4219 16.8951 9.88904 15.4326C8.31404 13.9279 7.45623 12.1513 7.29685 10.0654C7.2406 9.30602 7.29217 8.90289 7.49842 8.46696C7.84529 7.73102 8.86248 7.06539 9.20467 7.35133Z" fill="#28D07E"/>
</svg>
