<svg width="67" height="56" viewBox="0 0 67 56" fill="none" xmlns="http://www.w3.org/2000/svg">
<path d="M37.6225 0.179424L37.2776 0.358795L37.2362 18.7509C37.2224 32.2448 37.25 37.1982 37.3604 37.3361C37.4983 37.5017 39.9129 37.5293 51.6408 37.5293H65.7556L65.9626 37.2258C66.1558 36.9498 66.1834 35.2665 66.1834 21.9105V6.91261L63.5205 6.87122L60.8437 6.82983L60.347 6.4435C59.395 5.71223 59.2846 5.3121 59.2846 2.48361V5.72205e-05H48.6329C40.313 5.72205e-05 37.8985 0.0414505 37.6225 0.179424ZM55.5593 4.69121C55.9042 5.03615 55.918 5.67084 55.5731 6.08476L55.3109 6.4159H48.2466H41.1823L40.9201 6.08476C40.5752 5.67084 40.589 5.03615 40.9339 4.69121C41.1961 4.42906 41.3892 4.41526 48.2466 4.41526C55.104 4.41526 55.2971 4.42906 55.5593 4.69121ZM62.3615 10.0309C62.7616 10.4862 62.7892 10.9691 62.4166 11.3968L62.0717 11.7969L52.0823 11.8383C46.6047 11.8659 41.8997 11.8383 41.6514 11.7969C40.7408 11.6314 40.3406 10.6655 40.9339 10.0722C41.2099 9.79629 41.3892 9.79629 51.6684 9.79629C61.4646 9.79629 62.1545 9.81009 62.3615 10.0309ZM62.4029 15.4947C62.8168 15.9776 62.8168 16.3087 62.4029 16.7916L62.0717 17.178L51.9167 17.2194C43.2795 17.247 41.6928 17.2194 41.2927 17.0538C40.7684 16.833 40.5614 16.3915 40.7132 15.7844C40.9063 15.0393 40.7959 15.0393 51.8753 15.0807L62.0717 15.1083L62.4029 15.4947ZM62.4166 20.8895C62.803 21.3448 62.7616 21.8553 62.2925 22.2417C62.0303 22.4762 61.3128 22.49 51.6132 22.49C41.3892 22.49 41.2099 22.49 40.9339 22.2141C40.451 21.7311 40.6166 20.9447 41.2789 20.5722C41.472 20.4756 44.5351 20.4342 51.8064 20.4618L62.0717 20.4894L62.4166 20.8895ZM62.3477 26.2153C62.6788 26.5603 62.7478 26.712 62.6788 27.0156C62.6236 27.2226 62.458 27.4985 62.2925 27.6227C62.0303 27.8572 61.3128 27.871 51.6546 27.871H41.2927L40.9753 27.5675C40.4648 27.0846 40.6166 26.2015 41.2513 25.9394C41.4168 25.8704 46.1356 25.8152 51.7374 25.8152L61.9337 25.8014L62.3477 26.2153ZM62.3477 31.5964C62.6788 31.9413 62.7478 32.0931 62.6788 32.3966C62.6236 32.6036 62.458 32.8795 62.2925 33.0037C62.0303 33.2383 61.3128 33.2521 51.6546 33.2521H41.2927L40.9753 32.9485C40.4648 32.4656 40.6166 31.5826 41.2513 31.3204C41.4168 31.2514 46.1356 31.1962 51.7374 31.1962L61.9337 31.1824L62.3477 31.5964Z" fill="#28D07E"/>
<path d="M61.3818 2.44222L61.4232 4.76021L63.7412 4.8016C65.0106 4.8154 66.0454 4.7878 66.0454 4.73261C66.0454 4.59464 61.5888 0.13804 61.4508 0.13804C61.3956 0.13804 61.368 1.17285 61.3818 2.44222Z" fill="#28D07E"/>
<path d="M2.39749 2.69061C1.14191 3.13213 0.659 4.04277 0.645203 5.89164V7.1748H3.81863H6.99206V5.87784C6.99206 5.16037 6.92307 4.4015 6.84029 4.18074C6.63332 3.62884 6.05383 3.04935 5.40534 2.7458C4.74306 2.44226 3.17015 2.40087 2.39749 2.69061Z" fill="#28D07E"/>
<path d="M0.645203 19.9375V30.6306H3.81863H6.99206V19.9375V9.24441H3.81863H0.645203V19.9375Z" fill="#28D07E"/>
<path d="M19.5478 12.4041C17.3402 12.8732 15.2567 14.0735 13.6562 15.7844C9.65495 20.0617 9.65495 26.85 13.6562 31.1273C15.1188 32.7002 16.6779 33.666 18.8165 34.3007C20.4584 34.7974 23.1765 34.8388 24.8184 34.3835C28.7093 33.3211 31.8276 30.2166 32.89 26.3533C33.2349 25.0978 33.2349 21.814 32.89 20.5584C31.2757 14.6944 25.4807 11.1623 19.5478 12.4041Z" fill="#28D07E"/>
<path d="M1.33502 32.7829C1.33502 32.9209 3.74959 37.1016 3.83237 37.1154C3.87376 37.1154 4.31528 36.3841 4.82579 35.4872C5.3363 34.6042 5.902 33.6108 6.09516 33.2796L6.4539 32.7002H3.90136C2.49401 32.7002 1.33502 32.7415 1.33502 32.7829Z" fill="#28D07E"/>
<path d="M19.1339 36.1634C15.7535 36.5911 12.3593 37.8742 9.33762 39.8887C7.51635 41.0891 4.71545 43.9038 3.51507 45.7388C1.88696 48.2086 0.672781 50.9957 0.162273 53.5068C-0.0584872 54.5968 -0.0584872 54.6658 0.189868 55.1625C0.369236 55.5489 0.576198 55.7144 0.976326 55.8524C1.39025 55.9904 5.81925 56.018 22.2659 55.9904L43.0311 55.949L43.4313 55.4937C43.9418 54.928 43.9418 54.4451 43.5003 52.6652C41.541 44.9386 35.2769 38.6745 27.5503 36.7015C26.5431 36.4393 23.5491 35.9702 23.4663 36.053C23.4525 36.0668 24.2941 38.7711 25.3427 42.0687C27.1916 47.8774 27.2468 48.0706 27.0122 48.3742C26.1154 49.5193 21.9623 54.0587 21.8796 54.0035C21.6726 53.8794 16.6503 48.181 16.6503 48.0706C16.6503 48.0154 17.4644 45.4353 18.444 42.317C20.555 35.6942 20.4584 36.0116 20.2239 36.0254C20.1135 36.0392 19.6306 36.0944 19.1339 36.1634Z" fill="#28D07E"/>
</svg>
